<?xml version="1.0" standalone="no"?>
<!DOCTYPE svg PUBLIC "-//W3C//DTD SVG 1.1//EN" "http://www.w3.org/Graphics/SVG/1.1/DTD/svg11.dtd" >
<svg xmlns="http://www.w3.org/2000/svg">
<metadata></metadata>
<defs>
<font id="signika_negativeregular" horiz-adv-x="1085" >
<font-face units-per-em="2048" ascent="1638" descent="-410" />
<missing-glyph horiz-adv-x="450" />
<glyph horiz-adv-x="0" />
<glyph horiz-adv-x="0" />
<glyph horiz-adv-x="682" />
<glyph unicode="&#xd;" horiz-adv-x="681" />
<glyph unicode=" "  horiz-adv-x="450" />
<glyph unicode="&#x09;" horiz-adv-x="450" />
<glyph unicode="&#xa0;" horiz-adv-x="450" />
<glyph unicode="!" horiz-adv-x="583" d="M162 99.5q0 64.5 16 93.5q41 25 111.5 24.5t111.5 -24.5q16 -29 16.5 -93.5t-16.5 -91.5q-41 -25 -111.5 -24.5t-111.5 24.5q-16 27 -16 91.5zM188 1356q78 57 213 57l13 -14l-47 -1004q-31 -10 -78 -10t-78 10z" />
<glyph unicode="&#x22;" horiz-adv-x="782" d="M98 1456q0 31 13 76q43 25 103 24.5t99 -24.5q14 -53 14.5 -81t-10.5 -83q-39 -203 -53 -324q-16 -10 -50 -10t-54 10q-16 137 -39 259t-23 153zM457 1456q0 31 12 76q43 25 103.5 24.5t99.5 -24.5q14 -53 14 -81t-10 -83q-39 -203 -53 -324q-16 -10 -50 -10t-55 10 q-16 137 -38.5 259t-22.5 153z" />
<glyph unicode="#" horiz-adv-x="1304" d="M49 406q0 49 12 83h250l78 355h-231q-12 33 -12.5 82t12.5 84h268l68 295q35 14 91 14t89 -14l-68 -295h260l66 295q35 14 91 14t91 -14l-67 -295h200q12 -35 12.5 -84t-12.5 -82h-237l-78 -355h219q12 -35 12 -84t-12 -83h-258l-66 -295q-33 -14 -91 -14.5t-89 14.5 l66 295h-260l-66 -295q-33 -14 -91 -14.5t-89 14.5l65 295h-211q-12 35 -12 84zM492 489h258l79 355h-260z" />
<glyph unicode="$" horiz-adv-x="1019" d="M70 203q2 41 26.5 87t55.5 66q203 -115 370 -114q88 0 147.5 37.5t59.5 99t-42 106.5t-114 70l-206 74q-250 94 -250 295q0 121 81 207t220 108v170q31 6 81 6t81 -6v-166q158 -12 319 -88q0 -96 -72 -158q-174 80 -317 80q-86 0 -137 -36.5t-51 -95t33.5 -87.5 t111.5 -55l201 -74q121 -43 195.5 -126t74.5 -209t-98.5 -215t-268.5 -101v-158q-20 -4 -80.5 -4t-80.5 4v162q-199 29 -340 121z" />
<glyph unicode="%" horiz-adv-x="1837" d="M98.5 1006.5q-0.5 230.5 100.5 332.5q82 84 221 84t217 -84q100 -100 100 -331.5t-100 -331.5q-84 -86 -219 -86t-219 86q-100 100 -100.5 330.5zM270 1006.5q0 -283.5 150 -283.5q145 0 145 283.5t-145 283.5q-150 0 -150 -283.5zM434 0l772 1399q35 12 66 12 q96 0 129 -12l-770 -1399q-35 -12 -66 -12q-98 0 -131 12zM1100 394q0 231 98 329q80 86 220.5 86t219.5 -86q101 -98 101 -329.5t-101 -334.5q-82 -84 -219 -84t-221 84q-98 104 -98 335zM1272 392.5q0 -283.5 147.5 -283.5t147.5 283.5t-147.5 283.5t-147.5 -283.5z" />
<glyph unicode="&#x26;" horiz-adv-x="1265" d="M104 369q0 135 79 240.5t192 140.5q-92 33 -151.5 118.5t-59.5 192.5q0 156 114.5 260t315.5 104t364 -59v-12q0 -90 -53 -146q-174 51 -290.5 51.5t-177 -58t-60.5 -157t63.5 -158t194.5 -59.5h375q125 0 192 31q27 -33 27 -96q0 -106 -150 -107h-65l2 -127v-221 q0 -80 12 -307q-41 -10 -91 -10t-95 8l-17 84q-150 -109 -333 -109t-285.5 110t-102.5 286zM317 378q0 -114 60.5 -177.5t163.5 -63.5q162 0 276 99v290q0 82 2 129h-205q-150 0 -223.5 -81.5t-73.5 -195.5z" />
<glyph unicode="'" horiz-adv-x="423" d="M90 1456q0 31 12 76q43 25 103.5 24.5t99.5 -24.5q14 -53 14 -81t-10 -83q-39 -203 -53 -324q-16 -10 -50 -10t-54 10q-16 137 -39 259t-23 153z" />
<glyph unicode="(" horiz-adv-x="667" d="M129 665.5q0 280.5 103.5 565.5t285.5 463q82 -25 119 -109q-293 -377 -293 -920.5t293 -920.5q-37 -80 -119 -109q-182 180 -285.5 465t-103.5 565.5z" />
<glyph unicode=")" horiz-adv-x="667" d="M31 -256q295 381 295 920.5t-295 920.5q37 84 121 109q182 -178 284.5 -463t102.5 -565.5t-102.5 -565t-284.5 -465.5q-84 29 -121 109z" />
<glyph unicode="*" horiz-adv-x="1028" d="M94 1128v24.5t15.5 66t40.5 75.5l104 -34q72 -25 209 -109q-35 152 -35 233l-2 113q33 14 88 14t88 -14v-113q-2 -66 -39 -233q115 74 211 109l107 32q23 -25 40 -77t15 -89l-107 -32q-70 -23 -235 -37q115 -94 168 -168l65 -90q-16 -31 -60 -62.5t-81 -40.5l-63 90 q-43 55 -109 211q-59 -145 -108 -211l-64 -90q-35 8 -79 40t-64 65l65 88q53 70 168 168q-156 8 -231 37z" />
<glyph unicode="+" d="M109 599q0 52 8 87h241l95 -2l-2 96v262q43 6 93 6.5t91 -6.5v-262l-2 -96l94 2h242q8 -39 8 -89t-8 -83h-242l-94 2l2 -94v-264q-41 -6 -91 -6t-93 6v264l2 94l-95 -2h-241q-8 33 -8 85z" />
<glyph unicode="," horiz-adv-x="544" d="M72 -223q72 33 118 87t48 118q-61 16 -80 28q-18 33 -18.5 101.5t18.5 95.5q49 27 125.5 26.5t113.5 -26.5q20 -47 21 -131q0 -133 -76 -242t-219 -160q-51 29 -51 88v15z" />
<glyph unicode="-" horiz-adv-x="710" d="M96 544q0 50 8 89h500q10 -35 10 -88t-10 -86h-500q-8 35 -8 85z" />
<glyph unicode="." horiz-adv-x="532" d="M127 108.5q0 63.5 18 100.5q45 25 122 24.5t120 -24.5q18 -37 18.5 -100.5t-18.5 -100.5q-39 -25 -118 -24.5t-124 24.5q-18 37 -18 100.5z" />
<glyph unicode="/" horiz-adv-x="858" d="M16 -160l648 1716q100 -8 172 -63l-648 -1718q-98 6 -172 65z" />
<glyph unicode="0" d="M98 665q0 212 31 345t119 227q113 117 293 117t297 -117q86 -94 117.5 -228.5t31.5 -345t-31.5 -345t-117.5 -228.5q-117 -117 -295 -117t-295 117q-86 94 -118 228.5t-32 346.5zM307 663.5q0 -354.5 84 -460.5q53 -72 151.5 -72t151.5 72q84 106 84 460.5t-84 460.5 q-53 72 -151.5 72t-151.5 -72q-84 -106 -84 -460.5z" />
<glyph unicode="1" d="M127 936q291 180 383 391q41 10 93 10t95 -10v-1026l-2 -135l119 2h143q10 -45 10.5 -83t-10.5 -85h-759q-10 47 -10.5 85t10.5 83h190l115 -2l-2 135v492q0 39 10 247q-119 -147 -299 -223q-68 39 -86 119z" />
<glyph unicode="2" d="M115 127q0 172 258 391l198 174q160 137 160 285q0 96 -58.5 153.5t-144.5 57.5t-152.5 -54.5t-103.5 -142.5q-106 8 -143 70q47 125 156.5 209t272.5 84t270.5 -105.5t107.5 -273.5q0 -96 -40 -180t-86 -132.5t-130 -119.5l-158 -137q-182 -156 -207 -244q137 14 267 14 h387q0 -51 -4 -78q-16 -98 -129 -98h-639q-82 72 -82 127z" />
<glyph unicode="3" d="M102 106q18 82 88 136q139 -104 276.5 -104.5t215.5 74.5t78 201t-63.5 190.5t-158 64.5t-157.5 -35q-59 27 -82 108l264 287q61 70 139 135l-8 8q-84 -18 -239 -18h-295q-12 35 -12.5 82t18.5 92h711q43 -78 43 -127t-41 -92l-224 -238q-39 -41 -75 -65 q168 -4 278.5 -103.5t110.5 -298t-138.5 -314.5t-324.5 -116q-246 0 -404 133z" />
<glyph unicode="4" d="M84 400.5q0 37.5 41 134.5l348 804q20 4 45 4q92 0 141 -40l-247 -570q-84 -197 -133 -278l4 -6q117 6 231 6h90q-2 23 -2 69v172q0 72 35 112t96 40h55l9 -8v-281l-2 -104l92 2h114q6 -27 6.5 -76t-14.5 -92h-198l2 -103v-186q-41 -8 -97.5 -8t-97.5 8v186l2 103 l-104 -2h-371q-45 76 -45 113.5z" />
<glyph unicode="5" d="M119 102q16 82 86 136q143 -100 270 -100.5t205 78.5t78 227.5t-77 214t-192.5 65.5t-226.5 -94q-27 4 -55.5 24.5t-40.5 42.5l29 617l14 14h686q14 -41 14 -82q0 -90 -88 -90h-442q0 -84 -2 -108l-8 -150q0 -20 -7 -57q96 41 191 41q188 0 300 -113t112 -329 t-136.5 -341t-345.5 -125t-364 129z" />
<glyph unicode="6" d="M106 672q0 317 135.5 499.5t389.5 182.5q180 0 291 -66q-8 -92 -72 -141q-102 45 -209 45q-160 0 -239.5 -118t-86.5 -310q131 121 303.5 121t272.5 -111.5t100 -326t-121.5 -344.5t-316.5 -130t-301 129q-23 27 -31 38.5t-34.5 62.5t-39.5 104q-41 164 -41 365zM315 563 q0 -244 88 -356q59 -78 162 -78t162 81t59 218q0 289 -219 289q-137 0 -252 -121v-33z" />
<glyph unicode="7" d="M127 1229q0 45 16 98h807q39 -74 39 -120t-33 -91l-67 -98q-160 -236 -247 -452t-114 -494l-6 -72q-45 -10 -102.5 -10t-104.5 10l9 82q47 483 338 905l22 33q33 51 113 143l-6 8q-82 -18 -318 -18h-338q-8 31 -8 76z" />
<glyph unicode="8" d="M94 334q0 115 68.5 209t173.5 147q-205 113 -205 314q0 152 118 251t296 99t292.5 -95.5t114.5 -244.5q0 -98 -55 -176t-145 -127q238 -125 237 -361q-2 -172 -133 -274.5t-326.5 -102.5t-315.5 95.5t-120 265.5zM299 337q0 -95 68.5 -155.5t172 -60.5t173 63.5 t69.5 167.5q0 190 -264 266l-33 11h-4q-88 -47 -135 -122t-47 -170zM332 1008q0 -162 243 -230l25 -8q154 84 154 236q0 92 -60.5 145t-151.5 53t-150.5 -54t-59.5 -142z" />
<glyph unicode="9" d="M94 880q0 214 122 344t316.5 130t301.5 -129q23 -27 30.5 -38t34.5 -62.5t39 -104.5q41 -164 41 -365q0 -317 -135 -499.5t-389 -182.5q-180 0 -291 66q8 92 72 141q102 -45 208 -45q160 0 240 117t84 309q-129 -119 -301 -119t-272.5 112t-100.5 326zM299 899 q0 -289 219 -289q137 0 252 121v33q0 244 -88 356q-59 78 -161.5 78t-162 -81t-59.5 -218z" />
<glyph unicode=":" horiz-adv-x="542" d="M133 108.5q0 63.5 19 100.5q45 25 121.5 24.5t119.5 -24.5q18 -37 18.5 -100.5t-18.5 -100.5q-39 -25 -117.5 -24.5t-123.5 24.5q-19 37 -19 100.5zM133 788.5q0 63.5 19 100.5q45 25 121.5 24.5t119.5 -24.5q18 -37 18.5 -100.5t-18.5 -100.5q-39 -25 -117.5 -24.5 t-123.5 24.5q-19 37 -19 100.5z" />
<glyph unicode=";" horiz-adv-x="550" d="M70 -223q72 33 117.5 87t48.5 118q-63 16 -80 28q-18 33 -18.5 101.5t18.5 95.5q49 27 125.5 26.5t113.5 -26.5q20 -47 21 -131q0 -133 -76 -242t-219 -160q-51 29 -51 88v15zM137 788.5q0 63.5 19 100.5q45 25 121.5 24.5t119.5 -24.5q18 -37 18.5 -100.5t-18.5 -100.5 q-39 -25 -117.5 -24.5t-123.5 24.5q-19 37 -19 100.5z" />
<glyph unicode="&#x3c;" d="M99 604q0 39 12 74l759 416q82 -49 93 -156l-500 -264q-82 -41 -148 -70v-12q104 -45 148 -70l500 -262q-10 -104 -93 -158l-759 416q-12 47 -12 86z" />
<glyph unicode="=" d="M109 409q0 50 8 89h852q8 -39 8 -89t-8 -85h-852q-8 35 -8 85zM109 794q0 50 8 89h852q8 -39 8 -89t-8 -85h-852q-8 35 -8 85z" />
<glyph unicode="&#x3e;" d="M123 260l500 264q82 41 147 70v12q-104 45 -147 70l-500 262q10 104 92 158l760 -416q12 -45 12 -85t-12 -75l-760 -416q-82 49 -92 156z" />
<glyph unicode="?" horiz-adv-x="804" d="M25 1323q186 100 371.5 100t287.5 -94t102 -252q0 -246 -266 -395l-129 -72l-16 -215q-29 -10 -76 -10t-78 10l-10 305l16 23l99 49q248 129 247 287q0 86 -54 137t-165.5 51t-255.5 -76q-27 25 -49 68t-24 84zM172 97q0 64 16 93q39 25 112 25t112 -25q18 -33 18 -94 t-18 -90q-39 -25 -112 -24.5t-112 24.5q-16 27 -16 91z" />
<glyph unicode="@" horiz-adv-x="1935" d="M106 458.5q0 401.5 252 663.5t636 262t618.5 -216t234.5 -576q0 -266 -122.5 -419t-292.5 -153t-240 130q-127 -137 -282.5 -137.5t-242.5 121.5t-87 338t110.5 364.5t310 148.5t349.5 -141l-2 -525q0 -147 90 -147t151.5 103.5t61.5 322.5q0 289 -177.5 464t-480.5 175 t-495.5 -219t-192.5 -552t168 -513t449 -180q233 0 417 75q55 -51 56 -141q-240 -90 -484 -90q-362 0 -583.5 220t-221.5 621.5zM774 469q0 -299 172 -299q53 0 112.5 37t100.5 92v475q-63 63 -166.5 63.5t-161 -104t-57.5 -264.5z" />
<glyph unicode="A" horiz-adv-x="1245" d="M43 14l465 1385q41 8 119 8t112 -8l463 -1387q-44 -27 -105 -27q-1 1 -3 1q-62 0 -87.5 22.5t-45.5 85.5l-82 252l-125 -2h-281l-125 2l-110 -348q-33 -8 -85.5 -8t-103.5 14zM401 512l109 2h211q4 0 45 -1t59 -1l-100 317q-61 186 -107 365h-12q-33 -147 -78 -285z" />
<glyph unicode="B" horiz-adv-x="1236" d="M188 12v1374l15 15l420 6q221 0 332.5 -97.5t111.5 -273.5q0 -96 -54.5 -176t-142.5 -112q111 -31 187 -129.5t76 -227.5q0 -178 -120 -288.5t-366 -110.5l-444 6zM391 147q90 2 215 2.5t182.5 24t83.5 64.5q50 77 50 170q0 92 -66 170t-221 77h-244v-508zM391 815h223 q135 0 189.5 63.5t54.5 153.5q0 215 -240 215q-157 0 -227 2v-434z" />
<glyph unicode="C" horiz-adv-x="1234" d="M104 692q0 362 158 547.5t387.5 185.5t365.5 -118.5t136 -278.5q0 -117 -117 -117q-37 1 -84 13v48t-23.5 110.5t-93 121.5t-176.5 53q-166 0 -252 -143t-86 -410.5t92.5 -409.5t262.5 -142t360 157q82 -53 103 -133q-88 -90 -221.5 -146.5t-277.5 -56.5t-249.5 60.5 t-167.5 163.5q-117 203 -117 495z" />
<glyph unicode="D" horiz-adv-x="1323" d="M188 12v1374l15 15q176 6 442 6q90 0 191.5 -26.5t162.5 -77.5q125 -105 170 -252.5t45 -353t-44 -352t-171 -251.5q-61 -51 -162.5 -77.5t-189.5 -26.5t-444 8zM393 158l250 -2q90 0 156.5 33.5t104.5 85t60.5 127t29.5 144t7 152.5t-7 153t-29.5 144.5t-60.5 127 t-104.5 85t-156.5 33.5l-250 2v-1085z" />
<glyph unicode="E" horiz-adv-x="1157" d="M188 125v1261l13 13h817q6 -31 6 -81t-14 -93h-494q-82 0 -129 2l2 -133v-303l127 2h393q11 -49 11 -89q0 -38 -11 -83h-393q-80 0 -127 2v-357q0 -16 -1 -48t-1 -50q57 6 133 6h537q0 -53 -4 -80q-18 -96 -131 -96h-617q-53 0 -85 34t-32 93z" />
<glyph unicode="F" horiz-adv-x="1064" d="M188 0v1386l15 13h803q12 -37 12 -82q0 -94 -117 -94h-307q-146 0 -203 2l2 -250v-187q33 2 92 3h414q10 -45 10 -85t-10 -88h-414q-59 0 -92 3v-621q-41 -8 -102.5 -8t-102.5 8z" />
<glyph unicode="G" horiz-adv-x="1314" d="M104 690q0 188 51.5 333.5t139.5 229.5q174 172 410 172q281 0 475 -151q-16 -96 -103 -154q-166 129 -375 129q-172 0 -278.5 -135t-106.5 -426q0 -543 400 -543q143 0 268 37v240q0 90 2 129h-188q-96 0 -97 92q1 37 17 86h315q80 0 114 -33.5t34 -101.5v-533 q-229 -88 -502 -88q-154 0 -268.5 58.5t-178.5 161.5q-129 201 -129 497z" />
<glyph unicode="H" horiz-adv-x="1378" d="M188 0v1399q41 8 102.5 8t102.5 -8v-438l-2 -152l119 2h358l119 -2l-2 152v438q39 8 101.5 8t103.5 -8v-1399q-43 -8 -103.5 -8t-101.5 8v485l2 152l-119 -2h-358l-119 2l2 -152v-485q-41 -8 -102.5 -8t-102.5 8z" />
<glyph unicode="I" horiz-adv-x="598" d="M197 0v1399q39 8 101 8t103 -8v-1399q-41 -8 -103 -8t-101 8z" />
<glyph unicode="J" horiz-adv-x="913" d="M20 66q17 87 78 153q112 -68 229 -68q1 0 1 1q118 0 167.5 74.5t49.5 248.5v924q41 8 103.5 8t101.5 -8v-893q0 -123 -15.5 -210t-58.5 -163q-87 -153 -335 -153h-3q-180 0 -318 86z" />
<glyph unicode="K" horiz-adv-x="1216" d="M188 0v1399q41 8 102.5 8t102.5 -8v-592l123 2q45 0 76 57l272 453q25 47 50.5 66.5t77.5 19.5t114 -6l12 -19l-317 -532q-37 -61 -78 -96q98 -16 152.5 -77t99.5 -177l115 -301q39 -101 90 -144q-42 -65 -137 -65h-3q-57 0 -85.5 28.5t-51.5 98.5l-115 305 q-45 119 -100 167t-149 48q-43 0 -146 -6v-629q-41 -8 -102.5 -8t-102.5 8z" />
<glyph unicode="L" horiz-adv-x="1046" d="M188 127v1268l13 12h80q61 0 86.5 -30.5t25.5 -100.5v-1106q96 6 180 6h414q0 -55 -4 -82q-18 -96 -133 -96h-543q-53 0 -86 34t-33 95z" />
<glyph unicode="M" horiz-adv-x="1646" d="M156 2l108 1397q47 8 135 8t133 -8l205 -660q16 -47 45 -163.5t35 -155.5h12q20 129 82 319l203 660q51 8 135 8t133 -8l109 -1397q-43 -12 -99.5 -12t-95.5 8l-51 772q-14 231 -16 410h-12l-289 -965q-43 -8 -105.5 -8t-101.5 8l-291 965h-12q-12 -352 -17 -410 l-49 -772q-41 -8 -98 -8t-98 12z" />
<glyph unicode="N" horiz-adv-x="1388" d="M188 0v1397q57 10 126 10t120 -8l447 -875q31 -59 78 -162.5t61 -130.5v-2l6 2q-16 258 -16 506v541q0 70 23.5 99.5t86.5 29.5h66l14 -10v-1395q-57 -10 -126.5 -10t-121.5 8l-448 874q-61 121 -133 283h-9q16 -279 17 -489v-668q-47 -8 -95 -8t-96 8z" />
<glyph unicode="O" horiz-adv-x="1345" d="M104 701q0 414 218 602q138 123 348 123h2q211 0 350 -123q219 -188 219 -603t-219 -604q-139 -123 -350 -123t-350 123q-218 189 -218 605zM319 700.5q0 -106.5 15.5 -196.5t51.5 -177t108.5 -137.5t167 -50.5t159 35t102.5 89t60 130q41 131 41 272.5t-14.5 230.5 t-50 176t-109.5 137.5t-178.5 50.5t-177 -50.5t-108.5 -137.5t-51.5 -176t-15.5 -195.5z" />
<glyph unicode="P" horiz-adv-x="1157" d="M188 0v1386l15 15l413 6q211 0 339 -116.5t128 -335t-128 -336t-339 -117.5h-223v-502q-41 -8 -102.5 -8t-102.5 8zM393 664l219 2q98 0 158.5 48t79 107.5t18.5 155.5t-57 180t-202.5 84t-215.5 2v-579z" />
<glyph unicode="Q" horiz-adv-x="1331" d="M104 699q0 421 211 608q134 119 348 119h1q215 -1 350 -119q211 -186 211 -597t-189 -589q-57 -57 -118 -82l45 -31q158 -115 260 -117q-4 -72 -45 -110.5t-108.5 -38.5t-137.5 53l-236 180q-8 -2 -22 -2q-219 0 -359 119q-211 186 -211 607zM317 700q0 -557 349 -557 q344 0 344 558.5t-344 558.5q-349 0 -349 -560z" />
<glyph unicode="R" horiz-adv-x="1226" d="M188 0v1386l15 15l434 6q215 0 338 -109.5t123 -308.5q0 -137 -74 -235.5t-190 -137.5q92 -33 143 -172l94 -247q41 -109 90 -148q-41 -63 -137 -63q-55 0 -84 29.5t-53 97.5l-107 284q-31 84 -77 127t-134 43h-176v-567q-41 -8 -102.5 -8t-102.5 8zM393 731q121 6 249 6 t185.5 72t57.5 180q0 254 -256 254q-166 0 -236 2v-514z" />
<glyph unicode="S" horiz-adv-x="1138" d="M66 127q10 98 88 158q213 -139 411 -140q125 0 199 56.5t74 146.5q0 141 -195 227l-240 103q-280 123 -280 352q0 170 128 282.5t339 112.5t420 -104q-4 -98 -76 -162q-193 96 -328 96t-204.5 -56t-69.5 -133t45 -122t131 -82l237 -100q305 -135 306 -381 q0 -182 -127 -295t-382 -113t-476 154z" />
<glyph unicode="T" horiz-adv-x="1003" d="M29 1312q0 46 8 87h932q12 -35 12 -82q0 -90 -115 -90h-143l-117 2h-2l2 -152v-1077q-43 -8 -103.5 -8t-101.5 8v1229l-116 -2h-248q-8 39 -8 85z" />
<glyph unicode="U" horiz-adv-x="1368" d="M172 487v908l12 12h78q63 0 89 -30.5t26 -100.5v-787q0 -172 77.5 -261t229.5 -89t230.5 89t78.5 261v910q39 8 101.5 8t101.5 -8v-912q0 -248 -138 -381t-373.5 -133t-374 133.5t-138.5 380.5z" />
<glyph unicode="V" horiz-adv-x="1169" d="M45 1380q70 33 125 33q84 0 113 -100l219 -758q18 -61 90 -350q4 -19 18 -19l332 1213q35 8 89 8t93 -12l9 -15l-410 -1382q-98 -8 -155.5 -8t-91.5 19.5t-50 80.5z" />
<glyph unicode="W" horiz-adv-x="1728" d="M66 1389q50 25 105 25h2q56 0 81 -25t35 -86l133 -715l67 -395q2 -16 5.5 -19.5t11.5 -3.5l231 1200q51 8 136 8t128 -8l211 -1177q2 -16 6.5 -19.5t12.5 -3.5q27 176 74 420l163 809q35 8 90.5 8t100.5 -12l10 -15l-297 -1378q-74 -12 -155.5 -12t-112.5 20.5t-43 81.5 l-100 561q-37 193 -87 510h-14q-49 -291 -92 -510l-131 -653q-82 -10 -176 -10q-117 0 -137 104z" />
<glyph unicode="X" horiz-adv-x="1196" d="M39 23l442 710l-391 635q63 45 138 45t126 -82l262 -426l299 494q27 10 88.5 10t102.5 -18l6 -15l-393 -637l438 -708q-63 -45 -139 -45t-127 82l-307 497l-342 -565q-31 -10 -91.5 -10t-105.5 18z" />
<glyph unicode="Y" horiz-adv-x="1019" d="M20 1376q66 37 118 37t78 -21.5t44 -68.5l170 -412q33 -82 86 -252h10q33 113 90 256l191 484q35 10 85 10t101 -14l11 -15l-390 -929v-451q-41 -8 -103 -8t-101 8v455z" />
<glyph unicode="Z" horiz-adv-x="1146" d="M100 137q0 39 27 84l526 795q59 88 160 219l-6 6q-84 -16 -320 -16h-333q-9 35 -9 82q0 45 15 92h837q31 -104 31 -139t-29 -78l-522 -787q-74 -113 -160 -223l7 -6q129 12 239 12h225q162 0 242 37q16 -45 17 -100q0 -115 -144 -115h-776q-27 98 -27 137z" />
<glyph unicode="[" horiz-adv-x="690" d="M203 -289v1942l14 14l404 -16q8 -23 8 -59t-17 -85l-209 -6v-1638l209 -4q16 -55 16.5 -88t-7.5 -58l-404 -16z" />
<glyph unicode="\" horiz-adv-x="858" d="M23 1493q76 59 172 63l647 -1716q-72 -55 -172 -65z" />
<glyph unicode="]" horiz-adv-x="690" d="M63.5 -225.5q-0.5 43.5 16.5 84.5l209 4v1638l-209 6q-16 37 -16.5 82t6.5 62l403 16l14 -14v-1942l-14 -14l-403 16q-6 18 -6.5 61.5z" />
<glyph unicode="^" d="M94 627l342 700q37 8 105.5 8t107.5 -8l342 -700q-33 -10 -95 -10.5t-101 10.5l-177 374q-12 25 -69 166h-12q-57 -141 -70 -166l-176 -374q-39 -10 -101.5 -10.5t-95.5 10.5z" />
<glyph unicode="_" horiz-adv-x="1075" d="M-8 -234q0 46 8 78h1077q8 -49 8 -79.5t-8 -75.5h-1077q-8 31 -8 77z" />
<glyph unicode="`" horiz-adv-x="815" d="M133 1372q16 43 57 81t86 52l291 -323q-23 -59 -88 -82z" />
<glyph unicode="a" horiz-adv-x="1036" d="M92 274q0 168 107.5 253t283.5 85q104 0 203 -14v84q0 186 -172 186q-133 0 -326 -80q-55 55 -59 148q215 94 420 94q158 0 245 -86t87 -256v-420q0 -131 57 -180q-20 -72 -78 -102q-113 23 -155 131q-147 -143 -301 -143q-1 0 -2 -1q-153 1 -231 91q-79 90 -79 210z M291 297q0 -78 37.5 -121t105.5 -43q137 0 252 133v197q-80 10 -184.5 10t-157.5 -49t-53 -127z" />
<glyph unicode="b" horiz-adv-x="1079" d="M164 51v1442l14 12h72q61 0 84.5 -28.5t23.5 -98.5v-460q124 109 284 109l1 -1q160 0 252 -139t92 -383t-129 -382t-321.5 -138t-372.5 67zM358 160q78 -27 183.5 -27t174 98.5t68.5 278.5t-53 265t-139 85q-135 0 -234 -123v-577z" />
<glyph unicode="c" horiz-adv-x="964" d="M94 518q0 246 123 382t299 136t273.5 -95t97.5 -209t-103 -114q-47 1 -82 9v20q0 236 -188 236q-102 0 -158.5 -98.5t-56.5 -286.5q0 -360 238 -361q109 0 251 107q29 -16 53.5 -51t32.5 -68q-152 -152 -362.5 -152t-314 149.5t-103.5 395.5z" />
<glyph unicode="d" horiz-adv-x="1083" d="M94 503q0 247 116 385t273 138q115 0 238 -70v537l12 12h76q61 0 83.5 -29.5t22.5 -97.5v-1091q0 -147 58 -199q-20 -72 -78 -102q-111 23 -152 129q-123 -141 -296 -141q-1 0 -1 -1q-172 -1 -262 141t-90 389zM295 495.5q0 -180.5 54 -268.5t138 -88q135 0 234 135v514 q-115 78 -210 78t-155.5 -95t-60.5 -275.5z" />
<glyph unicode="e" horiz-adv-x="1026" d="M94 504.5q0 236.5 109.5 384t307.5 147.5t304.5 -124t106.5 -314q-1 -78 -15 -156h-608q6 -145 61.5 -225t184.5 -80t284 80q51 -49 64 -129q-164 -115 -384 -115t-317.5 147.5t-97.5 384zM299 588h430v26q0 121 -52 198t-156.5 77t-160 -79t-61.5 -222z" />
<glyph unicode="f" horiz-adv-x="677" d="M25 936q0 27 8 76l168 -2q-14 115 -15 190q0 137 83 225t224.5 88t260.5 -47q0 -84 -45 -133q-104 31 -178 31t-115 -46t-41 -127t16 -183l291 4q8 -49 8 -76t-8 -72l-279 2v-866q-39 -8 -96 -8t-98 8v866l-176 -2q-8 45 -8 72z" />
<glyph unicode="g" horiz-adv-x="1079" d="M94 511q0 249 116 387t274.5 138t281.5 -108q43 76 131 96q57 -31 78 -102q-57 -51 -57 -199v-614q0 -309 -97 -426q-109 -133 -334 -134q-182 0 -350 68q0 92 53 152q135 -66 280.5 -66t201 79t55.5 216v100q-124 -117 -287 -117l-1 1q-163 0 -254 140t-91 389zM295 505 q0 -181 53 -268t137 -87q140 0 242 129v499q-106 96 -208.5 96t-163 -94t-60.5 -275z" />
<glyph unicode="h" horiz-adv-x="1114" d="M164 0v1493l14 12h74q61 0 83.5 -29.5t22.5 -97.5v-489q152 137 330 137q137 0 203.5 -92.5t66.5 -239.5v-483q0 -119 33 -182q-53 -43 -125 -43q-104 0 -104 127v530q0 111 -28.5 158t-99.5 47t-145.5 -37t-130.5 -96v-715q-35 -8 -95 -8t-99 8z" />
<glyph unicode="i" horiz-adv-x="548" d="M72 934q0 39 8 74q66 8 123 8h26q74 0 116 -46t42 -128v-842q-35 -8 -98.5 -8t-98.5 8v760q0 55 -19 79.5t-69 24.5h-22q-8 31 -8 70zM127 1290q0 51 16 88q43 25 112.5 25t104.5 -25q16 -37 16 -88t-16 -88q-34 -25 -104 -25q0 1 -2 1q-72 0 -111 24q-16 37 -16 88z" />
<glyph unicode="j" horiz-adv-x="563" d="M57 -326q86 43 117 96.5t31 155.5v834q0 57 -19.5 80.5t-68.5 23.5h-41q-8 45 -8 67.5t8 76.5q74 8 145 8h25q72 0 113.5 -46t41.5 -128v-807q0 -176 -18 -251t-47 -112q-70 -82 -219 -121q-47 43 -60 123zM139 1290q0 51 17 88q43 25 112.5 25t104.5 -25q16 -37 16 -88 t-16 -88q-34 -25 -104 -25q-1 0 -3 1q-71 0 -110 24q-17 37 -17 88z" />
<glyph unicode="k" horiz-adv-x="1021" d="M164 0v1493l14 12h74q61 0 83.5 -29.5t22.5 -97.5v-774l74 4q27 0 49 31l189 291q27 45 55.5 65.5t86.5 20.5t95 -2l13 -17l-232 -360q-27 -43 -63 -74q124 -32 190 -184l72 -172q49 -123 98 -160q-49 -61 -133 -61q-51 0 -76.5 26.5t-52.5 89.5l-86 203 q-35 82 -71 110.5t-96 28.5t-112 -6v-438q-35 -8 -95 -8t-99 8z" />
<glyph unicode="l" horiz-adv-x="595" d="M162 193v1300l12 12h74q61 0 83.5 -28.5t22.5 -98.5v-1138q0 -90 80 -90h80q16 -45 16 -82t-4 -62q-82 -14 -170 -14q-195 0 -194 201z" />
<glyph unicode="m" horiz-adv-x="1630" d="M164 0v1004l14 14h74q104 0 110 -129q135 139 297 139t228 -151q161 151 325 151h2q127 0 194 -90t67 -229v-498q0 -119 32 -182q-49 -43 -125 -43q-104 0 -104 127v534q0 109 -30.5 155t-96.5 46q-121 0 -233 -133v-715q-35 -8 -98.5 -8t-98.5 8v645q0 109 -31 156 t-96 47q-117 0 -232 -131v-717q-35 -8 -97 -8t-101 8z" />
<glyph unicode="n" horiz-adv-x="1118" d="M164 0v1006l14 12h74q104 0 110 -129q154 139 330 139q137 0 204 -92.5t67 -239.5v-485q0 -123 30 -182q-51 -43 -123 -43q-106 0 -106 127v532q0 111 -27.5 157t-98.5 46t-145.5 -37t-130.5 -96v-715q-35 -8 -97 -8t-101 8z" />
<glyph unicode="o" horiz-adv-x="1064" d="M94 506q0 272 144 418q113 113 294.5 113t294.5 -113q143 -145 143 -419q0 -1 1 -2q0 -273 -144 -417q-113 -113 -295 -113t-294 113q-144 145 -144 420zM299 504q0 -377 233.5 -377t233.5 377q0 106 -19.5 186t-74 137.5t-140.5 57.5t-140 -57.5t-73.5 -137.5 t-19.5 -186z" />
<glyph unicode="p" horiz-adv-x="1083" d="M164 -428v1434l14 12h62q98 0 114 -107q121 125 288 125t257 -141t90 -389t-115.5 -386t-273.5 -138q-123 0 -242 71v-366q0 -68 -22.5 -97.5t-83.5 -29.5h-74zM358 223q113 -80 211.5 -80t158.5 95.5t60 275.5t-54 267t-138 87q-143 0 -238 -141v-504z" />
<glyph unicode="q" horiz-adv-x="1081" d="M94 511q0 249 116 387t275.5 138t278.5 -104q47 72 133 92q53 -31 78 -102q-57 -49 -57 -199v-1151l-15 -12h-74q-61 0 -83.5 29.5t-22.5 97.5v407q-124 -113 -285 -113l-1 1q-161 0 -252 140t-91 389zM295 505q0 -179 54 -267t136 -88q135 0 238 122v510 q-106 92 -205.5 92t-161 -95t-61.5 -274z" />
<glyph unicode="r" horiz-adv-x="747" d="M109 918q16 70 73 106q135 -33 178 -182q84 182 269 182q49 0 106 -12q0 -111 -47 -187q-12 2 -82 9q-143 0 -225 -160v-674q-35 -8 -99.5 -8t-99.5 8v709q1 139 -73 209z" />
<glyph unicode="s" horiz-adv-x="894" d="M66 76q2 35 21 76t46 63q168 -92 271.5 -92t154.5 38t53 97q0 94 -133 145l-114 46q-262 98 -263 288q0 137 101.5 218t266.5 81t321 -71v-8q1 -35 -15 -74q-18 -43 -45 -66q-150 66 -272 66q-70 0 -113 -34t-43 -85t32 -81t101 -56l123 -45q258 -100 258 -308 q1 -137 -107 -219q-107 -82 -289 -82q-1 1 -2 1q-183 0 -353 102z" />
<glyph unicode="t" horiz-adv-x="712" d="M45 937q0 40 8 75l150 -2v186q0 70 22.5 98.5t83.5 28.5h74l12 -12v-303l256 4q8 -35 8 -75t-8 -73l-256 2v-628q0 -88 84 -88h144q16 -39 16 -85.5t-2 -58.5q-119 -14 -225 -14q-209 0 -209 201v673l-150 -2q-8 33 -8 73z" />
<glyph unicode="u" horiz-adv-x="1120" d="M123 981q47 41 114.5 41t91 -30.5t23.5 -96.5v-530q0 -111 29 -158t99.5 -47t144 36.5t131.5 98.5v715q53 8 98 8t98 -8v-725q0 -147 58 -199q-18 -68 -76 -100q-125 27 -162 149q-153 -153 -345 -153h-3q-135 0 -201.5 92t-66.5 239v486q0 119 -33 182z" />
<glyph unicode="v" horiz-adv-x="927" d="M14 995q63 29 115 29q84 0 107 -82l143 -459q47 -147 82 -305q4 -16 20 -16l248 848q27 8 80 8t96 -14l6 -9q-203 -653 -321 -995q-53 -10 -129 -10t-105.5 21.5t-52.5 90.5z" />
<glyph unicode="w" horiz-adv-x="1470" d="M51 997q59 27 117 27q76 0 92 -80l96 -436q37 -180 68 -342q4 -18 16 -19l181 859q51 10 120.5 10t116.5 -10l172 -840q4 -18 17 -19q10 43 24 115q23 113 53 246l113 502q31 8 90 8t94 -14l6 -11l-249 -995q-51 -8 -132 -8t-114 21.5t-45 88.5l-62 293l-82 430h-10 q-20 -115 -86 -428l-86 -395q-76 -10 -146.5 -10t-102.5 22t-48 90z" />
<glyph unicode="x" horiz-adv-x="937" d="M33 20l323 504l-297 457q66 45 131.5 45t106.5 -59l182 -281l201 324q33 8 86 8t92 -14l6 -15l-289 -452l332 -506q-74 -47 -137 -47t-102 61l-213 326l-230 -373q-25 -8 -85 -8t-99 16z" />
<glyph unicode="y" horiz-adv-x="950" d="M12 -397q0 70 43 125q66 -25 157 -25t146.5 65.5t96.5 198.5l6 23q-63 4 -98 26.5t-54 81.5l-272 897q63 29 119 29q76 0 102 -88l143 -481q12 -39 80 -305q4 -14 19 -15l231 875q33 8 88 8t99 -14l8 -11l-275 -960q-74 -256 -168 -367.5t-282 -111.5q-100 0 -189 30v19z " />
<glyph unicode="z" horiz-adv-x="913" d="M73 115.5q0 31.5 33 74.5l345 472q84 109 161 198l-6 6q-111 -12 -272 -12h-223q-7 36 -7 72q0 35 11 84h682q31 -85 31 -117t-27 -72l-344 -465q-12 -18 -158 -200l6 -9q90 8 193 9h100q160 0 223 26q20 -43 21 -88q0 -94 -129 -94h-611q-29 84 -29 115.5z" />
<glyph unicode="{" horiz-adv-x="696" d="M78 666q0 43 8 65q74 25 121 89.5t47 154.5v350q0 141 78 225t209 107l100 16q39 -43 39 -110q0 -16 -4 -29l-98 -31q-123 -39 -123 -180v-344q0 -98 -46.5 -183t-121.5 -122v-17q76 -37 122 -121.5t46 -183.5v-344q0 -145 123 -180l98 -33q4 -12 4 -29.5t-9 -51 t-30 -56.5l-100 16q-131 23 -209 107t-78 225v350q0 90 -47 154.5t-121 89.5q-8 23 -8 66z" />
<glyph unicode="|" horiz-adv-x="520" d="M166 -289v1874q35 10 92 10t94 -10v-1874q-39 -8 -93 -8t-93 8z" />
<glyph unicode="}" horiz-adv-x="696" d="M16 -231q0 14 4 26l99 33q123 35 123 180v344q0 98 46 183.5t122 121.5v17q-76 37 -122 122t-46 183v344q0 141 -123 180l-99 31q-4 12 -4 30.5t9.5 52.5t29.5 56l103 -16q129 -23 206.5 -108t77.5 -224v-350q0 -90 47.5 -154.5t120.5 -89.5q8 -23 8 -65.5t-8 -65.5 q-74 -25 -121 -89.5t-47 -154.5v-350q0 -139 -77.5 -224t-206.5 -108l-103 -16q-39 43 -39 111z" />
<glyph unicode="~" horiz-adv-x="1187" d="M84 541l25 47q94 174 276 174q86 0 172 -41l162 -72q55 -25 115.5 -24.5t115.5 67.5l37 43q35 -4 71 -24.5t48 -53.5l-27 -45q-96 -176 -276 -176q-80 0 -172 43l-162 72q-55 25 -115.5 24.5t-115.5 -67.5l-37 -43q-33 2 -68 23.5t-49 52.5z" />
<glyph unicode="&#xa1;" horiz-adv-x="583" d="M166 907.5q0 61.5 18 93.5q43 25 110.5 25t113.5 -25q16 -29 16 -93t-16 -91q-43 -26 -113 -26t-111 26q-18 29 -18 90.5zM170 -389l49 1003q31 10 78 10t76 -10l22 -960q-78 -57 -213 -57z" />
<glyph unicode="&#xa2;" horiz-adv-x="960" d="M90 678q0 215 96.5 349t245.5 165v203q29 6 79 6t83 -6v-201q137 -20 211 -108.5t74 -184.5q0 -119 -105 -119q-45 0 -78 9v24q0 88 -41 158.5t-147 70.5q-209 0 -209 -371.5t236 -371.5q121 0 247 109q66 -43 90 -113q-111 -127 -284 -156v-204q-23 -4 -83.5 -4t-78.5 4 v204q-174 29 -255 175.5t-81 361.5z" />
<glyph unicode="&#xa3;" horiz-adv-x="1081" d="M109 625q0 39 12 77q18 0 59 -1t62 -1q-6 18 -26.5 66.5t-31.5 75.5q-27 80 -26 147q0 143 104.5 254t298.5 111q236 0 404 -150q-4 -41 -35 -81t-70 -52q-135 113 -285 113q-94 0 -155.5 -54.5t-61.5 -150.5q0 -74 35 -167.5t41 -111.5l379 2q10 -37 10 -74.5t-10 -76.5 q-231 0 -348 2v-14q0 -178 -139 -373l6 -6q184 10 276 10h393q0 -47 -4 -74q-14 -98 -131 -98h-725q-27 98 -26.5 140t26.5 79l35 51q100 150 100 275v8h-155q-12 35 -12 74z" />
<glyph unicode="&#xa4;" horiz-adv-x="1173" d="M68 279l145 157q-72 111 -72 251t72 247l-145 158q33 61 110 110l158 -147q113 70 251 69.5t247 -69.5l161 149q68 -37 109 -108l-148 -162q74 -109 74 -249t-74 -249l148 -160q-35 -63 -109 -108l-161 147q-109 -68 -248.5 -67.5t-247.5 67.5l-160 -147q-68 39 -110 111 zM342 685q0 -120 66.5 -203t178 -83t177 82t65.5 204t-65.5 205t-177 83t-178 -84t-66.5 -204z" />
<glyph unicode="&#xa5;" horiz-adv-x="1048" d="M51 1309q76 39 136.5 39t95.5 -78l157 -385q35 -76 84 -232h13q59 178 86 234l186 444q43 12 86 12t96 -12l8 -12l-233 -520h164q8 -35 8 -70t-8 -70h-225l-76 -165h301q8 -35 8 -70t-8 -68h-309v-356q-41 -8 -99.5 -8t-97.5 8v356h-309q-10 41 -10.5 67t10.5 71h299 l-74 165h-225q-10 45 -10.5 70t10.5 70h164z" />
<glyph unicode="&#xa6;" horiz-adv-x="507" d="M162 -289v793q33 10 91 10t93 -10v-793q-39 -8 -94 -8t-90 8zM162 793v792q33 10 91 10t93 -10v-792q-39 -8 -94 -8t-90 8z" />
<glyph unicode="&#xa7;" horiz-adv-x="991" d="M66 586q0 182 219 303q-141 92 -141.5 232.5t103 222t261.5 81.5t313 -71q2 -39 -14 -81t-43 -65q-143 63 -236.5 63.5t-138.5 -34.5t-45 -92q0 -82 133 -137l121 -47q156 -64 242 -140t86 -186q0 -199 -219 -318q143 -94 143 -233t-105.5 -221t-289 -82t-318.5 86 q-2 37 18.5 80t47.5 63q143 -76 274 -76q78 0 125 35t47 92q0 86 -133 138l-121 49q-156 61 -242.5 137t-86.5 201zM264 614q0 -66 56.5 -108.5t158.5 -83.5l86 -33q164 76 164 203q0 66 -57.5 109.5t-157.5 82.5l-88 35q-162 -80 -162 -205z" />
<glyph unicode="&#xa8;" horiz-adv-x="815" d="M109 1251q0 39 14 78q35 23 95.5 23t94.5 -23q16 -37 16.5 -80t-16.5 -75q-35 -25 -93 -25t-97 25q-14 38 -14 77zM485 1251q0 41 17 78q35 23 95 23t95 -23q14 -39 14.5 -80t-14.5 -75q-39 -25 -97 -25t-93 25q-17 36 -17 77z" />
<glyph unicode="&#xa9;" horiz-adv-x="1646" d="M84 698.5q0 313.5 213 526.5t525.5 213t526.5 -213t214 -526.5t-213 -525.5t-526.5 -212t-526.5 212t-213 525.5zM254 699.5q0 -248.5 163 -422t406.5 -173.5t406.5 173.5t163 421t-163 421.5t-406.5 174t-406.5 -173t-163 -421.5zM467 708.5q0 190.5 107.5 295 t252 104.5t225.5 -77t81 -168t-89 -91q-38 0 -69 10v21q0 66 -35 120t-119 54t-131 -71.5t-47 -204t53.5 -203t152.5 -70.5t202 84q53 -27 73 -96q-53 -53 -138 -88t-167 -35q-168 0 -260 112.5t-92 303z" />
<glyph unicode="&#xaa;" horiz-adv-x="860" d="M82 840q0 131 84 195.5t225 64.5q49 0 156 -8v59q0 133 -123 133q-117 0 -260 -55q-47 45 -51 123q180 74 321 73q283 0 283 -268v-315q0 -105 49 -144q-4 -23 -26.5 -48t-47.5 -38q-88 14 -125 95q-119 -102 -238.5 -102.5t-183 69t-63.5 166.5zM252 857q0 -54 28.5 -87 t77.5 -33q98 0 189 94v142q-98 8 -157.5 8t-98.5 -35t-39 -89z" />
<glyph unicode="&#xab;" horiz-adv-x="1128" d="M72 522.5q0 38.5 10 63.5l393 377q35 -10 68 -41t45 -64l-289 -332l299 -342q-12 -33 -45 -64.5t-68 -41.5l-403 381q-10 25 -10 63.5zM526.5 522.5q-0.5 38.5 10.5 63.5l393 377q35 -10 67.5 -41t44.5 -64l-288 -332l299 -342q-12 -33 -45 -64.5t-68 -41.5l-403 381 q-10 25 -10.5 63.5z" />
<glyph unicode="&#xac;" d="M98 609q0 50 8 89h848l13 -12v-453q-35 -8 -89.5 -8t-95.5 8v203l2 90l-94 -2h-584q-8 35 -8 85z" />
<glyph unicode="&#xad;" horiz-adv-x="710" d="M96 544q0 50 8 89h500q10 -35 10 -88t-10 -86h-500q-8 35 -8 85z" />
<glyph unicode="&#xae;" horiz-adv-x="1212" d="M72 987q0 223 154.5 379t377.5 156t379 -155t156 -379t-155 -378.5t-379 -154.5t-378.5 154.5t-154.5 377.5zM207 988q0 -171 114.5 -290.5t283.5 -119.5t284 119.5t115 290.5t-115 291t-284 120t-283.5 -120t-114.5 -291zM408 737v506l6 6q131 4 216 4t134 -40.5 t49 -112.5q0 -102 -104 -135q33 -12 67 -80l29 -56q23 -43 45 -57q-31 -45 -80 -45t-78 64l-51 96q-23 39 -63 39h-50v-189q-31 -8 -60.5 -8t-59.5 8zM528 1022h76q84 0 84 70q0 31 -20.5 50t-57.5 19h-82v-139z" />
<glyph unicode="&#xaf;" horiz-adv-x="815" d="M115 1260q0 47 8 81h569q8 -35 8 -81.5t-8 -79.5h-569q-8 33 -8 80z" />
<glyph unicode="&#xb0;" horiz-adv-x="663" d="M37 1077q0 127 84 212t211 85t211 -85t84 -212t-84 -212t-211 -85t-211 85t-84 212zM190 1077.5q0 -69.5 39 -114.5t101.5 -45t101.5 45t39 114.5t-39 114.5t-101.5 45t-101.5 -45t-39 -114.5z" />
<glyph unicode="&#xb1;" d="M129 83q0 44 8 85h811q8 -41 8 -85t-8 -83h-811q-8 39 -8 83zM129 701q0 44 8 83h223l95 -2l-2 97v219q35 8 91 8t91 -8v-219l-2 -97l92 2h223q8 -39 8 -83t-8 -83h-223l-92 3l2 -97v-221q-35 -8 -91.5 -8t-90.5 8v221l2 97l-95 -3h-223q-8 39 -8 83z" />
<glyph unicode="&#xb2;" horiz-adv-x="860" d="M117 803q0 111 157 239l146 119q96 76 96 154q0 49 -31.5 82t-83.5 33q-92 0 -143 -119q-35 4 -75 22.5t-54 40.5q29 88 104.5 147.5t191.5 59.5t193.5 -74.5t77.5 -173t-41 -163t-127 -130.5l-114 -90q-96 -76 -115 -110q92 12 168 12h252q0 -53 -2 -74q-12 -80 -94 -80 h-449q-57 70 -57 105z" />
<glyph unicode="&#xb3;" horiz-adv-x="860" d="M109 776q12 74 67 121q100 -68 184 -68t130.5 38t46.5 106.5t-37 109.5t-92.5 41t-100.5 -20q-23 10 -42 36.5t-23 55.5l164 168q41 41 77 63l-6 7q-55 -10 -160 -11h-167q-10 35 -10.5 76t12.5 68h495q33 -61 33 -97t-33 -67l-123 -121q-23 -23 -61 -47h4 q106 0 177 -71.5t71 -197.5t-96.5 -201t-248 -75t-261.5 86z" />
<glyph unicode="&#xb4;" horiz-adv-x="815" d="M258 1182l291 323q45 -14 86 -52t57 -81l-346 -272q-65 23 -88 82z" />
<glyph unicode="&#xb6;" horiz-adv-x="1353" d="M90 967q0 217 128 329.5t339 112.5q51 0 223 -8l13 -12v-1235q0 -131 -18.5 -216t-72.5 -147q-96 -109 -292 -108q-147 0 -263 49q0 86 50 153q106 -45 204.5 -45t143.5 59.5t45 223.5v395h-39q-207 0 -334 116t-127 333zM928 -272v1658l12 13h354q10 -31 10.5 -88.5 t-10.5 -87.5h-84q-55 0 -80 2v-1497q-41 -8 -102 -8t-100 8z" />
<glyph unicode="&#xb7;" horiz-adv-x="618" d="M178 579.5q0 63.5 19 100.5q43 25 113.5 25t113.5 -25q16 -39 16 -100.5t-16 -100.5q-39 -25 -111.5 -24.5t-115.5 24.5q-19 37 -19 100.5z" />
<glyph unicode="&#xb8;" horiz-adv-x="815" d="M236 -416q2 55 40 105q47 -29 98.5 -29t75 23.5t23.5 59.5t-23.5 58.5t-56.5 22.5t-57 -10q-27 9 -37 34q23 84 53 152h131q-35 -68 -37 -76q84 -6 137.5 -54t53.5 -130t-68.5 -138.5t-170 -56.5t-162.5 39z" />
<glyph unicode="&#xb9;" horiz-adv-x="860" d="M129 1288q188 106 268 279q35 8 76 8t84 -8v-719l100 2h68q8 -31 8 -73t-8 -75h-545q-8 53 -8 78t8 70h113l96 -2v344q0 18 3 67.5t3 61.5q-63 -84 -192 -141q-61 29 -74 108z" />
<glyph unicode="&#xba;" horiz-adv-x="833" d="M71.5 1013q0.5 208 114.5 328q88 84 230.5 84t230.5 -84q115 -121 115 -328.5t-115 -324.5q-88 -84 -230.5 -84t-230.5 84q-115 117 -114.5 325zM246 1016q0 -276 172 -277q88 0 129 77t41 199t-41 198.5t-130 76.5t-130 -76.5t-41 -197.5z" />
<glyph unicode="&#xbb;" horiz-adv-x="1128" d="M76 858q12 33 45 63.5t67 41.5l406 -379q12 -33 12 -65t-12 -62l-395 -379q-35 10 -68 41.5t-43 64.5l287 332zM530 858q12 33 45 63.5t68 41.5l406 -379q12 -33 12 -65t-12 -62l-396 -379q-35 10 -67.5 41.5t-42.5 64.5l286 332z" />
<glyph unicode="&#xbc;" horiz-adv-x="1908" d="M76 1120q188 106 268 279q35 8 76 8t84 -8v-719l100 2h68q8 -31 8 -73t-8 -74h-545q-8 53 -8 77.5t8 69.5h113l96 -2v344q0 18 3 67.5t3 61.5q-63 -84 -192 -141q-61 29 -74 108zM545 0l770 1399q35 12 65 12q98 0 131 -12l-772 -1399q-35 -12 -65 -12q-96 0 -129 12z M1165 267q0 40 31 93l240 517q14 2 34.5 2t60.5 -9.5t66 -29.5l-161 -351q-66 -135 -97 -178l2 -4q49 4 140 4h49v123q0 57 29.5 89t80.5 32h50l4 -6v-238h127q6 -27 6 -68.5t-15 -76.5h-55l-63 2v-162q-29 -10 -81 -10t-83 10v162l-80 -2h-248q-37 61 -37 101z" />
<glyph unicode="&#xbd;" horiz-adv-x="1908" d="M76 1120q188 106 268 279q35 8 76 8t84 -8v-719l100 2h68q8 -31 8 -73t-8 -74h-545q-8 53 -8 77.5t8 69.5h113l96 -2v344q0 18 3 67.5t3 61.5q-63 -84 -192 -141q-61 29 -74 108zM516 0l770 1399q35 12 66 12q98 0 131 -12l-772 -1399q-35 -12 -66 -12q-96 0 -129 12z M1206 104q0 111 158 240l145 119q96 76 97 153q0 49 -32 82t-83 33q-92 0 -143 -119q-35 4 -75 22.5t-54 41.5q29 88 104.5 147.5t191 59.5t193.5 -75t78 -173t-41 -162.5t-127 -130.5l-115 -90q-96 -76 -114 -111q92 12 167 13h252q0 -53 -2 -74q-12 -80 -94 -80h-448 q-57 70 -58 104z" />
<glyph unicode="&#xbe;" horiz-adv-x="1908" d="M106 612q12 74 68 121q100 -68 184 -67.5t130.5 38t46.5 106.5t-37 110t-92.5 41t-100.5 -21q-23 10 -42 37t-23 55l163 168q41 41 78 64l-6 6q-55 -10 -160 -10h-168q-10 35 -10 75.5t13 67.5h495q33 -61 33 -97t-33 -67l-123 -121q-23 -23 -61 -47h4q106 0 177 -71.5 t71 -197.5t-96.5 -201t-248 -75t-262.5 86zM518 0l770 1399q35 12 66 12q98 0 131 -12l-772 -1399q-35 -12 -66 -12q-96 0 -129 12zM1159 267q0 40 31 93l240 517q14 2 34.5 2t60.5 -9.5t66 -29.5l-161 -351q-66 -135 -97 -178l2 -4q49 4 140 4h49v123q0 57 29.5 89t80.5 32 h49l5 -6v-238h127q6 -27 6 -68.5t-15 -76.5h-55l-63 2v-162q-29 -10 -81.5 -10t-82.5 10v162l-80 -2h-248q-37 61 -37 101z" />
<glyph unicode="&#xbf;" horiz-adv-x="804" d="M23 -72q0 246 266 398l129 71l16 215q29 10 76 10.5t78 -10.5l10 -305l-16 -22l-99 -49q-248 -131 -247 -287q0 -86 55 -138.5t163.5 -52.5t256.5 78q27 -25 49 -67.5t24 -83.5q-190 -102 -373.5 -102.5t-285.5 94t-102 251.5zM381 908.5q0 64.5 16 92.5q45 25 111.5 25 t112.5 -25q16 -29 16 -93t-16 -91q-43 -27 -112 -26.5t-112 26.5q-16 27 -16 91.5z" />
<glyph unicode="&#xc0;" horiz-adv-x="1245" d="M43 14l465 1385q41 8 119 8t112 -8l463 -1387q-45 -27 -107.5 -26.5t-88 23t-45.5 85.5l-82 252l-125 -2h-281l-125 2l-110 -348q-33 -8 -85.5 -8t-103.5 14zM352 1673q6 49 32.5 96t57.5 70l410 -244q-12 -74 -59 -104zM401 512l109 2h211q4 0 45 -1t59 -1l-100 317 q-61 186 -107 365h-12q-33 -147 -78 -285z" />
<glyph unicode="&#xc1;" horiz-adv-x="1245" d="M43 14l465 1385q41 8 119 8t112 -8l463 -1387q-45 -27 -107.5 -26.5t-88 23t-45.5 85.5l-82 252l-125 -2h-281l-125 2l-110 -348q-33 -8 -85.5 -8t-103.5 14zM401 512l109 2h211q4 0 45 -1t59 -1l-100 317q-61 186 -107 365h-12q-33 -147 -78 -285zM424 1595l410 244 q31 -23 57.5 -70t32.5 -96l-441 -182q-51 34 -59 104z" />
<glyph unicode="&#xc2;" horiz-adv-x="1245" d="M43 14l465 1385q41 8 119 8t112 -8l463 -1387q-45 -27 -107.5 -26.5t-88 23t-45.5 85.5l-82 252l-125 -2h-281l-125 2l-110 -348q-33 -8 -85.5 -8t-103.5 14zM301 1585l234 227q43 10 88 10.5t90 -10.5l227 -215q-10 -31 -35.5 -55.5t-52.5 -32.5l-229 154l-234 -168 q-27 10 -53.5 35.5t-34.5 54.5zM401 512l109 2h211q4 0 45 -1t59 -1l-100 317q-61 186 -107 365h-12q-33 -147 -78 -285z" />
<glyph unicode="&#xc3;" horiz-adv-x="1245" d="M43 14l465 1385q41 8 119 8t112 -8l463 -1387q-45 -27 -107.5 -26.5t-88 23t-45.5 85.5l-82 252l-125 -2h-281l-125 2l-110 -348q-33 -8 -85.5 -8t-103.5 14zM260 1602l16 40q29 68 84.5 107t117 39t122.5 -31l117 -55q33 -18 71.5 -18.5t77.5 51.5l25 28q29 0 57.5 -17 t40.5 -44l-16 -39q-33 -70 -87.5 -107.5t-110.5 -38t-126 30.5l-117 56q-41 18 -76.5 18t-72.5 -51l-25 -29q-31 0 -59.5 17.5t-38.5 42.5zM401 512l109 2h211q4 0 45 -1t59 -1l-100 317q-61 186 -107 365h-12q-33 -147 -78 -285z" />
<glyph unicode="&#xc4;" horiz-adv-x="1245" d="M43 14l465 1385q41 8 119 8t112 -8l463 -1387q-45 -27 -107.5 -26.5t-88 23t-45.5 85.5l-82 252l-125 -2h-281l-125 2l-110 -348q-33 -8 -85.5 -8t-103.5 14zM299 1613q0 48 16 83q41 22 96.5 22t96.5 -22q18 -35 18 -83t-18 -83q-35 -23 -96.5 -23t-96.5 23 q-16 35 -16 83zM401 512l109 2h211q4 0 45 -1t59 -1l-100 317q-61 186 -107 365h-12q-33 -147 -78 -285zM723 1613q0 48 18 83q41 22 96.5 22t96.5 -22q16 -35 16 -83t-16 -83q-35 -23 -96.5 -23t-96.5 23q-18 35 -18 83z" />
<glyph unicode="&#xc5;" horiz-adv-x="1245" d="M43 14l463 1381q-125 63 -125 202q0 96 68.5 162t174 66t174 -66.5t68.5 -146.5q0 -156 -127 -217l463 -1383q-45 -27 -107.5 -26.5t-88 23t-45.5 85.5l-82 252l-125 -2h-281l-125 2l-110 -348q-33 -8 -85.5 -8t-103.5 14zM401 512l109 2h211q4 0 45 -1t59 -1l-100 317 q-61 186 -107 365h-12q-33 -147 -78 -285zM520 1596.5q0 -48.5 30 -80t75 -31.5t73.5 31.5t28.5 80t-28.5 81t-73.5 32.5t-75 -32.5t-30 -81z" />
<glyph unicode="&#xc6;" horiz-adv-x="1792" d="M33 14l682 1364q39 20 121 21h817q6 -31 6 -81t-14 -93h-496q-82 0 -129 2l2 -133v-303l127 2h393q10 -37 10 -87.5t-10 -84.5h-393q-80 0 -127 2v-355q0 -16 -1 -49t-1 -51q57 6 133 6h539q0 -53 -4 -80q-18 -96 -132 -96h-616q-53 0 -85 34t-32 93v221l-116 -2h-183 l-112 2l-170 -348q-39 -8 -96.5 -8t-104.5 14zM494 512l84 2h131l114 -2v682h-10q-55 -137 -125 -285z" />
<glyph unicode="&#xc7;" horiz-adv-x="1234" d="M104 692q0 362 158 547.5t387.5 185.5t365.5 -118.5t136 -278.5q0 -117 -117 -117q-37 0 -84 13v48t-23.5 110.5t-93 121.5t-176.5 53q-166 0 -252 -143t-86 -410.5t92.5 -409.5t262.5 -142t360 157q82 -53 103 -133q-172 -172 -428 -199q-18 -37 -23 -53q84 -6 136 -55 t52 -131t-68.5 -137.5t-167.5 -55.5t-165 39q2 53 43 105q43 -29 96.5 -29t77 23.5t23.5 58.5t-23.5 58.5t-57.5 23.5t-59 -10q-24 9 -34 34q20 70 43 129q-125 10 -220.5 74t-148.5 166q-109 201 -109 475z" />
<glyph unicode="&#xc8;" horiz-adv-x="1157" d="M188 125v1261l13 13h817q6 -31 6 -81t-14 -93h-494q-82 0 -129 2l2 -133v-303l127 2h393q10 -47 10.5 -86t-10.5 -86h-393q-80 0 -127 2v-357q0 -16 -1 -48t-1 -50q57 6 133 6h537q0 -53 -4 -80q-18 -96 -131 -96h-617q-53 0 -85 34t-32 93zM340 1673q6 49 32.5 96 t57.5 70l410 -244q-12 -74 -60 -104z" />
<glyph unicode="&#xc9;" horiz-adv-x="1157" d="M188 125v1261l13 13h817q6 -31 6 -81t-14 -93h-494q-82 0 -129 2l2 -133v-303l127 2h393q10 -47 10.5 -86t-10.5 -86h-393q-80 0 -127 2v-357q0 -16 -1 -48t-1 -50q57 6 133 6h537q0 -53 -4 -80q-18 -96 -131 -96h-617q-53 0 -85 34t-32 93zM412 1595l409 244 q31 -23 57.5 -70t32.5 -96l-440 -182q-51 34 -59 104z" />
<glyph unicode="&#xca;" horiz-adv-x="1157" d="M188 125v1261l13 13h817q6 -31 6 -81t-14 -93h-494q-82 0 -129 2l2 -133v-303l127 2h393q10 -47 10.5 -86t-10.5 -86h-393q-80 0 -127 2v-357q0 -16 -1 -48t-1 -50q57 6 133 6h537q0 -53 -4 -80q-18 -96 -131 -96h-617q-53 0 -85 34t-32 93zM289 1585l233 227 q43 10 88 10.5t90 -10.5l228 -215q-10 -31 -35.5 -55.5t-52.5 -32.5l-230 154l-233 -168q-27 10 -53.5 35.5t-34.5 54.5z" />
<glyph unicode="&#xcb;" horiz-adv-x="1157" d="M188 125v1261l13 13h817q6 -31 6 -81t-14 -93h-494q-82 0 -129 2l2 -133v-303l127 2h393q10 -47 10.5 -86t-10.5 -86h-393q-80 0 -127 2v-357q0 -16 -1 -48t-1 -50q57 6 133 6h537q0 -53 -4 -80q-18 -96 -131 -96h-617q-53 0 -85 34t-32 93zM287 1613q0 48 16 83 q41 22 96.5 22t96.5 -22q18 -35 18 -83t-18 -83q-35 -23 -96.5 -23t-96.5 23q-16 35 -16 83zM711 1613q0 48 18 83q41 22 96.5 22t96.5 -22q16 -35 16 -83t-16 -83q-35 -23 -96.5 -23t-96.5 23q-18 35 -18 83z" />
<glyph unicode="&#xcc;" horiz-adv-x="598" d="M27 1673q6 49 32.5 96t57.5 70l409 -244q-12 -74 -59 -104zM197 0v1399q39 8 101 8t103 -8v-1399q-41 -8 -103 -8t-101 8z" />
<glyph unicode="&#xcd;" horiz-adv-x="598" d="M98 1595l410 244q31 -23 57.5 -70t32.5 -96l-440 -182q-52 34 -60 104zM197 0v1399q39 8 101 8t103 -8v-1399q-41 -8 -103 -8t-101 8z" />
<glyph unicode="&#xce;" horiz-adv-x="598" d="M-25 1585l234 227q45 10 90 10.5t88 -10.5l227 -215q-10 -31 -35.5 -55.5t-52.5 -32.5l-229 154l-234 -168q-27 10 -53 35.5t-35 54.5zM197 0v1399q39 8 101 8t103 -8v-1399q-41 -8 -103 -8t-101 8z" />
<glyph unicode="&#xcf;" horiz-adv-x="598" d="M-26.5 1613q-0.5 48 16.5 83q41 22 96 22t96 -22q18 -35 18.5 -83t-18.5 -83q-35 -23 -96 -23t-96 23q-16 35 -16.5 83zM197 0v1399q39 8 101 8t103 -8v-1399q-41 -8 -103 -8t-101 8zM397.5 1613q-0.5 48 18.5 83q41 22 96 22t96 -22q16 -35 16.5 -83t-16.5 -83 q-35 -23 -96 -23t-96 23q-18 35 -18.5 83z" />
<glyph unicode="&#xd0;" horiz-adv-x="1355" d="M53 707q0 49 8 88h160v591l12 15q178 6 445 6q90 0 191.5 -26.5t162.5 -77.5q125 -105 170 -252.5t45 -352t-44 -352t-171 -252.5q-61 -51 -162.5 -77.5t-190.5 -26.5t-446 8l-12 14v613h-160q-8 33 -8 82zM424 158l252 -2q223 0 297 182q61 152 61 362q0 211 -61 361 q-74 180 -297 180l-252 2v-448h321q10 -47 10.5 -88t-10.5 -82h-321v-467z" />
<glyph unicode="&#xd1;" horiz-adv-x="1388" d="M188 0v1397q57 10 126 10t120 -8l447 -875q31 -59 78 -162.5t61 -130.5v-2l6 2q-16 258 -16 506v541q0 70 23.5 99.5t86.5 29.5h66l14 -10v-1395q-57 -10 -126.5 -10t-121.5 8l-448 874q-61 121 -133 283h-9q16 -279 17 -489v-668q-47 -8 -95 -8t-96 8zM336 1602l16 40 q29 68 84.5 107t116.5 39t123 -31l117 -55q33 -18 71.5 -18.5t77.5 51.5l25 28q29 0 57.5 -17t40.5 -44l-16 -39q-33 -70 -87.5 -107.5t-110.5 -38t-126 30.5l-117 56q-41 18 -76.5 18t-72.5 -51l-25 -29q-31 0 -59.5 17.5t-38.5 42.5z" />
<glyph unicode="&#xd2;" horiz-adv-x="1345" d="M104.5 699q-0.5 415 217.5 604q139 123 350 122.5t350 -122.5q219 -188 219 -603t-219 -604q-139 -123 -350 -123t-350 123q-217 188 -217.5 603zM319 700.5q0 -106.5 15.5 -196.5t51.5 -177t108.5 -137.5t167 -50.5t159 35t102.5 89t60 130q41 131 41 272.5t-14.5 230.5 t-50 176t-109.5 137.5t-178.5 50.5t-177 -50.5t-108.5 -137.5t-51.5 -176t-15.5 -195.5zM399 1673q6 49 32.5 96t57.5 70l410 -244q-12 -74 -59 -104z" />
<glyph unicode="&#xd3;" horiz-adv-x="1345" d="M104.5 699q-0.5 415 217.5 604q139 123 350 122.5t350 -122.5q219 -188 219 -603t-219 -604q-139 -123 -350 -123t-350 123q-217 188 -217.5 603zM319 700.5q0 -106.5 15.5 -196.5t51.5 -177t108.5 -137.5t167 -50.5t159 35t102.5 89t60 130q41 131 41 272.5t-14.5 230.5 t-50 176t-109.5 137.5t-178.5 50.5t-177 -50.5t-108.5 -137.5t-51.5 -176t-15.5 -195.5zM471 1595l410 244q31 -23 57.5 -70t32.5 -96l-441 -182q-51 34 -59 104z" />
<glyph unicode="&#xd4;" horiz-adv-x="1345" d="M104.5 699q-0.5 415 217.5 604q139 123 350 122.5t350 -122.5q219 -188 219 -603t-219 -604q-139 -123 -350 -123t-350 123q-217 188 -217.5 603zM319 700.5q0 -106.5 15.5 -196.5t51.5 -177t108.5 -137.5t167 -50.5t159 35t102.5 89t60 130q41 131 41 272.5t-14.5 230.5 t-50 176t-109.5 137.5t-178.5 50.5t-177 -50.5t-108.5 -137.5t-51.5 -176t-15.5 -195.5zM348 1585l234 227q45 10 89 10.5t89 -10.5l227 -215q-10 -31 -35.5 -55.5t-52.5 -32.5l-229 154l-234 -168q-27 10 -53.5 35.5t-34.5 54.5z" />
<glyph unicode="&#xd5;" horiz-adv-x="1345" d="M104.5 699q-0.5 415 217.5 604q139 123 350 122.5t350 -122.5q219 -188 219 -603t-219 -604q-139 -123 -350 -123t-350 123q-217 188 -217.5 603zM311 1616l19 39q63 145 198 145q51 0 117 -33l115 -53q33 -18 69.5 -18t77.5 51l23 29q74 -4 98 -62l-18 -39 q-31 -70 -84.5 -107.5t-109.5 -37.5t-122 31l-114 57q-49 16 -66 16q-43 0 -82 -49l-22 -31q-31 0 -59.5 17.5t-39.5 44.5zM319 700.5q0 -106.5 15.5 -196.5t51.5 -177t108.5 -137.5t167 -50.5t159 35t102.5 89t60 130q41 131 41 272.5t-14.5 230.5t-50 176t-109.5 137.5 t-178.5 50.5t-177 -50.5t-108.5 -137.5t-51.5 -176t-15.5 -195.5z" />
<glyph unicode="&#xd6;" horiz-adv-x="1345" d="M104.5 699q-0.5 415 217.5 604q139 123 350 122.5t350 -122.5q219 -188 219 -603t-219 -604q-139 -123 -350 -123t-350 123q-217 188 -217.5 603zM319 700.5q0 -106.5 15.5 -196.5t51.5 -177t108.5 -137.5t167 -50.5t159 35t102.5 89t60 130q41 131 41 272.5t-14.5 230.5 t-50 176t-109.5 137.5t-178.5 50.5t-177 -50.5t-108.5 -137.5t-51.5 -176t-15.5 -195.5zM346 1613q0 48 16 83q41 22 96.5 22t96.5 -22q18 -35 18 -83t-18 -83q-35 -23 -96.5 -23t-96.5 23q-16 35 -16 83zM770 1613q0 48 18 83q41 22 96.5 22t96.5 -22q16 -35 16 -83 t-16 -83q-35 -23 -96.5 -23t-96.5 23q-18 35 -18 83z" />
<glyph unicode="&#xd7;" d="M150 334l210 207q27 29 60 59q-33 29 -60 59l-210 207q53 98 126 125l207 -209q20 -18 60 -61l57 61l209 209q37 -14 72 -49q35 -31 53 -76l-268 -266l268 -266q-18 -43 -52 -77t-73 -48l-266 268q-31 -32 -60 -59l-207 -211q-35 16 -69.5 49t-56.5 78z" />
<glyph unicode="&#xd8;" horiz-adv-x="1347" d="M104 700q0 182 53.5 343t166.5 260q139 123 350 122q152 0 262 -61l80 139q86 -12 135 -73l-90 -164q182 -197 182 -566q0 -414 -219 -604q-139 -123 -350 -123q-152 0 -264 60l-78 -135q-86 12 -135 73l90 160q-183 196 -183 569zM313 683.5q0 -225.5 74 -366.5l465 893 q-76 53 -179.5 53.5t-178 -51t-111.5 -139.5q-70 -164 -70 -389.5zM494 188q76 -53 180 -53t178 51.5t111 139.5q70 160 70 384t-72 369z" />
<glyph unicode="&#xd9;" horiz-adv-x="1368" d="M172 487v908l12 12h78q63 0 89 -30.5t26 -100.5v-787q0 -172 77.5 -261t229.5 -89t230.5 89t78.5 261v910q39 8 101.5 8t101.5 -8v-912q0 -248 -138 -381t-373.5 -133t-374 133.5t-138.5 380.5zM410 1673q6 49 32.5 96t57.5 70l409 -244q-12 -74 -59 -104z" />
<glyph unicode="&#xda;" horiz-adv-x="1368" d="M172 487v908l12 12h78q63 0 89 -30.5t26 -100.5v-787q0 -172 77.5 -261t229.5 -89t230.5 89t78.5 261v910q39 8 101.5 8t101.5 -8v-912q0 -248 -138 -381t-373.5 -133t-374 133.5t-138.5 380.5zM481 1595l410 244q31 -23 57.5 -70t32.5 -96l-440 -182q-52 34 -60 104z " />
<glyph unicode="&#xdb;" horiz-adv-x="1368" d="M172 487v908l12 12h78q63 0 89 -30.5t26 -100.5v-787q0 -172 77.5 -261t229.5 -89t230.5 89t78.5 261v910q39 8 101.5 8t101.5 -8v-912q0 -248 -138 -381t-373.5 -133t-374 133.5t-138.5 380.5zM358 1585l234 227q45 10 89 10.5t89 -10.5l227 -215q-10 -31 -35.5 -55.5 t-52.5 -32.5l-229 154l-234 -168q-27 10 -53 35.5t-35 54.5z" />
<glyph unicode="&#xdc;" horiz-adv-x="1368" d="M172 487v908l12 12h78q63 0 89 -30.5t26 -100.5v-787q0 -172 77.5 -261t229.5 -89t230.5 89t78.5 261v910q39 8 101.5 8t101.5 -8v-912q0 -248 -138 -381t-373.5 -133t-374 133.5t-138.5 380.5zM356.5 1613q-0.5 48 16.5 83q41 22 96 22t96 -22q18 -35 18.5 -83 t-18.5 -83q-35 -23 -96 -23t-96 23q-16 35 -16.5 83zM780.5 1613q-0.5 48 18.5 83q41 22 96 22t96 -22q16 -35 16.5 -83t-16.5 -83q-35 -23 -96 -23t-96 23q-18 35 -18.5 83z" />
<glyph unicode="&#xdd;" horiz-adv-x="1013" d="M16 1376q66 37 118 37t78 -21.5t44 -68.5l170 -412q33 -82 86 -252h10q33 113 90 256l191 484q37 10 86 10t100 -14l10 -15l-389 -929v-451q-41 -8 -103.5 -8t-100.5 8v455zM313 1595l410 244q31 -23 57.5 -70t32.5 -96l-440 -182q-52 34 -60 104z" />
<glyph unicode="&#xde;" horiz-adv-x="1163" d="M188 0v1399q41 8 102.5 8t102.5 -8v-211q143 4 219 4q211 0 339 -113.5t128 -332t-128 -333t-339 -114.5h-219v-299q-41 -8 -102.5 -8t-102.5 8zM393 463q80 2 218.5 2t196.5 83t58 198.5t-58.5 197.5t-199.5 82l-215 2v-565z" />
<glyph unicode="&#xdf;" horiz-adv-x="1275" d="M33 886q0 48 8 83l176 -4v73q0 186 121 290t321.5 104t321.5 -111t121 -295q0 -76 -31 -160h-4l4 -2q-86 -20 -129 -64t-43 -94.5t80 -115.5l76 -68q152 -135 151.5 -262t-103 -207t-255 -80t-270.5 60q2 35 21 78t46 65q88 -47 171 -47t131 35t48 97.5t-86 137.5l-82 72 q-137 119 -137 225q0 76 55.5 142.5t147.5 101.5q8 49 8 76q0 113 -62.5 187.5t-182 74.5t-179 -68.5t-59.5 -191.5v-1018q-39 -8 -100.5 -8t-100.5 8v809l-176 -4q-8 33 -8 81z" />
<glyph unicode="&#xe0;" horiz-adv-x="1036" d="M92 274q0 168 107.5 253t283.5 85q104 0 203 -14v84q0 186 -172 186q-133 0 -326 -80q-55 55 -59 148q215 94 420 94q158 0 245 -86t87 -256v-420q0 -131 57 -180q-20 -72 -78 -102q-113 23 -155 131q-147 -143 -301 -143.5t-233 90t-79 210.5zM231 1372q16 43 57 81 t86 52l291 -323q-23 -59 -88 -82zM291 297q0 -78 37.5 -121t105.5 -43q137 0 252 133v197q-80 10 -184.5 10t-157.5 -49t-53 -127z" />
<glyph unicode="&#xe1;" horiz-adv-x="1036" d="M92 274q0 168 107.5 253t283.5 85q104 0 203 -14v84q0 186 -172 186q-133 0 -326 -80q-55 55 -59 148q215 94 420 94q158 0 245 -86t87 -256v-420q0 -131 57 -180q-20 -72 -78 -102q-113 23 -155 131q-147 -143 -301 -143.5t-233 90t-79 210.5zM291 297q0 -78 37.5 -121 t105.5 -43q137 0 252 133v197q-80 10 -184.5 10t-157.5 -49t-53 -127zM350 1182l291 323q45 -14 86 -52t57 -81l-346 -272q-65 23 -88 82z" />
<glyph unicode="&#xe2;" horiz-adv-x="1036" d="M92 274q0 168 107.5 253t283.5 85q104 0 203 -14v84q0 186 -172 186q-133 0 -326 -80q-55 55 -59 148q215 94 420 94q158 0 245 -86t87 -256v-420q0 -131 57 -180q-20 -72 -78 -102q-113 23 -155 131q-147 -143 -301 -143.5t-233 90t-79 210.5zM205 1190l217 274 q33 10 74.5 10.5t95.5 -10.5l200 -258q-30 -68 -98 -88l-192 187l-205 -199q-59 25 -92 84zM291 297q0 -78 37.5 -121t105.5 -43q137 0 252 133v197q-80 10 -184.5 10t-157.5 -49t-53 -127z" />
<glyph unicode="&#xe3;" horiz-adv-x="1036" d="M92 274q0 168 107.5 253t283.5 85q104 0 203 -14v84q0 186 -172 186q-133 0 -326 -80q-55 55 -59 148q215 94 420 94q158 0 245 -86t87 -256v-420q0 -131 57 -180q-20 -72 -78 -102q-113 23 -155 131q-147 -143 -301 -143.5t-233 90t-79 210.5zM141 1225l19 41 q29 68 82 107.5t110 39.5t123 -33l115 -55q33 -18 69.5 -18t77.5 51l23 31q31 -2 59.5 -19.5t38.5 -44.5l-18 -39q-31 -70 -84.5 -108.5t-109.5 -39t-122 30.5l-115 58q-41 18 -73.5 18t-73.5 -51l-23 -31q-31 0 -59.5 17.5t-38.5 44.5zM291 297q0 -78 37.5 -121t105.5 -43 q137 0 252 133v197q-80 10 -184.5 10t-157.5 -49t-53 -127z" />
<glyph unicode="&#xe4;" horiz-adv-x="1036" d="M92 274q0 168 107.5 253t283.5 85q104 0 203 -14v84q0 186 -172 186q-133 0 -326 -80q-55 55 -59 148q215 94 420 94q158 0 245 -86t87 -256v-420q0 -131 57 -180q-20 -72 -78 -102q-113 23 -155 131q-147 -143 -301 -143.5t-233 90t-79 210.5zM201 1251q0 39 14 78 q35 23 95.5 23t95.5 -23q16 -37 16 -80t-16 -75q-35 -25 -93.5 -25t-97.5 25q-14 38 -14 77zM291 297q0 -78 37.5 -121t105.5 -43q137 0 252 133v197q-80 10 -184.5 10t-157.5 -49t-53 -127zM578 1251q0 41 16 78q35 23 95.5 23t94.5 -23q14 -39 14.5 -80t-14.5 -75 q-39 -25 -97 -25t-93 25q-16 36 -16 77z" />
<glyph unicode="&#xe5;" horiz-adv-x="1036" d="M92 274q0 168 107.5 253t283.5 85q104 0 203 -14v84q0 186 -172 186q-133 0 -326 -80q-55 55 -59 148q215 94 420 94q158 0 245 -86t87 -256v-420q0 -131 57 -180q-20 -72 -78 -102q-113 23 -155 131q-147 -143 -301 -143.5t-233 90t-79 210.5zM258 1331q0 96 67.5 162 t174 66t174 -66t67.5 -162t-67.5 -162.5t-174 -66.5t-174 66.5t-67.5 162.5zM291 297q0 -78 37.5 -121t105.5 -43q137 0 252 133v197q-80 10 -184.5 10t-157.5 -49t-53 -127zM397 1330q0 -48 29 -79.5t74 -31.5t73.5 31.5t28.5 79.5t-28.5 81t-73.5 33t-74 -33t-29 -81z" />
<glyph unicode="&#xe6;" horiz-adv-x="1607" d="M92 276q0 166 106.5 251t284.5 85q94 0 203 -16v86q0 186 -172 186q-133 0 -326 -80q-55 55 -59 148q215 94 408.5 94t275.5 -129q115 135 297 135t288.5 -124t106.5 -314q0 -78 -14 -156h-606q6 -145 61 -225t184.5 -80t282.5 82q51 -51 64 -131q-164 -115 -388.5 -115 t-326.5 177q-156 -176 -369 -177q-143 0 -222 90.5t-79 212.5zM291 299q0 -78 38 -122t106.5 -44t143 39t130.5 113q-18 78 -25 174q-109 14 -198 14t-142 -48t-53 -126zM885 588h426v24q0 123 -51.5 200t-157.5 77q-201 0 -217 -301z" />
<glyph unicode="&#xe7;" horiz-adv-x="964" d="M94 498q0 266 123 402t299 136t273.5 -95t97.5 -209t-103 -114q-47 0 -82 9v20q0 236 -188 236q-102 0 -158.5 -98.5t-56.5 -286.5q0 -360 238 -361q109 0 251 107q29 -16 53.5 -51t32.5 -68q-127 -127 -303 -148q-18 -37 -22 -53q84 -6 136 -55t52 -131t-68.5 -137.5 t-168 -55.5t-164.5 39q2 55 41 105q47 -29 99 -29t74.5 23.5t22.5 58.5t-22.5 58.5t-56 23.5t-58.5 -10q-29 9 -35 34q12 53 43 129q-176 23 -263 168.5t-87 352.5z" />
<glyph unicode="&#xe8;" horiz-adv-x="1026" d="M94 504.5q0 236.5 109.5 384t307.5 147.5t304.5 -124t106.5 -314q-1 -78 -15 -156h-608q6 -145 61.5 -225t184.5 -80t284 80q51 -49 64 -129q-164 -115 -384 -115t-317.5 147.5t-97.5 384zM254 1372q16 43 57 81t86 52l291 -323q-23 -59 -88 -82zM299 588h430v26 q0 121 -52 198t-156.5 77t-160 -79t-61.5 -222z" />
<glyph unicode="&#xe9;" horiz-adv-x="1026" d="M94 504.5q0 236.5 109.5 384t307.5 147.5t304.5 -124t106.5 -314q-1 -78 -15 -156h-608q6 -145 61.5 -225t184.5 -80t284 80q51 -49 64 -129q-164 -115 -384 -115t-317.5 147.5t-97.5 384zM299 588h430v26q0 121 -52 198t-156.5 77t-160 -79t-61.5 -222zM375 1182 l291 323q45 -14 86 -52t57 -81l-346 -272q-65 23 -88 82z" />
<glyph unicode="&#xea;" horiz-adv-x="1026" d="M94 504.5q0 236.5 109.5 384t307.5 147.5t304.5 -124t106.5 -314q-1 -78 -15 -156h-608q6 -145 61.5 -225t184.5 -80t284 80q51 -49 64 -129q-164 -115 -384 -115t-317.5 147.5t-97.5 384zM228 1190l217 274q33 10 74.5 10.5t95.5 -10.5l200 -258q-30 -68 -98 -88 l-192 187l-205 -199q-59 25 -92 84zM299 588h430v26q0 121 -52 198t-156.5 77t-160 -79t-61.5 -222z" />
<glyph unicode="&#xeb;" horiz-adv-x="1026" d="M94 504.5q0 236.5 109.5 384t307.5 147.5t304.5 -124t106.5 -314q-1 -78 -15 -156h-608q6 -145 61.5 -225t184.5 -80t284 80q51 -49 64 -129q-164 -115 -384 -115t-317.5 147.5t-97.5 384zM223 1251q0 39 15 78q35 23 95 23t95 -23q16 -37 16 -80t-16 -75 q-35 -25 -93.5 -25t-96.5 25q-15 38 -15 77zM299 588h430v26q0 121 -52 198t-156.5 77t-160 -79t-61.5 -222zM600 1251q0 41 16 78q35 23 95.5 23t95.5 -23q14 -39 14 -80t-14 -75q-39 -25 -97.5 -25t-93.5 25q-16 36 -16 77z" />
<glyph unicode="&#xec;" horiz-adv-x="542" d="M-23 1372q16 43 57.5 81t86.5 52l291 -323q-23 -59 -88 -82zM68 934q0 39 8 74q66 8 123 8h26q74 0 116 -46t42 -128v-842q-35 -8 -98.5 -8t-98.5 8v760q0 55 -19.5 79.5t-68.5 24.5h-22q-8 31 -8 70z" />
<glyph unicode="&#xed;" horiz-adv-x="542" d="M68 934q0 39 8 74q66 8 123 8h26q74 0 116 -46t42 -128v-842q-35 -8 -98.5 -8t-98.5 8v760q0 55 -19.5 79.5t-68.5 24.5h-22q-8 31 -8 70zM96 1182l291 323q45 -14 86 -52t57 -81l-346 -272q-65 23 -88 82z" />
<glyph unicode="&#xee;" horiz-adv-x="542" d="M-49 1190l217 274q33 10 76 10.5t94 -10.5l201 -258q-31 -68 -99 -88l-192 187l-205 -199q-59 25 -92 84zM68 934q0 39 8 74q66 8 123 8h26q74 0 116 -46t42 -128v-842q-35 -8 -98.5 -8t-98.5 8v760q0 55 -19.5 79.5t-68.5 24.5h-22q-8 31 -8 70z" />
<glyph unicode="&#xef;" horiz-adv-x="542" d="M-53 1251q0 39 14 78q35 23 95.5 23t95.5 -23q16 -37 16 -80t-16 -75q-35 -25 -93.5 -25t-97.5 25q-14 38 -14 77zM68 934q0 39 8 74q66 8 123 8h26q74 0 116 -46t42 -128v-842q-35 -8 -98.5 -8t-98.5 8v760q0 55 -19.5 79.5t-68.5 24.5h-22q-8 31 -8 70zM324 1251 q0 41 16 78q35 23 95.5 23t94.5 -23q14 -39 14.5 -80t-14.5 -75q-39 -25 -97 -25t-93 25q-16 36 -16 77z" />
<glyph unicode="&#xf0;" horiz-adv-x="1058" d="M90 487q0 256 146 402q113 109 284 108q74 0 158 -39q-45 125 -164 248l-205 -141q-25 16 -48 47.5t-25 58.5l180 123q-84 66 -170 109q16 92 80 127q123 -53 233 -137l178 125q23 -16 46.5 -48t27.5 -59l-152 -104q307 -311 308 -807q0 -268 -144 -414 q-113 -113 -295 -113t-295 113q-143 145 -143 401zM295 492q0 -160 54 -263.5t179 -103.5q86 0 141.5 56.5t75 135t19.5 210.5t-35 257q-90 63 -199 64q-236 0 -235 -356z" />
<glyph unicode="&#xf1;" horiz-adv-x="1118" d="M164 0v1006l14 12h74q104 0 110 -129q154 139 330 139q137 0 204 -92.5t67 -239.5v-485q0 -123 30 -182q-51 -43 -123 -43q-106 0 -106 127v532q0 111 -27.5 157t-98.5 46t-145.5 -37t-130.5 -96v-715q-35 -8 -97 -8t-101 8zM211 1225l18 41q29 68 82.5 107.5t110.5 39.5 t123 -33l114 -55q33 -18 70 -18t78 51l22 31q31 -2 60 -19.5t39 -44.5l-19 -39q-31 -70 -84 -108.5t-109 -39t-122 30.5l-115 58q-41 18 -73.5 18t-73.5 -51l-23 -31q-31 0 -59.5 17.5t-38.5 44.5z" />
<glyph unicode="&#xf2;" horiz-adv-x="1064" d="M94.5 504.5q-0.5 273.5 143.5 419.5q113 113 294.5 113t294.5 -113q143 -145 143.5 -419t-143.5 -419q-113 -113 -295 -113t-294 113q-143 145 -143.5 418.5zM262 1372q16 43 57 81t86 52l291 -323q-23 -59 -88 -82zM299 504q0 -377 233.5 -377t233.5 377 q0 106 -19.5 186t-74 137.5t-140.5 57.5t-140 -57.5t-73.5 -137.5t-19.5 -186z" />
<glyph unicode="&#xf3;" horiz-adv-x="1064" d="M94.5 504.5q-0.5 273.5 143.5 419.5q113 113 294.5 113t294.5 -113q143 -145 143.5 -419t-143.5 -419q-113 -113 -295 -113t-294 113q-143 145 -143.5 418.5zM299 504q0 -377 233.5 -377t233.5 377q0 106 -19.5 186t-74 137.5t-140.5 57.5t-140 -57.5t-73.5 -137.5 t-19.5 -186zM383 1182l291 323q45 -14 86 -52t57 -81l-346 -272q-65 23 -88 82z" />
<glyph unicode="&#xf4;" horiz-adv-x="1064" d="M94.5 504.5q-0.5 273.5 143.5 419.5q113 113 294.5 113t294.5 -113q143 -145 143.5 -419t-143.5 -419q-113 -113 -295 -113t-294 113q-143 145 -143.5 418.5zM238 1190l217 274q33 10 74.5 10.5t95.5 -10.5l200 -258q-30 -68 -98 -88l-192 187l-205 -199q-59 25 -92 84z M299 504q0 -377 233.5 -377t233.5 377q0 106 -19.5 186t-74 137.5t-140.5 57.5t-140 -57.5t-73.5 -137.5t-19.5 -186z" />
<glyph unicode="&#xf5;" horiz-adv-x="1064" d="M94.5 504.5q-0.5 273.5 143.5 419.5q113 113 294.5 113t294.5 -113q143 -145 143.5 -419t-143.5 -419q-113 -113 -295 -113t-294 113q-143 145 -143.5 418.5zM174 1225l19 41q29 68 82 107.5t110 39.5t123 -33l115 -55q33 -18 69.5 -18t77.5 51l23 31q31 -2 59.5 -19.5 t38.5 -44.5l-19 -39q-31 -70 -84 -108.5t-109 -39t-122 30.5l-115 58q-41 18 -73.5 18t-73.5 -51l-23 -31q-31 0 -59.5 17.5t-38.5 44.5zM299 504q0 -377 233.5 -377t233.5 377q0 106 -19.5 186t-74 137.5t-140.5 57.5t-140 -57.5t-73.5 -137.5t-19.5 -186z" />
<glyph unicode="&#xf6;" horiz-adv-x="1064" d="M94.5 504.5q-0.5 273.5 143.5 419.5q113 113 294.5 113t294.5 -113q143 -145 143.5 -419t-143.5 -419q-113 -113 -295 -113t-294 113q-143 145 -143.5 418.5zM234 1251q0 39 14 78q35 23 95.5 23t94.5 -23q16 -37 16.5 -80t-16.5 -75q-35 -25 -93 -25t-97 25 q-14 38 -14 77zM299 504q0 -377 233.5 -377t233.5 377q0 106 -19.5 186t-74 137.5t-140.5 57.5t-140 -57.5t-73.5 -137.5t-19.5 -186zM610 1251q0 41 17 78q35 23 95 23t95 -23q14 -39 14.5 -80t-14.5 -75q-39 -25 -97 -25t-93 25q-17 36 -17 77z" />
<glyph unicode="&#xf7;" d="M109 599q0 50 8 89h852q8 -39 8 -89t-8 -85h-852q-8 35 -8 85zM422 233q0 43 16 84q43 25 107.5 25t99.5 -25q18 -37 18.5 -84t-18.5 -83q-31 -25 -99.5 -25t-107.5 25q-16 40 -16 83zM422 964q0 44 16 85q39 23 106.5 22.5t100.5 -22.5q18 -37 18.5 -85.5t-18.5 -84.5 q-29 -23 -100.5 -23t-106.5 23q-16 41 -16 85z" />
<glyph unicode="&#xf8;" horiz-adv-x="1067" d="M94 506.5q0 273.5 146 417.5q113 113 292 112q102 0 187 -37l72 125q74 -10 118 -65l-80 -139q143 -143 143.5 -417t-145.5 -417q-113 -113 -295 -113q-111 0 -190 39l-72 -125q-31 4 -65.5 22.5t-50.5 43.5l79 139q-139 141 -139 414.5zM285 512q0 -160 41 -252l317 602 q-47 29 -108 29q-134 0 -192 -109.5t-58 -269.5zM420 150q47 -29 115.5 -29t119 32.5t76.5 88.5q51 109 51 262.5t-45 249.5z" />
<glyph unicode="&#xf9;" horiz-adv-x="1120" d="M123 981q47 41 114.5 41t91 -30.5t23.5 -96.5v-530q0 -111 29 -158t99.5 -47t144 36.5t131.5 98.5v715q53 8 98 8t98 -8v-725q0 -147 58 -199q-18 -68 -76 -100q-125 27 -162 149q-154 -154 -348 -153q-135 0 -201.5 92t-66.5 239v486q0 119 -33 182zM280 1372 q16 43 57 81t86 52l291 -323q-23 -59 -88 -82z" />
<glyph unicode="&#xfa;" horiz-adv-x="1120" d="M123 981q47 41 114.5 41t91 -30.5t23.5 -96.5v-530q0 -111 29 -158t99.5 -47t144 36.5t131.5 98.5v715q53 8 98 8t98 -8v-725q0 -147 58 -199q-18 -68 -76 -100q-125 27 -162 149q-154 -154 -348 -153q-135 0 -201.5 92t-66.5 239v486q0 119 -33 182zM399 1182l291 323 q45 -14 86 -52t58 -81l-347 -272q-65 23 -88 82z" />
<glyph unicode="&#xfb;" horiz-adv-x="1120" d="M123 981q47 41 114.5 41t91 -30.5t23.5 -96.5v-530q0 -111 29 -158t99.5 -47t144 36.5t131.5 98.5v715q53 8 98 8t98 -8v-725q0 -147 58 -199q-18 -68 -76 -100q-125 27 -162 149q-154 -154 -348 -153q-135 0 -201.5 92t-66.5 239v486q0 119 -33 182zM254 1190l217 274 q33 10 74.5 10.5t95.5 -10.5l200 -258q-30 -68 -98 -88l-192 187l-205 -199q-59 25 -92 84z" />
<glyph unicode="&#xfc;" horiz-adv-x="1120" d="M123 981q47 41 114.5 41t91 -30.5t23.5 -96.5v-530q0 -111 29 -158t99.5 -47t144 36.5t131.5 98.5v715q53 8 98 8t98 -8v-725q0 -147 58 -199q-18 -68 -76 -100q-125 27 -162 149q-154 -154 -348 -153q-135 0 -201.5 92t-66.5 239v486q0 119 -33 182zM250 1251 q0 39 14 78q35 23 95.5 23t95.5 -23q16 -37 16 -80t-16 -75q-35 -25 -93.5 -25t-97.5 25q-14 38 -14 77zM627 1251q0 41 16 78q35 23 95.5 23t95.5 -23q14 -39 14 -80t-14 -75q-39 -25 -97.5 -25t-93.5 25q-16 36 -16 77z" />
<glyph unicode="&#xfd;" horiz-adv-x="950" d="M12 -397q0 70 43 125q66 -25 157 -25t146.5 65.5t96.5 198.5l6 23q-63 4 -98 26.5t-54 81.5l-272 897q63 29 119 29q76 0 102 -88l143 -481q12 -39 80 -305q4 -14 19 -15l231 875q33 8 88 8t99 -14l8 -11l-275 -960q-74 -256 -168 -367.5t-282 -111.5q-100 0 -189 30v19z M326 1182l291 323q45 -14 86 -52t57 -81l-346 -272q-65 23 -88 82z" />
<glyph unicode="&#xfe;" horiz-adv-x="1079" d="M164 -428v1921l14 12h72q61 0 83.5 -29.5t22.5 -97.5v-471q115 119 281 119t258 -138t92 -384t-116.5 -384t-270.5 -138q-121 0 -244 71v-366q0 -68 -22.5 -97.5t-83.5 -29.5h-72zM356 221q119 -78 213.5 -78t154.5 94.5t60 272.5t-54 264t-138 86q-141 0 -236 -137v-502 z" />
<glyph unicode="&#xff;" horiz-adv-x="950" d="M12 -397q0 70 43 125q66 -25 157 -25t146.5 65.5t96.5 198.5l6 23q-63 4 -98 26.5t-54 81.5l-272 897q63 29 119 29q76 0 102 -88l143 -481q12 -39 80 -305q4 -14 19 -15l231 875q33 8 88 8t99 -14l8 -11l-275 -960q-74 -256 -168 -367.5t-282 -111.5q-100 0 -189 30v19z M174 1251q0 39 14 78q35 23 95.5 23t95.5 -23q16 -37 16 -80t-16 -75q-35 -25 -93.5 -25t-97.5 25q-14 38 -14 77zM551 1251q0 41 16 78q35 23 95.5 23t95.5 -23q14 -39 14 -80t-14 -75q-39 -25 -97.5 -25t-93.5 25q-16 36 -16 77z" />
<glyph unicode="&#x152;" horiz-adv-x="1830" d="M104 700q0 182 53.5 343t166.5 260q139 123 352 122q55 0 258 -26h764q6 -31 6 -82t-16 -92h-494q-82 0 -129 2l2 -133v-303l127 2h393q10 -37 10 -87.5t-10 -84.5h-393q-80 0 -127 2v-357l-2 -96q78 4 135 4h537q0 -53 -6 -80q-16 -96 -129 -96h-674q-176 -25 -252 -25 q-213 0 -352 123q-219 190 -220 604zM317 700.5q0 -104.5 15.5 -195.5t52.5 -178t110.5 -137.5t171 -50.5t201.5 25v1069q-115 27 -206 27t-165.5 -50.5t-111.5 -137.5t-52.5 -177t-15.5 -194.5z" />
<glyph unicode="&#x153;" horiz-adv-x="1703" d="M94.5 504.5q-0.5 275.5 143.5 419.5q113 113 294 112q231 0 340 -182q106 182 328 182q190 0 296 -124t106 -314q-1 -90 -13 -156h-606q6 -145 61.5 -225t183.5 -80t283 80q51 -47 64 -127q-164 -117 -387 -117t-320 174q-106 -174 -336 -174q-182 0 -294 113 q-143 143 -143.5 418.5zM299 504.5q0 -105.5 19.5 -185t73.5 -136t140 -56.5t140.5 56.5t74 136t19.5 185t-19.5 185.5t-74 137.5t-140.5 57.5t-140 -57.5t-73.5 -137.5t-19.5 -185.5zM983 588h426v24q0 123 -51.5 200t-157.5 77q-201 0 -217 -301z" />
<glyph unicode="&#x178;" horiz-adv-x="1013" d="M16 1376q66 37 118 37t78 -21.5t44 -68.5l170 -412q33 -82 86 -252h10q33 113 90 256l191 484q37 10 86 10t100 -14l10 -15l-389 -929v-451q-41 -8 -103.5 -8t-100.5 8v455zM188.5 1613q-0.5 48 16.5 83q41 22 96 22t96 -22q18 -35 18.5 -83t-18.5 -83q-35 -23 -96 -23 t-96 23q-16 35 -16.5 83zM612.5 1613q-0.5 48 18.5 83q41 22 96 22t96 -22q16 -35 16.5 -83t-16.5 -83q-35 -23 -96 -23t-96 23q-18 35 -18.5 83z" />
<glyph unicode="&#x2c6;" horiz-adv-x="815" d="M113 1190l217 274q33 10 74.5 10.5t95.5 -10.5l200 -258q-30 -68 -98 -88l-192 187l-205 -199q-59 25 -92 84z" />
<glyph unicode="&#x2dc;" horiz-adv-x="815" d="M49 1225l19 41q29 68 82 107.5t110 39.5t123 -33l115 -55q33 -18 69.5 -18t77.5 51l23 31q31 -2 59.5 -19.5t38.5 -44.5l-18 -39q-31 -70 -84.5 -108.5t-109.5 -39t-122 30.5l-115 58q-41 18 -73.5 18t-73.5 -51l-23 -31q-31 0 -59.5 17.5t-38.5 44.5z" />
<glyph unicode="&#x2000;" horiz-adv-x="919" />
<glyph unicode="&#x2001;" horiz-adv-x="1839" />
<glyph unicode="&#x2002;" horiz-adv-x="919" />
<glyph unicode="&#x2003;" horiz-adv-x="1839" />
<glyph unicode="&#x2004;" horiz-adv-x="613" />
<glyph unicode="&#x2005;" horiz-adv-x="459" />
<glyph unicode="&#x2006;" horiz-adv-x="306" />
<glyph unicode="&#x2007;" horiz-adv-x="306" />
<glyph unicode="&#x2008;" horiz-adv-x="229" />
<glyph unicode="&#x2009;" horiz-adv-x="367" />
<glyph unicode="&#x200a;" horiz-adv-x="102" />
<glyph unicode="&#x2010;" horiz-adv-x="710" d="M96 544q0 50 8 89h500q10 -35 10 -88t-10 -86h-500q-8 35 -8 85z" />
<glyph unicode="&#x2011;" horiz-adv-x="710" d="M96 544q0 50 8 89h500q10 -35 10 -88t-10 -86h-500q-8 35 -8 85z" />
<glyph unicode="&#x2012;" horiz-adv-x="710" d="M96 544q0 50 8 89h500q10 -35 10 -88t-10 -86h-500q-8 35 -8 85z" />
<glyph unicode="&#x2013;" horiz-adv-x="1081" d="M125 541q0 49 10 84h813q8 -39 8 -85t-8 -79h-813q-10 31 -10 80z" />
<glyph unicode="&#x2014;" horiz-adv-x="1632" d="M156 540q0 46 8 85h1304q8 -39 8 -85t-8 -79h-1304q-8 33 -8 79z" />
<glyph unicode="&#x2018;" horiz-adv-x="456" d="M88 1196q0 125 66.5 219t195.5 141q27 -12 40 -37.5t13 -40v-20.5q-57 -27 -97 -73t-42 -101q59 -4 86 -22q18 -33 18.5 -100.5t-18.5 -96.5q-49 -27 -125.5 -27t-113.5 27q-23 51 -23 131z" />
<glyph unicode="&#x2019;" horiz-adv-x="456" d="M53 1114v21q57 27 97 72.5t43 101.5q-59 4 -87 22q-18 33 -18 100.5t18 96.5q49 27 126 27t114 -27q23 -51 23 -131q0 -125 -66.5 -219.5t-196.5 -141.5q-27 12 -40 38t-13 40z" />
<glyph unicode="&#x201a;" horiz-adv-x="458" d="M63 -193q133 66 140 175q-68 10 -86 22q-18 33 -18.5 102.5t18.5 96.5q45 25 122.5 25t116.5 -25q23 -55 23 -133q0 -123 -66.5 -217.5t-195.5 -143.5q-27 12 -40.5 38t-13.5 40v20z" />
<glyph unicode="&#x201c;" horiz-adv-x="843" d="M86 1196q0 125 66.5 219t195.5 141q27 -12 42.5 -40.5t10.5 -57.5q-57 -27 -97 -73t-42 -101q59 -4 86 -22q18 -33 18.5 -100.5t-18.5 -96.5q-49 -27 -125.5 -27t-113.5 27q-23 51 -23 131zM473 1196q0 125 66.5 219t195.5 141q27 -12 40 -37.5t13 -40v-20.5 q-57 -27 -97 -73t-42 -101q59 -4 86 -22q18 -33 18.5 -100.5t-18.5 -96.5q-49 -27 -125.5 -27t-113.5 27q-23 51 -23 131z" />
<glyph unicode="&#x201d;" horiz-adv-x="843" d="M55 1114v21q57 27 97.5 72.5t42.5 101.5q-59 4 -86 22q-18 33 -18.5 100.5t18.5 96.5q49 27 125.5 27t113.5 -27q23 -51 23 -131q0 -125 -66.5 -219.5t-195.5 -141.5q-27 12 -40.5 38t-13.5 40zM444 1114v21q57 27 97.5 72.5t42.5 101.5q-59 4 -86 22q-18 33 -18.5 100.5 t18.5 96.5q49 27 125.5 27t113.5 -27q23 -51 23 -131q0 -125 -66.5 -219.5t-195.5 -141.5q-27 12 -40.5 38t-13.5 40z" />
<glyph unicode="&#x201e;" horiz-adv-x="845" d="M63 -193q133 66 140 175q-68 10 -86 22q-18 33 -18.5 102.5t18.5 96.5q45 25 122.5 25t116.5 -25q23 -55 23 -133q0 -123 -66.5 -217.5t-195.5 -143.5q-27 12 -40.5 38t-13.5 40v20zM451 -193q133 66 139 175q-68 10 -86 22q-18 33 -18.5 102.5t18.5 96.5q45 25 122.5 25 t116.5 -25q23 -55 23 -133q0 -123 -66.5 -217.5t-195.5 -143.5q-27 12 -40 38t-13 40v20z" />
<glyph unicode="&#x2022;" horiz-adv-x="911" d="M229 556q0 112 31 175q76 43 202 43t193 -43q31 -63 31 -174t-31 -176q-66 -43 -192.5 -43t-202.5 43q-31 63 -31 175z" />
<glyph unicode="&#x202f;" horiz-adv-x="367" />
<glyph unicode="&#x2039;" horiz-adv-x="673" d="M72 522.5q0 38.5 10 63.5l393 377q35 -10 68 -41t45 -64l-289 -332l299 -342q-12 -33 -45 -64.5t-68 -41.5l-403 381q-10 25 -10 63.5z" />
<glyph unicode="&#x203a;" horiz-adv-x="673" d="M76 858q12 33 45 63.5t67 41.5l406 -379q12 -33 12 -65t-12 -62l-395 -379q-35 10 -68 41.5t-43 64.5l287 332z" />
<glyph unicode="&#x205f;" horiz-adv-x="459" />
<glyph unicode="&#x20ac;" horiz-adv-x="1159" d="M47 508q0 35 8 70h146q-2 29 -2 84t2 81h-146q-8 33 -8 68t8 70h158q74 473 467 473q233 0 432 -164q-22 -86 -96 -127q-158 121 -311 121q-231 0 -285 -303h430q8 -35 8 -70t-8 -68h-444q-2 -27 -2.5 -83t2.5 -82h444q8 -35 8 -70t-8 -68h-430q53 -297 285 -297 q154 0 311 121q74 -43 96 -127q-199 -164 -432 -164q-393 0 -465 467h-160q-8 33 -8 68z" />
<glyph unicode="&#xe000;" horiz-adv-x="1024" d="M0 0v1024h1024v-1024h-1024z" />
</font>
</defs>
</svg>
