<?xml version="1.0" standalone="no"?>
<!DOCTYPE svg PUBLIC "-//W3C//DTD SVG 1.1//EN" "http://www.w3.org/Graphics/SVG/1.1/DTD/svg11.dtd" >
<svg xmlns="http://www.w3.org/2000/svg">
<metadata></metadata>
<defs>
<font id="signika_negativelight" horiz-adv-x="1085" >
<font-face units-per-em="2048" ascent="1638" descent="-410" />
<missing-glyph horiz-adv-x="450" />
<glyph horiz-adv-x="0" />
<glyph horiz-adv-x="0" />
<glyph horiz-adv-x="682" />
<glyph unicode="&#xd;" horiz-adv-x="681" />
<glyph unicode=" "  horiz-adv-x="450" />
<glyph unicode="&#x09;" horiz-adv-x="450" />
<glyph unicode="&#xa0;" horiz-adv-x="450" />
<glyph unicode="!" horiz-adv-x="561" d="M174 85q0 54 14 79q35 20 92.5 20t92.5 -20q14 -25 14 -79t-14 -79q-35 -20 -92.5 -20t-92.5 20q-14 25 -14 79zM213 1368q55 43 149 43l11 -10l-37 -1022q-23 -8 -56.5 -8t-56.5 8z" />
<glyph unicode="&#x22;" horiz-adv-x="712" d="M102 1434.5q0 23.5 13 66.5q37 20 85 20.5t81 -20.5q12 -43 12 -66.5t-10 -70.5q-25 -131 -45 -303q-18 -8 -38 -8t-42 8q-12 129 -34 239.5t-22 134zM420 1434.5q0 23.5 12 66.5q37 20 85 20.5t81 -20.5q12 -43 12 -66.5t-8 -70.5q-27 -131 -47 -303q-18 -8 -38.5 -8 t-41.5 8q-12 129 -33.5 239.5t-21.5 134z" />
<glyph unicode="#" horiz-adv-x="1222" d="M53 410q0 39 10 63h248l84 375h-241q-10 31 -10.5 62.5t10.5 62.5h270l72 319q33 10 65.5 10.5t67.5 -10.5l-72 -319h266l72 319q33 10 66.5 10.5t66.5 -10.5l-72 -319h207q12 -31 12.5 -62.5t-12.5 -62.5h-235l-84 -375h229q8 -25 8 -63.5t-8 -61.5h-256l-72 -319 q-23 -10 -66.5 -10.5t-66.5 10.5l72 319h-266l-72 -319q-23 -10 -66.5 -10.5t-66.5 10.5l72 319h-222q-10 23 -10 62zM444 473h267l84 375h-267z" />
<glyph unicode="$" horiz-adv-x="1009" d="M82 207q4 70 63 115q195 -117 375 -117q104 0 175 45t71 119.5t-52 129t-136 85.5l-211 75q-238 88 -238 277q0 113 78 195.5t215 103.5v172q23 6 63.5 6t65.5 -6v-168q158 -10 317 -86q0 -68 -53 -115q-160 78 -290 78t-192.5 -45t-62.5 -114.5t40 -104.5t130 -66 l207 -73q115 -41 188.5 -122t73.5 -188q0 -141 -95 -229t-271 -92v-160q-33 -4 -67 -4t-62 4v166q-195 25 -332 119z" />
<glyph unicode="%" horiz-adv-x="1744" d="M102 1020q0 223 97 321q76 82 208 82t205 -82q97 -98 97 -321t-89.5 -313.5t-214 -90.5t-214 90.5t-89.5 313.5zM233 1020q0 -301 175 -301q170 0 170 301t-170 301q-175 0 -175 -301zM418 0l770 1399q20 10 68.5 10t70.5 -10l-770 -1399q-20 -10 -69.5 -10t-69.5 10z M1034 381.5q0 222.5 96 318.5q76 82 208 82t208 -82q96 -96 96 -318t-96 -325q-82 -82 -208 -82t-208 82q-96 102 -96 324.5zM1165 379q0 -301 173 -301t173 301t-173 301t-173 -301z" />
<glyph unicode="&#x26;" horiz-adv-x="1228" d="M117 369q0 135 79.5 240.5t192.5 140.5q-92 33 -153.5 119.5t-61.5 193.5q0 152 111.5 256t305 104t337.5 -55q0 -74 -39 -119q-174 51 -298 51t-193.5 -67.5t-69.5 -178t70.5 -178t213.5 -67.5h365q129 0 180 25q20 -23 20.5 -70t-33.5 -63.5t-95 -16.5h-76l2 -129v-256 l12 -299q-29 -6 -69.5 -6t-67.5 6l-12 80q-158 -104 -339.5 -104.5t-281.5 107t-100 286.5zM270 366.5q0 -122.5 68 -195.5t171 -73t187 31t138 76v348q0 84 2 131h-240q-166 0 -246 -97.5t-80 -220z" />
<glyph unicode="'" horiz-adv-x="389" d="M92 1434.5q0 23.5 12 66.5q37 20 85.5 20.5t80.5 -20.5q12 -43 12.5 -66.5t-8.5 -70.5q-27 -131 -47 -303q-18 -8 -38.5 -8t-41.5 8q-12 129 -33.5 239.5t-21.5 134z" />
<glyph unicode="(" horiz-adv-x="620" d="M133 667.5q0 276.5 100.5 558t272.5 453.5q59 -18 88 -82q-303 -376 -303 -929t303 -930q-29 -63 -88 -82q-172 172 -272.5 453.5t-100.5 558z" />
<glyph unicode=")" horiz-adv-x="620" d="M27 -262q303 377 303 930t-303 929q29 66 88 82q172 -172 272 -453.5t100 -558t-100 -558t-272 -453.5q-59 16 -88 82z" />
<glyph unicode="*" horiz-adv-x="1011" d="M102 1157v20.5t12.5 50.5t32.5 58l97 -29q57 -18 219 -104q-29 133 -29 229v13l2 102q27 12 69 12t68 -12l2 -102v-50.5t-28 -191.5q133 80 221 104l98 27q18 -18 30.5 -58t10.5 -71l-94 -33q-66 -23 -242 -47q117 -104 168 -180l56 -84q-14 -25 -47 -48.5t-64 -29.5 l-59 80q-47 61 -119 213q-68 -152 -119 -213l-61 -80q-29 6 -63 29.5t-50 50.5l57 82q49 70 168 178q-152 16 -239 49z" />
<glyph unicode="+" d="M115 592q0 39 6 67h280l74 -2l-2 74v305q27 6 71 6t68 -6v-305l-2 -74l74 2h281q6 -29 6 -67.5t-6 -65.5h-281l-74 2l2 -71v-305q-25 -6 -68.5 -6.5t-70.5 6.5v305l2 71l-74 -2h-280q-6 27 -6 66z" />
<glyph unicode="," horiz-adv-x="514" d="M84 -225q72 35 114 89t42 118q-55 10 -78 26q-16 29 -16.5 89.5t16.5 82.5q41 20 108.5 20t94.5 -20q20 -37 20 -138t-66.5 -200.5t-193.5 -144.5q-18 8 -30.5 31.5t-10.5 46.5z" />
<glyph unicode="-" horiz-adv-x="679" d="M102.5 542q-0.5 40 6.5 66h462q6 -27 6 -65.5t-6 -67.5h-462q-6 27 -6.5 67z" />
<glyph unicode="." horiz-adv-x="505" d="M135.5 95.5q-0.5 62.5 16.5 84.5q37 20 103.5 20.5t98.5 -20.5q16 -23 16.5 -85t-16.5 -89q-29 -20 -97 -20t-105 20q-16 27 -16.5 89.5z" />
<glyph unicode="/" horiz-adv-x="825" d="M23 -168l649 1718q68 -4 125 -47l-650 -1718q-63 0 -124 47z" />
<glyph unicode="0" d="M115 663.5q0 219.5 32.5 354.5t120.5 225q104 109 272.5 109t276.5 -109q86 -92 120 -226t34 -353.5t-33 -353.5t-121 -226q-109 -109 -274.5 -109t-274.5 109q-88 92 -120.5 226t-32.5 353.5zM268 663.5q0 -204.5 23.5 -321.5t85 -183.5t166 -66.5t166 66.5t85 183.5 t23.5 321.5t-23.5 321.5t-85 183.5t-166 66.5t-166 -66.5t-85 -183.5t-23.5 -321.5z" />
<glyph unicode="1" d="M162 948q139 84 238.5 188.5t134.5 190.5q27 8 64.5 8t68.5 -8v-1079l-2 -129l108 2h160q6 -31 6 -59.5t-6 -61.5h-713q-6 33 -6 61.5t6 59.5h201l108 -2l-2 129v598q0 27 4.5 126t4.5 132q-117 -154 -314 -244q-45 31 -61 88z" />
<glyph unicode="2" d="M131 94q0 176 272 408l185 157q96 82 141 158t45 180.5t-66.5 170t-164 65.5t-173 -55.5t-120.5 -149.5q-76 8 -103 57q53 113 157 190t259.5 77t258 -101.5t102.5 -261.5q0 -156 -84 -264q-43 -57 -78 -91t-100 -89l-166 -142q-207 -182 -222 -284q113 10 240 10h440 q0 -35 -2 -55q-10 -74 -100 -74h-651q-70 57 -70 94z" />
<glyph unicode="3" d="M115 100q14 61 67 101q147 -106 293 -106.5t235 84.5t89 230.5t-70 218t-178.5 72.5t-173.5 -41q-49 25 -66 78l301 332q82 88 140 139l-7 6q-66 -14 -260 -14h-319q-6 25 -6 55.5t12 71.5h698q35 -66 35 -100.5t-33 -69.5l-254 -276q-31 -37 -86 -78q12 2 33 2 q164 0 274.5 -97.5t110.5 -300t-136 -317.5t-310 -115q-236 0 -389 125z" />
<glyph unicode="4" d="M102 395q0 27 45 127l357 815q14 4 33 4q61 0 102 -26l-303 -688q-66 -145 -88 -189l4 -6q76 4 211 4h166l-2 84v223q0 47 22.5 74t61.5 27h47l6 -6v-320l-2 -82l80 2h145q4 -23 4 -60.5t-10 -62.5h-139l-80 2l2 -84v-233q-27 -6 -70 -6t-67 6v233l2 84l-82 -2h-410 q-35 53 -35 80z" />
<glyph unicode="5" d="M141 98q6 57 64 99q150 -102 287 -102.5t223 88.5t86 262t-84 244t-214 71t-253 -107q-39 2 -68 45l27 617l12 12h662q10 -31 10 -57q0 -70 -68 -70h-366q-84 0 -121 2v-137l-8 -174q-4 -53 -8 -74q113 61 229 62q180 0 290.5 -112t110.5 -328t-130 -340t-329.5 -124 t-351.5 123z" />
<glyph unicode="6" d="M127 682q0 309 129 489.5t377 180.5q172 0 272 -62q-8 -72 -59 -104q-102 47 -209 47q-180 0 -268 -137.5t-93 -354.5q135 141 316.5 141.5t283 -112.5t101.5 -321.5t-116 -341t-296 -132.5q-219 0 -327 170q-72 111 -91.5 248t-19.5 289zM276 567q0 -92 24 -204.5 t77 -182.5q74 -88 191.5 -88t187 90t69.5 248q0 326 -258 326q-74 0 -154.5 -42t-136.5 -112v-35z" />
<glyph unicode="7" d="M144 1255.5q0 30.5 12 71.5h790q29 -53 29 -87t-27 -75l-61 -92q-176 -264 -269.5 -487.5t-123.5 -526.5l-7 -59q-27 -8 -77 -8t-72 8l8 76q53 489 363 956l20 31q51 80 105 143l-7 6q-57 -12 -331 -12h-346q-6 25 -6 55.5z" />
<glyph unicode="8" d="M115 332q0 119 71.5 216t180.5 148q-213 102 -213 312q0 152 111.5 248t278.5 96t276.5 -92.5t109.5 -239.5q0 -102 -55.5 -183t-147.5 -128q111 -55 175.5 -147.5t64.5 -219.5q0 -166 -125 -266.5t-311.5 -100.5t-301 94.5t-114.5 262.5zM262 329.5q0 -110.5 79 -177 t195.5 -66.5t199.5 70.5t83 192.5t-88 193.5t-219 104.5l-23 6q-106 -43 -166.5 -128t-60.5 -195.5zM299 1012q0 -188 281 -256l24 -4q84 41 132 109.5t48 162.5t-70.5 155.5t-173 61.5t-172 -63.5t-69.5 -165.5z" />
<glyph unicode="9" d="M109 878.5q0 208.5 115.5 341t295.5 132.5q219 0 328 -170q72 -111 91 -248t19 -289q0 -309 -129 -489.5t-376 -180.5q-172 0 -273 62q8 72 60 104q102 -47 209 -47q180 0 268 136.5t92 355.5q-137 -141 -317.5 -141.5t-281.5 112.5t-101 321.5zM260 897q0 -326 258 -326 q74 0 155 42t136 110v37q0 92 -23.5 204.5t-76.5 182.5q-74 88 -192 88t-187.5 -90t-69.5 -248z" />
<glyph unicode=":" horiz-adv-x="514" d="M139.5 95.5q-0.5 62.5 16.5 84.5q37 20 103.5 20.5t98.5 -20.5q16 -23 16.5 -85t-16.5 -89q-29 -20 -97 -20t-105 20q-16 27 -16.5 89.5zM139.5 798q-0.5 62 16.5 85q37 20 103.5 20t98.5 -20q16 -23 16.5 -85.5t-16.5 -88.5q-29 -20 -97 -20t-105 20q-16 27 -16.5 89z " />
<glyph unicode=";" horiz-adv-x="522" d="M80 -225q72 35 114 89t42 118q-55 10 -78 26q-16 29 -16.5 89.5t16.5 82.5q41 20 108 20t94 -20q20 -37 20.5 -138t-66 -200.5t-193.5 -144.5q-18 8 -30.5 31.5t-10.5 46.5zM143.5 798q-0.5 62 16.5 85q37 20 103.5 20t98.5 -20q16 -23 16.5 -85.5t-16.5 -88.5 q-29 -20 -97 -20t-105 20q-16 27 -16.5 89z" />
<glyph unicode="&#x3c;" d="M103 595.5q0 30.5 10 55.5l776 424q59 -43 67 -112l-561 -297l-133 -68v-12l133 -68l561 -297q-8 -70 -67 -112l-776 421q-10 35 -10 65.5z" />
<glyph unicode="=" d="M115 423q0 38 6 69h844q6 -31 6 -69t-6 -65h-844q-6 27 -6 65zM115 768q0 37 6 68h844q6 -31 6 -69t-6 -65h-844q-6 29 -6 66z" />
<glyph unicode="&#x3e;" d="M129 223l561 297l133 68v12l-133 68l-561 297q8 70 68 112l776 -424q10 -35 10 -65.5t-10 -55.5l-776 -421q-59 43 -68 112z" />
<glyph unicode="?" horiz-adv-x="776" d="M35 1327q184 94 355 94t268.5 -90t97.5 -244q0 -236 -267 -391l-131 -75l-14 -242q-23 -8 -55.5 -8t-55.5 8l-8 305l13 16l92 50q274 147 274 325q0 98 -62.5 157.5t-178 59.5t-275.5 -78q-47 47 -53 113zM184.5 85q-0.5 54 14.5 79q34 20 91.5 20t92.5 -20 q14 -25 14 -79t-14 -79q-35 -20 -92.5 -20t-91.5 20q-14 25 -14.5 79z" />
<glyph unicode="@" horiz-adv-x="1900" d="M119 467q0 389 242.5 649t615.5 260t599 -218t226 -572q0 -254 -116.5 -404.5t-281.5 -150.5t-214 135q-127 -145 -283.5 -145.5t-244 118.5t-87.5 330t109 360.5t295.5 149.5t333.5 -133l-2 -533q0 -92 25.5 -131t80.5 -39q100 0 173 111t73 338q0 303 -185.5 490.5 t-500.5 187.5t-516 -229.5t-201 -570.5t176 -532.5t463 -191.5q250 0 426 74q41 -33 41 -103q-233 -84 -471 -84q-344 0 -560 222.5t-216 611.5zM717 478q0 -159 51.5 -249t153.5 -90q66 0 138.5 49.5t113.5 116.5v486q-72 80 -194 79.5t-192.5 -117t-70.5 -275.5z" />
<glyph unicode="A" horiz-adv-x="1214" d="M55 8l469 1391q33 6 86.5 6t77.5 -6l471 -1391q-33 -20 -77 -20t-62.5 15t-32.5 58l-102 310l-148 -2h-274l-146 2l-122 -373q-27 -6 -63 -6t-73 10zM358 496l121 2h242q2 0 53 -1t70 -1l-135 407q-66 195 -105 336h-10q-33 -125 -68 -233z" />
<glyph unicode="B" horiz-adv-x="1226" d="M205 12v1374l12 13l395 6q426 0 426 -369q0 -100 -54 -180t-146 -113q111 -29 189.5 -127t78.5 -231q0 -152 -100 -266q-111 -125 -371 -125l-418 6zM350 115l299 2q242 0 293 186q12 43 12 92q0 104 -75.5 190.5t-249.5 86.5h-279v-557zM350 799h260q156 0 216.5 70.5 t60.5 170.5q0 242 -271 242q-190 0 -266 2v-485z" />
<glyph unicode="C" horiz-adv-x="1228" d="M119 692q0 360 152.5 545.5t373.5 185.5t351 -117.5t130 -265.5q0 -86 -79 -86q-29 1 -66 11v12q0 121 -79 222t-255 101t-275.5 -155.5t-99.5 -442t101.5 -443.5t285 -157t369.5 164q59 -37 80 -94q-86 -88 -211 -142.5t-283.5 -54.5t-277.5 105q-217 190 -217 612z" />
<glyph unicode="D" horiz-adv-x="1300" d="M205 12v1374l12 13q178 6 410 6q86 0 184 -26.5t158 -78.5q123 -104 166 -250.5t43 -352t-43 -351t-166 -250.5q-59 -51 -157.5 -77.5t-168.5 -26.5t-426 8zM350 117l275 -2q100 0 174.5 35.5t116.5 91t68 137.5t34 155.5t8 163.5t-8 165t-34 156t-68 136t-116.5 91 t-174.5 36l-275 2v-1167z" />
<glyph unicode="E" horiz-adv-x="1150" d="M205 96v1290l12 13h787q4 -23 4 -59.5t-11 -65.5h-653l2 -125v-381l121 2h432q6 -31 6 -61.5t-6 -61.5h-432q-78 0 -121 2v-454l-2 -72q70 4 125 4h565q0 -41 -4 -61q-8 -66 -92 -66h-649q-39 0 -61.5 25.5t-22.5 70.5z" />
<glyph unicode="F" horiz-adv-x="1050" d="M205 0v1386l12 13h770q10 -31 10 -60q0 -67 -87 -67h-3h-329q-170 0 -230 4l2 -295v-211l119 2h420q6 -33 6 -62.5t-6 -62.5h-420q-76 0 -119 2v-649q-31 -6 -74 -6t-71 6z" />
<glyph unicode="G" horiz-adv-x="1302" d="M119 690q0 193 50 339.5t134 227.5q166 166 395 166q125 0 249 -41t206 -112q-16 -72 -78 -113q-170 135 -389 135q-180 0 -297 -143t-117 -461q0 -584 428 -584q178 0 314 50v288q0 90 2 123h-232q-67 0 -67 68q0 26 12 63h311q63 0 89 -22.5t26 -77.5v-530 q-219 -90 -481 -91q-154 0 -265.5 61.5t-172.5 168.5q-117 203 -117 485z" />
<glyph unicode="H" horiz-adv-x="1366" d="M205 0v1399q27 6 70.5 6t74.5 -6v-463l-2 -152l125 2h420l125 -2l-2 152v463q25 6 69.5 6t73.5 -6v-1399q-29 -6 -74 -6t-69 6v510l2 152l-125 -3h-420l-125 3l2 -152v-510q-31 -6 -74 -6t-71 6z" />
<glyph unicode="I" horiz-adv-x="571" d="M213 0v1399q27 6 71 6t74 -6v-1399q-31 -6 -73.5 -6t-71.5 6z" />
<glyph unicode="J" horiz-adv-x="886" d="M20 63q15 64 62 111q113 -70 245 -70t186 81t54 276v938q27 6 71 6t73 -6v-907q0 -121 -13.5 -203t-50.5 -158q-77 -151 -314 -151h-3q-172 0 -310 83z" />
<glyph unicode="K" horiz-adv-x="1187" d="M205 0v1399q27 6 70.5 6t74.5 -6v-619l156 4q39 0 69 50l308 495q25 41 45 57.5t50 16.5t87 -4l12 -17l-352 -563q-20 -33 -57 -69q98 -14 153.5 -75t108.5 -190l129 -325q35 -84 82 -119q-33 -51 -89.5 -51t-77 21.5t-40.5 74.5l-135 340q-51 129 -112.5 180t-154 51 t-182.5 -4v-653q-31 -6 -74 -6t-71 6z" />
<glyph unicode="L" horiz-adv-x="1034" d="M205 98v1295l12 12h59q45 0 59.5 -21.5t14.5 -72.5v-1188q92 6 176 6h443q0 -43 -4 -63q-12 -66 -93 -66h-581q-37 0 -61.5 25.5t-24.5 72.5z" />
<glyph unicode="M" horiz-adv-x="1617" d="M178 2l109 1397q35 6 95 6t95 -6l244 -735q68 -199 84 -293h10q16 94 84 293l244 735q39 6 94 6t96 -6l109 -1397q-35 -10 -71 -10t-71 6l-59 868q-6 86 -16 381h-11l-333 -1028q-33 -6 -73 -6t-71 6l-334 1028h-10q-2 -51 -7 -191.5t-9 -189.5l-60 -868q-35 -6 -73.5 -6 t-65.5 10z" />
<glyph unicode="N" horiz-adv-x="1372" d="M205 0v1399q37 6 89 6t89 -6l510 -944q10 -18 143 -285v-2h6q-10 246 -10 457v686q0 51 14.5 72.5t59.5 21.5h47l12 -10v-1395q-37 -6 -91 -6t-87 6l-512 944q-61 113 -141 281h-6q12 -369 12 -430v-795q-41 -6 -69.5 -6t-65.5 6z" />
<glyph unicode="O" horiz-adv-x="1335" d="M119 700q0 182 53 344t164 261q132 119 331 119h1q200 0 329 -119q111 -98 164 -260t53 -345q0 -412 -217 -606q-129 -119 -328.5 -119t-332.5 119q-217 194 -217 606zM272 700.5q0 -110.5 17.5 -209t59.5 -191.5t123 -147.5t195.5 -54.5t195.5 54.5t122 147.5 t58.5 191.5t17.5 209t-17.5 208t-58.5 190.5t-122 147t-195.5 54t-195.5 -54t-123 -146t-59.5 -190.5t-17.5 -209z" />
<glyph unicode="P" horiz-adv-x="1132" d="M205 0v1386l12 13l387 6q201 0 324 -112.5t123 -322.5t-122 -324t-325 -114h-254v-532q-31 -6 -74 -6t-71 6zM350 653q86 2 251 2t230.5 93.5t65.5 222.5t-65.5 220t-235.5 91t-246 2v-631z" />
<glyph unicode="Q" horiz-adv-x="1308" d="M119 699q0 425 207 610q126 115 327 115h1q202 -1 329 -115q207 -184 207 -606t-203 -605q-63 -53 -117 -71l45 -31q170 -125 261 -127q-4 -55 -36 -82t-82.5 -27t-107.5 39l-252 178q-10 -2 -30 -2q-215 0 -342 115q-207 184 -207 609zM272 702q0 -598 382 -598t382 598 t-382 598t-382 -598z" />
<glyph unicode="R" horiz-adv-x="1210" d="M205 0v1386l12 13l410 6q211 0 325.5 -107.5t114.5 -296.5q0 -139 -71.5 -237t-198.5 -135q84 -29 137 -164l108 -283q45 -115 86 -145q-29 -49 -100 -49q-41 0 -62.5 22.5t-41.5 73.5l-123 319q-37 96 -85 144.5t-145 48.5h-221v-596q-31 -6 -74 -6t-71 6zM350 719 q176 4 277 4q158 0 223 81t65 199.5t-65.5 198.5t-244.5 80t-255 2v-565z" />
<glyph unicode="S" horiz-adv-x="1136" d="M82 129q6 70 70 117q203 -141 409 -142q147 0 235.5 62.5t88.5 171.5q0 166 -226 264l-239 105q-272 119 -273 340q0 158 120 267t317.5 109t402.5 -98v-9q0 -66 -57 -112q-184 94 -326.5 94t-226.5 -66.5t-84 -172.5q0 -135 205 -223l231 -101q305 -131 305 -366 q0 -178 -121.5 -286t-370.5 -108t-460 154z" />
<glyph unicode="T" horiz-adv-x="985" d="M39 1334.5q0 29.5 6 64.5h893q10 -31 10 -60q0 -65 -85 -65h-3h-184l-111 2v-1276q-31 -6 -72.5 -6t-72.5 6v1276l-109 -2h-266q-6 31 -6 60.5z" />
<glyph unicode="U" horiz-adv-x="1363" d="M188 475v918l13 12h59q45 0 59.5 -21.5t14.5 -72.5v-834q0 -184 91 -282.5t257 -98.5t257 98.5t91 282.5v922q29 6 73 6t71 -6v-924q0 -244 -135.5 -372t-357.5 -128t-357.5 129t-135.5 371z" />
<glyph unicode="V" horiz-adv-x="1132" d="M57 1386q49 25 90 25q61 0 82 -70l248 -841q20 -70 98 -340q5 -17 17 -17l360 1256q25 6 61 6t68 -8l6 -13l-419 -1386q-59 -6 -103.5 -6t-68 14t-37.5 62z" />
<glyph unicode="W" horiz-adv-x="1669" d="M82 1393q39 18 86 18q59 0 74 -76l155 -805q66 -348 71 -376.5t8 -31.5t11 -3l258 1249q43 6 102.5 6t88.5 -6l238 -1229q4 -20 16 -20q27 158 80 411l186 869q25 6 67 6t68 -8l8 -11l-307 -1384q-49 -10 -132 -10t-97 78l-217 1144h-12q-70 -365 -105 -524l-147 -690 q-49 -8 -132.5 -8t-99.5 82z" />
<glyph unicode="X" horiz-adv-x="1163" d="M49 18l451 721l-391 637q47 35 99 35t91 -61l299 -490l330 539q20 8 65 8t70 -14l6 -13l-397 -637l442 -720q-47 -35 -98 -35t-90 61l-353 572l-378 -621q-20 -8 -67.5 -8t-72.5 14z" />
<glyph unicode="Y" horiz-adv-x="976" d="M33 1382q53 31 100 31t76 -72l205 -493q37 -84 82 -230h8q16 57 84 230l219 551q27 8 62.5 8t72.5 -10l6 -13l-385 -927v-457q-31 -6 -74 -6t-71 6v463z" />
<glyph unicode="Z" horiz-adv-x="1128" d="M110 102.5q0 34.5 23 71.5l559 877q12 18 158 227l-6 6q-66 -14 -322 -14h-354q-6 25 -6 57.5t12 71.5h805q20 -74 20 -101.5t-24 -68.5l-551 -864q-10 -16 -162 -238l6 -6q109 10 207 10h279q176 0 247 33q14 -43 15 -78q0 -86 -109 -86h-774q-23 68 -23 102.5z" />
<glyph unicode="[" horiz-adv-x="634" d="M205 -274v1914l12 13l352 -15q4 -16 4 -45.5t-12 -62.5l-211 -6v-1682l211 -4q12 -37 12 -65.5t-4 -44.5l-352 -15z" />
<glyph unicode="\" horiz-adv-x="825" d="M29 1503q61 47 125 47l649 -1718q-57 -43 -125 -47z" />
<glyph unicode="]" horiz-adv-x="634" d="M61.5 -227.5q-0.5 28.5 12.5 65.5l211 4v1682l-211 6q-12 33 -12.5 62.5t4.5 45.5l352 15l12 -13v-1914l-12 -13l-352 15q-4 16 -4.5 44.5z" />
<glyph unicode="^" d="M111 627l356 700q39 8 76.5 8t74.5 -8l357 -700q-20 -8 -67.5 -8.5t-78.5 8.5l-215 438q-43 90 -65 141h-12q-23 -51 -66 -141l-215 -438q-31 -8 -78 -8.5t-67 8.5z" />
<glyph unicode="_" horiz-adv-x="1036" d="M-6 -232q0 37 6 62h1036q6 -25 6 -62t-6 -55h-1036q-6 18 -6 55z" />
<glyph unicode="`" horiz-adv-x="815" d="M145 1362q16 35 49 65.5t72 42.5l277 -313q-25 -47 -66 -59z" />
<glyph unicode="a" horiz-adv-x="1030" d="M106 272q0 164 102.5 246t280.5 82q121 0 232 -20v108q0 215 -191 215q-145 0 -335 -86q-20 16 -36 49t-16 62q215 96 398 96q313 0 313 -340v-422q0 -150 57 -205q-20 -51 -65 -71q-98 39 -119 147q-158 -158 -326 -158q-139 0 -217 89.5t-78 207.5zM250 291 q0 -90 44 -142.5t122 -52.5t159.5 45t145.5 131v203q-115 17 -229 17h-2q-112 0 -176 -56t-64 -145z" />
<glyph unicode="b" horiz-adv-x="1071" d="M184 51v1442l13 12h51q45 0 59.5 -22.5t14.5 -73.5v-520q131 131 295.5 131t255 -138.5t90.5 -384t-125 -378.5t-299 -133t-355 65zM322 133q96 -39 216.5 -39t202.5 107.5t82 306.5t-64.5 294t-150.5 95t-160.5 -42t-125.5 -110v-612z" />
<glyph unicode="c" horiz-adv-x="960" d="M109 516.5q0 237.5 118.5 374.5t290.5 137q92 0 165 -30.5t112 -75.5q76 -93 76 -182q0 -91 -76 -91q-25 0 -60 6v43t-15 81t-68.5 93t-137.5 43q-117 0 -187.5 -110.5t-70.5 -308t69.5 -298t190.5 -100.5t272 115q57 -37 70 -90q-158 -147 -356 -147q-1 0 -2 -1 q-198 0 -294 152q-97 152 -97 389.5z" />
<glyph unicode="d" horiz-adv-x="1073" d="M106 502q0 248 116 383t254 135t274 -86v559l12 12h49q45 0 59.5 -22.5t14.5 -73.5v-1126q0 -170 57 -226q-20 -49 -65 -71q-92 37 -117 139q-127 -150 -301 -150t-263.5 139.5t-89.5 387.5zM248 492.5q0 -199.5 64.5 -297t162.5 -97.5q74 0 148.5 44t126.5 120v541 q-133 94 -244 94t-184.5 -102.5t-73.5 -302z" />
<glyph unicode="e" horiz-adv-x="1030" d="M109 504q0 231 109.5 377.5t298 146.5t290.5 -124t102 -314q0 -65 -8 -131h-643q10 -358 270 -359q143 0 299 88q45 -39 54 -98q-164 -115 -371 -115q-145 0 -237.5 76t-128 189.5t-35.5 263.5zM258 569h508v29q0 141 -61.5 231.5t-183.5 90.5t-189.5 -95.5t-73.5 -255.5 z" />
<glyph unicode="f" horiz-adv-x="649" d="M41 950.5q0 24.5 6 55.5l170 -5q-14 190 -14 218q0 129 75.5 211.5t203.5 82.5t237 -43q0 -57 -35 -96q-109 33 -186.5 33t-120.5 -50t-43 -140.5t16 -215.5l303 5q6 -31 6 -55.5t-6 -53.5l-293 2v-899q-31 -6 -68.5 -6t-68.5 6v899l-176 -2q-6 29 -6 53.5z" />
<glyph unicode="g" horiz-adv-x="1071" d="M106 509q0 249 116 384t272.5 135t281.5 -110q31 74 103 100q45 -23 65 -72q-57 -57 -57 -225v-651q0 -281 -92 -394q-100 -127 -291 -127t-352 70q4 66 41 111q135 -66 252.5 -66t176 26.5t87.5 76.5q47 88 47 233v123q-135 -139 -302 -139t-257.5 138t-90.5 387z M248 501.5q0 -200.5 62.5 -298t152.5 -97.5t166 45t127 115v535q-123 104 -242 104t-192.5 -101.5t-73.5 -302z" />
<glyph unicode="h" horiz-adv-x="1114" d="M184 0v1493l13 12h51q45 0 59.5 -22.5t14.5 -73.5v-539q68 68 165 109t193 41q137 0 199.5 -88.5t62.5 -229.5v-514q0 -115 21 -170q-30 -30 -85 -30h-4q-72 0 -71 92v575q0 129 -33 183.5t-119 54.5t-178 -46t-151 -118v-729q-27 -6 -68 -6t-70 6z" />
<glyph unicode="i" horiz-adv-x="518" d="M90 947.5q0 23.5 6 53.5q59 8 99 9h16q59 0 93 -37t34 -103v-870q-27 -6 -70 -6t-69 6v799q0 57 -18.5 77.5t-65.5 20.5h-19q-6 27 -6 50.5zM137 1282q0 44 15 68q27 20 87 20t85 -20q14 -25 14 -71t-14 -75q-20 -20 -82.5 -20t-89.5 20q-15 30 -15 78z" />
<glyph unicode="j" horiz-adv-x="532" d="M74 -360q82 45 110.5 98t28.5 156v905q0 57 -18.5 77.5t-65.5 20.5h-37q-6 27 -6 50.5t6 53.5q59 8 121 9h16q57 0 90 -38.5t33 -101.5v-845q0 -215 -18 -279q-37 -137 -215 -195q-33 35 -45 89zM152 1279q0 46 14 71q27 20 87 20t85 -20q14 -25 14 -71t-14 -75 q-20 -20 -82.5 -20t-89.5 20q-14 29 -14 75z" />
<glyph unicode="k" horiz-adv-x="997" d="M184 0v1493l13 12h51q45 0 59.5 -22.5t14.5 -73.5v-838l94 7q27 0 43 26l227 334q27 39 48.5 55.5t63.5 16.5t68 -2l13 -17l-269 -387q-27 -37 -45 -51q72 -14 118 -57t87 -131l82 -185q53 -121 98 -149q-31 -43 -84 -43t-74.5 24.5t-46.5 79.5l-98 215q-41 92 -82 123 t-106.5 31t-136.5 -6v-455q-27 -6 -68 -6t-70 6z" />
<glyph unicode="l" horiz-adv-x="573" d="M180 154v1339l13 12h51q45 0 59 -22.5t14 -73.5v-1214q0 -86 76 -86h88q13 -31 13 -64v-12q0 -22 -2 -29q-78 -12 -149 -12t-117 43t-46 119z" />
<glyph unicode="m" horiz-adv-x="1617" d="M184 0v995l13 15h53q45 0 59.5 -22.5t14.5 -74.5v-41q129 150 299 150t233 -158q164 158 332 158q127 0 191.5 -89t64.5 -226v-519q0 -115 22 -170q-34 -30 -85 -30h-3q-72 0 -71 92v579q0 127 -32 181.5t-105.5 54.5t-150.5 -43t-136 -123v-729q-27 -6 -70 -6t-68 6v657 q0 127 -31.5 182.5t-105 55.5t-150.5 -45t-134 -121v-729q-29 -6 -70 -6t-70 6z" />
<glyph unicode="n" horiz-adv-x="1116" d="M184 0v997l13 13h53q45 0 59.5 -22.5t14.5 -74.5v-41q68 68 165 109t193 41q137 0 199.5 -88t62.5 -229v-517q0 -121 21 -170q-30 -30 -84 -30h-4q-72 0 -72 92v577q0 129 -33 183.5t-119 54.5t-178 -46t-151 -118v-731q-29 -6 -70 -6t-70 6z" />
<glyph unicode="o" horiz-adv-x="1062" d="M109 501.5q0 272.5 143 418.5q109 109 278 109l2 -1q170 0 279 -108q143 -146 143 -418.5t-143 -417.5q-109 -109 -280 -109t-279 109q-143 145 -143 417.5zM254 501q0 -175 66.5 -295t211.5 -120q98 0 164 64q113 113 113 352q0 174 -66.5 296t-211 122t-211 -122 t-66.5 -297z" />
<glyph unicode="p" horiz-adv-x="1075" d="M184 -428v1425l13 13h51q45 0 59.5 -22.5t14.5 -74.5v-28q125 143 295.5 143t260 -140t89.5 -387t-115 -382t-256 -135t-274 88v-416q0 -51 -14.5 -73.5t-59.5 -22.5h-51zM322 203q137 -96 248 -97h1q109 0 183 102q73 103 73 303t-65.5 297t-150.5 97t-162.5 -46 t-126.5 -124v-532z" />
<glyph unicode="q" horiz-adv-x="1071" d="M106 509q0 249 116 384t272.5 135t281.5 -106q31 68 103 96q45 -23 65 -72q-57 -57 -57 -225v-1149l-13 -12h-49q-45 0 -59 22.5t-14 73.5v459q-131 -131 -298 -131t-257.5 138t-90.5 387zM248 501.5q0 -200.5 64.5 -298t160.5 -97.5q160 0 279 154v545 q-119 100 -237 100t-192.5 -101.5t-74.5 -302z" />
<glyph unicode="r" horiz-adv-x="714" d="M131 940q18 53 62 78q111 -43 139 -182q90 182 274 182q41 0 92 -8q0 -84 -32 -133q-20 2 -68 2q-174 0 -256 -195v-684q-27 -6 -70 -6t-67 6v731q0 131 -74 209z" />
<glyph unicode="s" horiz-adv-x="888" d="M78 78q4 59 57 102q168 -94 279.5 -94t173 46t63.5 120q0 113 -153 170l-117 45q-262 100 -262 283q0 127 98 202.5t249.5 75.5t297.5 -65q0 -68 -43 -111q-135 61 -242.5 61t-161 -43t-53.5 -103t38 -95t122 -70l121 -47q250 -98 250 -293q1 -133 -103 -210 q-103 -77 -276 -77q-1 1 -2 1q-174 0 -336 102z" />
<glyph unicode="t" horiz-adv-x="684" d="M72 949.5q0 25.5 6 56.5l141 -2v221q0 51 15.5 73.5t60.5 22.5h49l12 -12v-308l260 5q7 -34 7 -59q0 -23 -7 -50l-260 2v-706q0 -84 80 -84h158q12 -31 12 -64t-2 -41q-96 -12 -191.5 -12t-144.5 42t-49 120v745l-141 -2q-6 27 -6 52.5z" />
<glyph unicode="u" horiz-adv-x="1118" d="M152 985q31 31 88 31q72 0 71 -92v-578q0 -129 33 -183t118 -54t177 46t154 115v734q27 6 69.5 6t67.5 -6v-721q0 -168 57 -226q-20 -51 -65 -71q-100 39 -121 151q-70 -70 -169.5 -112.5t-197.5 -42.5q-137 0 -199.5 88t-62.5 229v514q0 123 -20 172z" />
<glyph unicode="v" horiz-adv-x="899" d="M25 993q49 25 94 25t61 -51l166 -496q80 -242 103 -332q4 -16 18 -16l281 883q23 6 55.5 6t68.5 -11l5 -6q-160 -500 -338 -995q-39 -10 -91.5 -10t-72 16.5t-39.5 79.5z" />
<glyph unicode="w" horiz-adv-x="1433" d="M70 995q47 23 93 23t58 -55l111 -488q16 -72 43.5 -200t33 -149.5t17.5 -21.5l211 900q31 6 88 6t84 -6l199 -881q4 -18 16 -19l213 902q25 6 65.5 6t67.5 -11l4 -6l-256 -997q-41 -6 -98 -6t-84 18.5t-39 75.5l-74 326l-37 182q-39 180 -59 270h-8l-105 -452l-100 -412 q-43 -8 -120.5 -8t-100.5 94z" />
<glyph unicode="x" horiz-adv-x="913" d="M47 16l328 510l-299 459q53 35 95 35t73 -43l219 -338l223 365q20 8 62.5 8t66.5 -13l6 -12l-289 -455l334 -512q-56 -35 -96 -35l-1 1q-40 0 -71 43l-252 387l-262 -418q-20 -8 -63 -8t-68 14z" />
<glyph unicode="y" horiz-adv-x="917" d="M16 -410q0 49 33 91q53 -20 129 -21q113 0 170.5 75t106.5 236l6 21q-51 4 -77 23.5t-44 74.5l-291 903q55 25 82 25q55 0 76 -68l166 -522q59 -190 98 -322q4 -14 21 -14l253 914q31 6 68 6t68 -11l4 -6l-283 -960q-78 -266 -166 -373.5t-260 -107.5q-84 0 -160 26v10z " />
<glyph unicode="z" horiz-adv-x="909" d="M86 91.5q0 23.5 25 58.5l395 542q111 143 160 201l-7 6q-78 -10 -282 -10h-254q-4 16 -4 49t8 66h666q25 -65 25 -89.5t-25 -58.5l-387 -530q-94 -127 -162 -209l6 -6q109 6 207 6h114q178 0 242 24q12 -31 12 -69q0 -72 -108 -72h-606q-25 68 -25 91.5z" />
<glyph unicode="{" horiz-adv-x="638" d="M76 663.5q0 33.5 8 49.5q72 31 118 94t46 158v360q0 133 72.5 214t191.5 101l84 15q29 -31 29 -60.5t-4 -46.5l-89 -26q-141 -43 -141 -199v-354q0 -94 -44 -177t-118 -120v-17q74 -37 118 -119.5t44 -177.5v-356q0 -154 141 -201l89 -24q4 -16 4 -46t-29 -61l-84 15 q-119 20 -191.5 101t-72.5 214v362q0 92 -46 158t-118 94q-8 16 -8 49.5z" />
<glyph unicode="|" horiz-adv-x="503" d="M184 -287v1874q29 6 66 6t67 -6v-1874q-31 -6 -67.5 -6t-65.5 6z" />
<glyph unicode="}" horiz-adv-x="638" d="M14 -269.5q0 29.5 4 46.5l88 24q139 45 140 201v356q0 94 45 177t119 120v17q-74 37 -119 119.5t-45 177.5v354q0 156 -140 199l-88 26q-4 16 -4 46t29 61l82 -15q121 -20 193.5 -101t72.5 -214v-360q0 -94 46 -157.5t118 -94.5q8 -16 8 -49t-8 -50q-72 -29 -118 -94 t-46 -158v-362q0 -133 -72.5 -214t-193.5 -101l-82 -15q-29 31 -29 60.5z" />
<glyph unicode="~" horiz-adv-x="1136" d="M92 537l19 34q84 158 249 158q80 0 168 -41l156 -70q63 -27 126.5 -26.5t121.5 74.5l29 39q25 -2 50 -17.5t33 -36.5l-18 -35q-84 -160 -252 -159q-72 0 -168 41l-153 69q-63 27 -127 27t-121 -74l-31 -39q-25 2 -49.5 17.5t-32.5 38.5z" />
<glyph unicode="&#xa1;" horiz-adv-x="561" d="M174 916.5q0 56.5 14 80.5q35 20 92.5 20.5t92.5 -20.5q14 -25 14 -81t-14 -76q-35 -20 -92.5 -20.5t-92.5 20.5q-14 20 -14 76.5zM188 -397l37 1022q23 8 56.5 8t56.5 -8l12 -990q-59 -43 -151 -43z" />
<glyph unicode="&#xa2;" horiz-adv-x="966" d="M109 679q0 216 98 351t248 160v203q18 6 61 6t68 -6v-201q141 -18 213.5 -108.5t72.5 -178.5t-73 -88q-27 0 -62 6q2 14 2 27q0 86 -50 158.5t-170 72.5t-188.5 -108.5t-68.5 -308t68.5 -300t198.5 -100.5t257 119q55 -23 78 -82q-111 -131 -284 -156v-206 q-33 -4 -68.5 -4t-60.5 4v204q-172 23 -256 171.5t-84 364.5z" />
<glyph unicode="&#xa3;" horiz-adv-x="1071" d="M122.5 104.5q0.5 36.5 22.5 69.5l39 57q104 154 105 289q0 12 -4 45q-51 -2 -154 -2q-6 27 -6 56.5t6 60.5q84 0 127 -2q-8 25 -28.5 76t-30.5 82q-31 88 -31 159q0 141 98.5 249t301 108t368.5 -142q-2 -31 -24.5 -63.5t-51.5 -40.5q-143 121 -299 121 q-106 0 -176 -62.5t-70 -171.5q0 -86 40 -190.5t46 -124.5l396 2q6 -29 6 -57.5t-6 -59.5q-63 0 -186.5 1t-184.5 1q4 -33 4 -49q0 -182 -151 -391l6 -6q221 8 233 8h461q0 -39 -4 -61q-8 -66 -92 -66h-738q-23 68 -22.5 104.5z" />
<glyph unicode="&#xa4;" horiz-adv-x="1157" d="M78 274l147 158q-78 111 -78 254t80 256l-149 158q31 53 86 86l155 -150q115 82 257.5 82t254.5 -80l160 150q55 -31 84 -86l-147 -160q80 -117 80 -257t-78 -253l147 -158q-27 -53 -84 -84l-157 146q-113 -80 -258.5 -80t-258.5 80l-155 -146q-55 27 -86 84zM295 687 q0 -132 79 -226t203.5 -94t204.5 94t80 225t-80 226.5t-204.5 95.5t-203.5 -94.5t-79 -226.5z" />
<glyph unicode="&#xa5;" horiz-adv-x="1011" d="M61 1317q49 29 97.5 29t77.5 -64l190 -461q27 -53 82 -211h10q59 174 78 211l213 512q35 10 69.5 10t65.5 -8l6 -10l-239 -543h180q6 -31 6 -56.5t-6 -53.5h-227l-80 -183h307q6 -31 6 -57t-6 -51h-316v-381q-31 -6 -71.5 -6t-69.5 6v381h-315q-6 25 -6 51.5t6 56.5h307 l-80 183h-227q-6 29 -6 54.5t6 55.5h178z" />
<glyph unicode="&#xa6;" horiz-adv-x="491" d="M178 -287v793q29 6 66 6t67 -6v-793q-31 -6 -68.5 -6t-64.5 6zM178 795v792q29 6 66 6t67 -6v-792q-31 -6 -68.5 -6t-64.5 6z" />
<glyph unicode="&#xa7;" horiz-adv-x="974" d="M72 586.5q0 109.5 63.5 189.5t163.5 127q-145 92 -145 230.5t99 214t250.5 75.5t295.5 -69q0 -72 -43 -111q-145 66 -247.5 66t-156 -42t-53.5 -114q0 -100 160 -162l121 -47q151 -61 237 -134t86 -182.5t-63.5 -189.5t-163.5 -129q145 -94 145 -230t-101.5 -212 t-254.5 -76q-84 0 -175 23.5t-149 62.5q0 29 17.5 60.5t38.5 46.5q141 -78 255.5 -78t170 42t55.5 113q0 98 -160 164l-121 47q-152 57 -238.5 131t-86.5 183.5zM219 616q0 -72 59.5 -116.5t163.5 -85.5l117 -45q0 -2 2 -2q197 88 197 231q0 72 -59.5 117t-166.5 86l-116 45 q-4 0 -4 2q-193 -86 -193 -232z" />
<glyph unicode="&#xa8;" horiz-adv-x="815" d="M137.5 1240q-0.5 36 14.5 65q27 18 75.5 18t77.5 -18q14 -29 14 -67t-14 -67q-27 -18 -78.5 -18t-74.5 18q-14 33 -14.5 69zM496 1240q0 36 14 65q29 18 78 18t76 -18q14 -29 14 -67t-14 -67q-23 -18 -75 -18t-79 18q-14 33 -14 69z" />
<glyph unicode="&#xa9;" horiz-adv-x="1660" d="M94 698.5q0 311.5 212 524.5t523.5 213t524.5 -213t213 -524.5t-213 -523.5t-524.5 -212t-523.5 212t-212 523.5zM229 698q0 -260 172 -442t428 -182t429.5 182t173.5 442t-173.5 443.5t-429.5 183.5t-428 -183.5t-172 -443.5zM473 704.5q0 192.5 107.5 301t255 108.5 t226.5 -81t79 -163t-68 -82q-32 1 -59 11v18q0 70 -42 129.5t-140.5 59.5t-158 -81t-59.5 -225.5t60.5 -224.5t173.5 -80t217 94q43 -14 68 -73q-55 -57 -139.5 -93t-170.5 -36q-158 0 -254 112.5t-96 305z" />
<glyph unicode="&#xaa;" horiz-adv-x="823" d="M82 854q0 127 79 188.5t220 61.5q80 0 176 -10v63q0 156 -135 156q-129 0 -268 -62q-45 37 -45 99q170 74 315 73q250 0 250 -260v-311q0 -113 45 -156q-4 -16 -22.5 -34.5t-39.5 -26.5q-74 29 -92 102q-121 -109 -241.5 -108.5t-181 68t-60.5 157.5zM211 870.5 q0 -61.5 31.5 -100.5t86 -39t117 32t111.5 87v147q-115 12 -185.5 12.5t-115.5 -38.5t-45 -100.5z" />
<glyph unicode="&#xab;" horiz-adv-x="1062" d="M80 522.5q0 26.5 10 50.5l387 373q57 -25 82 -80l-305 -342l317 -354q-25 -55 -82 -80l-399 381q-10 25 -10 51.5zM489.5 522.5q-0.5 26.5 10.5 50.5l387 373q57 -25 82 -80l-305 -342l317 -354q-25 -55 -82 -80l-399 381q-10 25 -10.5 51.5z" />
<glyph unicode="&#xac;" d="M104.5 604.5q-0.5 38.5 6.5 67.5h837l13 -13v-436q-27 -6 -69 -6t-73 6v246l2 72l-73 -2h-637q-6 27 -6.5 65.5z" />
<glyph unicode="&#xad;" horiz-adv-x="679" d="M102.5 542q-0.5 40 6.5 66h462q6 -27 6 -65.5t-6 -67.5h-462q-6 27 -6.5 67z" />
<glyph unicode="&#xae;" horiz-adv-x="1202" d="M80 1000.5q0 218.5 151.5 370t369.5 151.5t369.5 -152.5t151.5 -370t-151.5 -368t-370.5 -150.5t-369.5 150.5t-150.5 369zM193 999.5q0 -174.5 117.5 -296t290.5 -121.5t291 121.5t118 297t-118 298t-291 122.5t-290.5 -123.5t-117.5 -298zM410 748v505l6 7q123 4 206 4 t131 -41t48 -105q0 -109 -105 -143q29 -12 68 -84l33 -60q20 -39 43 -55q-23 -39 -66 -39t-74 62l-53 100q-25 43 -67 43h-66v-194q-27 -8 -51 -9zM514 1026h88q94 0 94 78q0 33 -22.5 56.5t-63.5 23.5h-96v-158z" />
<glyph unicode="&#xaf;" horiz-adv-x="815" d="M131 1249.5q0 36.5 6 63.5h541q6 -27 6 -63.5t-6 -65.5h-541q-6 29 -6 65.5z" />
<glyph unicode="&#xb0;" horiz-adv-x="636" d="M41 1090.5q0 119.5 80 200.5t197.5 81t197.5 -82t80 -200.5t-80 -199.5t-197.5 -81t-197.5 81t-80 200.5zM162 1088.5q0 -74.5 43 -122.5t113.5 -48t112.5 48t42 122.5t-42 125t-112.5 50.5t-113.5 -50.5t-43 -125z" />
<glyph unicode="&#xb1;" d="M135 64.5q0 31.5 6 68.5h803q6 -37 6 -68.5t-6 -64.5h-803q-6 33 -6 64.5zM135 678q0 37 6 67h260l72 -2l-2 72v268q31 6 73 6.5t70 -6.5v-268l-2 -72l72 2h260q6 -31 6 -68.5t-6 -64.5h-260l-72 2l2 -73v-269q-29 -6 -70.5 -6t-72.5 6v269l2 73l-72 -2h-260q-6 29 -6 66 z" />
<glyph unicode="&#xb2;" horiz-adv-x="860" d="M135 799q0 113 170 250l125 102q66 51 91.5 89t25.5 94.5t-38 94t-97 37.5q-106 0 -166 -129q-66 10 -96 49q33 82 102.5 136.5t177 54.5t179 -71.5t71.5 -166t-41 -154t-127 -128.5l-115 -92q-100 -80 -121 -136q66 8 136 9h290q0 -39 -2 -58q-10 -57 -65 -57h-457 q-43 43 -43 76z" />
<glyph unicode="&#xb3;" horiz-adv-x="860" d="M123 793q8 57 49 94q106 -68 198.5 -68t146.5 43t54 124t-43 128t-108.5 47t-112.5 -26q-41 18 -47 69l180 193q35 41 70 63l-4 4q-43 -8 -160 -8h-186q-6 27 -6 55.5t8 51.5h481q20 -41 20 -67t-20 -46l-137 -145q-29 -33 -64 -56h19q102 0 170.5 -70.5t68.5 -197.5 t-93 -197.5t-233.5 -70.5t-250.5 80z" />
<glyph unicode="&#xb4;" horiz-adv-x="815" d="M281 1157l276 313q39 -12 72 -42.5t49 -65.5l-332 -264q-47 12 -65 59z" />
<glyph unicode="&#xb6;" horiz-adv-x="1265" d="M106 973q0 211 123 322.5t326 111.5q72 0 180 -6l13 -12v-1254q0 -131 -16.5 -212t-67.5 -138q-86 -98 -238 -98t-262 47q0 66 43 116q98 -45 201.5 -45t148.5 66t45 248v416h-47q-203 0 -326 113.5t-123 324.5zM887 -274v1660l12 13h297q10 -33 10 -64.5t-10 -64.5h-100 q-45 0 -64 2v-1546q-31 -6 -74.5 -6t-70.5 6z" />
<glyph unicode="&#xb7;" horiz-adv-x="589" d="M184.5 578.5q-0.5 62.5 16.5 85.5q33 20 95 20t95 -20q14 -25 14.5 -85.5t-14.5 -89.5q-29 -20 -93 -20t-97 20q-16 27 -16.5 89.5z" />
<glyph unicode="&#xb8;" horiz-adv-x="815" d="M248 -410q2 43 37 88q47 -29 102 -28.5t82 27t27 65.5t-27 64.5t-64.5 25.5t-62.5 -10q-25 11 -31 31q23 82 54 147h112q-29 -57 -37 -82q78 -6 129.5 -53t51.5 -126t-63.5 -132t-157 -53t-152.5 36z" />
<glyph unicode="&#xb9;" horiz-adv-x="860" d="M158 1294q184 104 258 269q27 8 56.5 8t59.5 -8v-732l97 3h73q6 -25 6.5 -52.5t-6.5 -54.5h-503q-6 31 -6 56.5t6 50.5h118l95 -3v429q0 14 1 50t1 54q-74 -96 -205 -152q-45 23 -51 82z" />
<glyph unicode="&#xba;" horiz-adv-x="786" d="M65.5 1024.5q0.5 200.5 110.5 318.5q86 80 217 80t217 -80q111 -119 111 -319.5t-111 -316.5q-88 -78 -217 -78t-217 78q-111 117 -110.5 317.5zM197 1025q0 -126 47 -209t149.5 -83t149.5 83t47 209t-47 211t-149.5 85t-149.5 -85t-47 -211z" />
<glyph unicode="&#xbb;" horiz-adv-x="1062" d="M82 866q25 55 82 80l399 -381q10 -25 10 -51.5t-10 -50.5l-387 -373q-57 25 -82 80l307 342zM492 866q25 55 81 80l400 -381q10 -25 10 -51.5t-10 -50.5l-387 -373q-57 25 -82 80l307 342z" />
<glyph unicode="&#xbc;" horiz-adv-x="1787" d="M88 1130q184 104 258 269q27 8 56.5 8t60.5 -8v-731l96 2h74q6 -25 6 -51.5t-6 -55.5h-504q-6 31 -6 56.5t6 50.5h119l94 -2v428q0 14 1 50t1 54q-74 -96 -205 -151q-45 23 -51 81zM514 0l770 1399q23 10 71 10t70 -10l-770 -1399q-23 -10 -70.5 -10t-70.5 10zM1077 244 q0 35 31 88l244 512q8 2 24 2q63 0 92 -33l-190 -405q-37 -80 -66 -125l2 -4q41 2 111 2h107v153q0 39 21.5 62.5t51.5 23.5h45l2 -4v-235h138q4 -29 4 -61t-8 -50h-134v-170q-18 -8 -57.5 -8t-62.5 8v170h-328q-27 39 -27 74z" />
<glyph unicode="&#xbd;" horiz-adv-x="1787" d="M88 1130q184 104 258 269q27 8 56.5 8t60.5 -8v-731l96 2h74q6 -25 6 -51.5t-6 -55.5h-504q-6 31 -6 56.5t6 50.5h119l94 -2v428q0 14 1 50t1 54q-74 -96 -205 -151q-45 23 -51 81zM481 0l770 1399q23 10 71 10t71 -10l-770 -1399q-23 -10 -71 -10t-71 10zM1114 70 q0 113 170 249l125 103q66 51 91.5 89t25.5 94.5t-38 94t-97 37.5q-106 0 -166 -129q-66 10 -97 49q33 82 102.5 136.5t177.5 54.5t179.5 -71.5t71.5 -166t-41 -154t-127 -128.5l-115 -92q-100 -80 -121 -136q66 8 136 9h290q0 -39 -2 -58q-10 -57 -65 -57h-457 q-43 43 -43 76z" />
<glyph unicode="&#xbe;" horiz-adv-x="1787" d="M115 633q8 57 49 94q106 -68 198.5 -68t146.5 43t54 124t-43 128t-108.5 47t-112.5 -26q-41 18 -47 69l180 193q35 41 70 63l-4 5q-43 -8 -160 -9h-186q-6 27 -6.5 55.5t8.5 51.5h481q20 -41 20 -67t-20 -46l-137 -145q-29 -33 -64 -55h19q102 0 170.5 -71t68.5 -198 t-93 -197.5t-233.5 -70.5t-250.5 80zM504 0l770 1399q20 10 69.5 10t71.5 -10l-770 -1399q-23 -10 -70.5 -10t-70.5 10zM1091.5 244q0.5 35 30.5 88l244 512q8 2 25 2q63 0 92 -33l-191 -405q-37 -80 -65 -125l2 -4q41 2 110 2h107v153q0 39 21.5 62.5t52.5 23.5h45l2 -4 v-235h137q4 -29 4 -61t-8 -50h-133v-170q-18 -8 -58 -8t-63 8v170h-328q-27 39 -26.5 74z" />
<glyph unicode="&#xbf;" horiz-adv-x="776" d="M20 -84q0 236 267 391l131 76l14 242q23 8 55.5 8t55.5 -8l8 -306l-12 -18l-93 -49q-133 -72 -202.5 -149.5t-69.5 -175t61.5 -157t177 -59.5t275.5 78q47 -47 53 -113q-184 -94 -355 -94t-268.5 90t-97.5 244zM379 916.5q0 56.5 14 80.5q35 20 92.5 20.5t92.5 -20.5 q14 -25 14 -81t-14 -76q-35 -21 -92.5 -21t-92.5 21q-14 20 -14 76.5z" />
<glyph unicode="&#xc0;" horiz-adv-x="1214" d="M55 8l469 1391q33 6 86.5 6t77.5 -6l471 -1391q-33 -20 -77 -20t-62.5 15t-32.5 58l-102 310l-148 -2h-274l-146 2l-122 -373q-27 -6 -63 -6t-73 10zM352 1669q19 94 76 129l385 -225q-14 -59 -45 -80zM358 496l121 2h242q2 0 53 -1t70 -1l-135 407q-66 195 -105 336h-10 q-33 -125 -68 -233z" />
<glyph unicode="&#xc1;" horiz-adv-x="1214" d="M55 8l469 1391q33 6 86.5 6t77.5 -6l471 -1391q-33 -20 -77 -20t-62.5 15t-32.5 58l-102 310l-148 -2h-274l-146 2l-122 -373q-27 -6 -63 -6t-73 10zM358 496l121 2h242q2 0 53 -1t70 -1l-135 407q-66 195 -105 336h-10q-33 -125 -68 -233zM434 1573l385 225 q57 -35 76 -129l-416 -176q-37 25 -45 80z" />
<glyph unicode="&#xc2;" horiz-adv-x="1214" d="M55 8l469 1391q33 6 86.5 6t77.5 -6l471 -1391q-33 -20 -77 -20t-62.5 15t-32.5 58l-102 310l-148 -2h-274l-146 2l-122 -373q-27 -6 -63 -6t-73 10zM313 1571l228 217q33 6 66.5 6t68.5 -6l225 -209q-15 -52 -70 -68l-223 154l-229 -164q-51 18 -66 70zM358 496l121 2 h242q2 0 53 -1t70 -1l-135 407q-66 195 -105 336h-10q-33 -125 -68 -233z" />
<glyph unicode="&#xc3;" horiz-adv-x="1214" d="M55 8l469 1391q33 6 86.5 6t77.5 -6l471 -1391q-33 -20 -77 -20t-62.5 15t-32.5 58l-102 310l-148 -2h-274l-146 2l-122 -373q-27 -6 -63 -6t-73 10zM266 1585l17 41q23 59 73 93t104 34t111 -29l127 -59q37 -18 75 -18t81 51l27 33q51 -4 69 -45l-16 -39 q-53 -129 -180 -129q-52 -1 -109 28l-127 60q-41 18 -76.5 18t-79.5 -51l-26 -33q-55 4 -70 45zM358 496l121 2h242q2 0 53 -1t70 -1l-135 407q-66 195 -105 336h-10q-33 -125 -68 -233z" />
<glyph unicode="&#xc4;" horiz-adv-x="1214" d="M55 8l469 1391q33 6 86.5 6t77.5 -6l471 -1391q-33 -20 -77 -20t-62.5 15t-32.5 58l-102 310l-148 -2h-274l-146 2l-122 -373q-27 -6 -63 -6t-73 10zM314 1597.5q0 32.5 12 71.5q33 16 85 16.5t78 -16.5q14 -37 14.5 -71.5t-14.5 -71.5q-23 -16 -80 -16.5t-83 16.5 q-12 39 -12 71.5zM358 496l121 2h242q2 0 53 -1t70 -1l-135 407q-66 195 -105 336h-10q-33 -125 -68 -233zM713 1597.5q0 34.5 14 71.5q27 16 79 16.5t85 -16.5q12 -41 12 -72.5t-12 -70.5q-27 -16 -84 -16.5t-80 16.5q-14 37 -14 71.5z" />
<glyph unicode="&#xc5;" horiz-adv-x="1214" d="M55 8l467 1383q-61 25 -98 79t-37 130.5t63.5 138t156.5 61.5t156.5 -61.5t63.5 -139t-37.5 -132t-99.5 -76.5l469 -1383q-33 -20 -77 -20t-62.5 15t-32.5 58l-102 310l-148 -2h-274l-146 2l-122 -373q-27 -6 -63 -6t-73 10zM358 496l121 2h242q2 0 53 -1t70 -1l-135 407 q-66 195 -105 336h-10q-33 -125 -68 -233zM504 1589q0 -51 29.5 -83.5t74.5 -32.5t75 32.5t30 83.5t-30 84t-75 33t-74.5 -33t-29.5 -84z" />
<glyph unicode="&#xc6;" horiz-adv-x="1781" d="M45 8l717 1374q33 16 86 17h786q2 -23 2 -63t-8 -62h-653l2 -125v-381l121 2h432q6 -31 6 -61.5t-6 -61.5h-432q-78 0 -121 2v-454l-2 -72q70 4 125 4h565q0 -41 -4 -61q-12 -66 -92 -66h-651q-37 0 -59.5 25.5t-22.5 70.5v275l-138 -2h-184l-127 2l-192 -373 q-31 -6 -70 -6t-76 10zM451 496l98 2h151l136 -2v745l-2 -2h-11q-8 -18 -108 -233z" />
<glyph unicode="&#xc7;" horiz-adv-x="1228" d="M118.5 670q0.5 383 153 568t373.5 185t351 -117.5t130 -265.5q0 -86 -79 -86q-29 0 -66 11v12q0 121 -79 222t-255 101t-275.5 -155.5t-99.5 -442t101.5 -443.5t285 -157t369.5 164q59 -37 80 -94q-166 -170 -406 -192q-18 -37 -26 -62q78 -6 129 -53t51 -126t-63.5 -132 t-156.5 -53t-153 36q2 43 37 88q47 -29 102.5 -28.5t81 27t25.5 65.5t-25.5 64.5t-63.5 25.5t-62 -10q-25 11 -31 31q20 76 43 124q-162 12 -271 117q-201 193 -200.5 576z" />
<glyph unicode="&#xc8;" horiz-adv-x="1150" d="M205 96v1290l12 13h787q4 -23 4 -59.5t-11 -65.5h-653l2 -125v-381l121 2h432q6 -31 6 -61.5t-6 -61.5h-432q-78 0 -121 2v-454l-2 -72q70 4 125 4h565q0 -41 -4 -61q-8 -66 -92 -66h-649q-39 0 -61.5 25.5t-22.5 70.5zM356 1669q19 94 76 129l385 -225q-14 -59 -45 -80z " />
<glyph unicode="&#xc9;" horiz-adv-x="1150" d="M205 96v1290l12 13h787q4 -23 4 -59.5t-11 -65.5h-653l2 -125v-381l121 2h432q6 -31 6 -61.5t-6 -61.5h-432q-78 0 -121 2v-454l-2 -72q70 4 125 4h565q0 -41 -4 -61q-8 -66 -92 -66h-649q-39 0 -61.5 25.5t-22.5 70.5zM438 1573l385 225q57 -35 76 -129l-416 -176 q-37 25 -45 80z" />
<glyph unicode="&#xca;" horiz-adv-x="1150" d="M205 96v1290l12 13h787q4 -23 4 -59.5t-11 -65.5h-653l2 -125v-381l121 2h432q6 -31 6 -61.5t-6 -61.5h-432q-78 0 -121 2v-454l-2 -72q70 4 125 4h565q0 -41 -4 -61q-8 -66 -92 -66h-649q-39 0 -61.5 25.5t-22.5 70.5zM317 1571l228 217q33 6 66.5 6t68.5 -6l225 -209 q-14 -52 -69 -68l-224 154l-229 -164q-51 18 -66 70z" />
<glyph unicode="&#xcb;" horiz-adv-x="1150" d="M205 96v1290l12 13h787q4 -23 4 -59.5t-11 -65.5h-653l2 -125v-381l121 2h432q6 -31 6 -61.5t-6 -61.5h-432q-78 0 -121 2v-454l-2 -72q70 4 125 4h565q0 -41 -4 -61q-8 -66 -92 -66h-649q-39 0 -61.5 25.5t-22.5 70.5zM318 1597.5q0 32.5 12 71.5q33 16 85 16.5 t79 -16.5q14 -37 14 -71.5t-14 -71.5q-23 -16 -80.5 -16.5t-83.5 16.5q-12 39 -12 71.5zM717 1597.5q0 34.5 14 71.5q27 16 79 16.5t85 -16.5q12 -41 12 -72.5t-12 -70.5q-27 -16 -84 -16.5t-80 16.5q-14 37 -14 71.5z" />
<glyph unicode="&#xcc;" horiz-adv-x="571" d="M31 1669q18 94 75 129l386 -225q-14 -59 -46 -80zM213 0v1399q27 6 71 6t74 -6v-1399q-31 -6 -73.5 -6t-71.5 6z" />
<glyph unicode="&#xcd;" horiz-adv-x="571" d="M113 1573l385 225q57 -35 75 -129l-415 -176q-37 25 -45 80zM213 0v1399q27 6 71 6t74 -6v-1399q-31 -6 -73.5 -6t-71.5 6z" />
<glyph unicode="&#xce;" horiz-adv-x="571" d="M-8 1571l227 217q33 6 66.5 6t68.5 -6l226 -209q-15 -52 -70 -68l-223 154l-230 -164q-51 18 -65 70zM213 0v1399q27 6 71 6t74 -6v-1399q-31 -6 -73.5 -6t-71.5 6z" />
<glyph unicode="&#xcf;" horiz-adv-x="571" d="M-8 1597.5q0 32.5 12 71.5q33 16 85 16.5t79 -16.5q14 -37 14 -71.5t-14 -71.5q-23 -16 -80 -16.5t-84 16.5q-12 39 -12 71.5zM213 0v1399q27 6 71 6t74 -6v-1399q-31 -6 -73.5 -6t-71.5 6zM392 1597.5q0 34.5 14 71.5q27 16 79 16.5t84 -16.5q12 -41 12.5 -72.5 t-12.5 -70.5q-27 -16 -84 -16.5t-79 16.5q-14 37 -14 71.5z" />
<glyph unicode="&#xd0;" horiz-adv-x="1335" d="M61.5 706.5q-0.5 34.5 6.5 63.5h170v616l12 13q178 6 409 6q86 0 184.5 -26.5t157.5 -78.5q123 -104 166 -250.5t43 -351t-43 -351t-166 -251.5q-59 -51 -157.5 -77.5t-168 -26.5t-425.5 8l-12 12v635h-170q-6 25 -6.5 59.5zM383 117l274 -2q401 0 402 585 q0 313 -109 455q-43 55 -118 91t-175 36l-274 2v-514h354q6 -29 6 -63.5t-6 -59.5h-354v-530z" />
<glyph unicode="&#xd1;" horiz-adv-x="1372" d="M205 0v1399q37 6 89 6t89 -6l510 -944q10 -18 143 -285v-2h6q-10 246 -10 457v686q0 51 14.5 72.5t59.5 21.5h47l12 -10v-1395q-37 -6 -91 -6t-87 6l-512 944q-61 113 -141 281h-6q12 -369 12 -430v-795q-41 -6 -69.5 -6t-65.5 6zM348 1585l17 41q23 59 72.5 93t104 34 t111.5 -29l127 -59q37 -18 75 -18t81 51l27 33q51 -4 69 -45l-16 -39q-53 -129 -180 -129q-52 -1 -109 28l-127 60q-41 18 -77 18t-79 -51l-26 -33q-55 4 -70 45z" />
<glyph unicode="&#xd2;" horiz-adv-x="1335" d="M119 700q0 182 53 344t164 261q133 119 332.5 118.5t328.5 -118.5q111 -98 164 -260t53 -345q0 -412 -217 -606q-129 -119 -328.5 -119t-332.5 119q-217 194 -217 606zM272 700.5q0 -110.5 17.5 -209t59.5 -191.5t123 -147.5t195.5 -54.5t195.5 54.5t122 147.5 t58.5 191.5t17.5 209t-17.5 208t-58.5 190.5t-122 147t-195.5 54t-195.5 -54t-123 -146t-59.5 -190.5t-17.5 -209zM412 1669q18 94 75 129l385 -225q-14 -59 -45 -80z" />
<glyph unicode="&#xd3;" horiz-adv-x="1335" d="M119 700q0 182 53 344t164 261q133 119 332.5 118.5t328.5 -118.5q111 -98 164 -260t53 -345q0 -412 -217 -606q-129 -119 -328.5 -119t-332.5 119q-217 194 -217 606zM272 700.5q0 -110.5 17.5 -209t59.5 -191.5t123 -147.5t195.5 -54.5t195.5 54.5t122 147.5 t58.5 191.5t17.5 209t-17.5 208t-58.5 190.5t-122 147t-195.5 54t-195.5 -54t-123 -146t-59.5 -190.5t-17.5 -209zM494 1573l385 225q57 -35 75 -129l-415 -176q-37 25 -45 80z" />
<glyph unicode="&#xd4;" horiz-adv-x="1335" d="M119 700q0 182 53 344t164 261q133 119 332.5 118.5t328.5 -118.5q111 -98 164 -260t53 -345q0 -412 -217 -606q-129 -119 -328.5 -119t-332.5 119q-217 194 -217 606zM272 700.5q0 -110.5 17.5 -209t59.5 -191.5t123 -147.5t195.5 -54.5t195.5 54.5t122 147.5 t58.5 191.5t17.5 209t-17.5 208t-58.5 190.5t-122 147t-195.5 54t-195.5 -54t-123 -146t-59.5 -190.5t-17.5 -209zM373 1571l227 217q33 6 66.5 6t68.5 -6l226 -209q-15 -52 -70 -68l-223 154l-230 -164q-51 18 -65 70z" />
<glyph unicode="&#xd5;" horiz-adv-x="1335" d="M119 700q0 182 53 344t164 261q133 119 332.5 118.5t328.5 -118.5q111 -98 164 -260t53 -345q0 -412 -217 -606q-129 -119 -328.5 -119t-332.5 119q-217 194 -217 606zM272 700.5q0 -110.5 17.5 -209t59.5 -191.5t123 -147.5t195.5 -54.5t195.5 54.5t122 147.5 t58.5 191.5t17.5 209t-17.5 208t-58.5 190.5t-122 147t-195.5 54t-195.5 -54t-123 -146t-59.5 -190.5t-17.5 -209zM340 1595l16 41q59 125 176 125q45 0 103 -26l123 -62q33 -18 69.5 -18t79.5 53l25 33q49 -4 72 -45l-19 -41q-55 -127 -174 -127q-47 -1 -104 26l-123 62 q-37 18 -73 18t-75 -53l-26 -33q-53 4 -70 47z" />
<glyph unicode="&#xd6;" horiz-adv-x="1335" d="M119 700q0 182 53 344t164 261q133 119 332.5 118.5t328.5 -118.5q111 -98 164 -260t53 -345q0 -412 -217 -606q-129 -119 -328.5 -119t-332.5 119q-217 194 -217 606zM272 700.5q0 -110.5 17.5 -209t59.5 -191.5t123 -147.5t195.5 -54.5t195.5 54.5t122 147.5 t58.5 191.5t17.5 209t-17.5 208t-58.5 190.5t-122 147t-195.5 54t-195.5 -54t-123 -146t-59.5 -190.5t-17.5 -209zM373 1597.5q0 32.5 12 71.5q33 16 85 16.5t79 -16.5q14 -37 14 -71.5t-14 -71.5q-23 -16 -80 -16.5t-84 16.5q-12 39 -12 71.5zM772 1597.5q0 34.5 14 71.5 q27 16 79.5 16.5t84.5 -16.5q12 -41 12.5 -72.5t-12.5 -70.5q-27 -16 -84 -16.5t-80 16.5q-14 37 -14 71.5z" />
<glyph unicode="&#xd7;" d="M166 315l285 279q-35 31 -48 45l-237 233q35 78 98 97l234 -236q10 -12 45 -47l278 283q68 -20 99 -97l-285 -278q35 -35 47 -45l238 -234q-31 -72 -99 -98l-278 283l-279 -283q-31 12 -58.5 40t-39.5 58z" />
<glyph unicode="&#xd8;" horiz-adv-x="1335" d="M119 700q0 182 53 344t164 261q133 119 312 118.5t292 -75.5l76 131q68 -8 104 -56l-86 -155q180 -197 180 -588t-217 -586q-133 -119 -314 -119t-290 74l-74 -129q-27 2 -58.5 18.5t-47.5 36.5l86 154q-180 200 -180 571zM272.5 676q0.5 -256 98.5 -414l508 971 q-86 68 -206 67.5t-201 -54.5t-124 -146q-76 -168 -75.5 -424zM457 164q86 -66 194.5 -66t179 38t113.5 96.5t70 140.5q47 145 47 327q0 274 -98 437z" />
<glyph unicode="&#xd9;" horiz-adv-x="1363" d="M188 475v918l13 12h59q45 0 59.5 -21.5t14.5 -72.5v-834q0 -184 91 -282.5t257 -98.5t257 98.5t91 282.5v922q29 6 73 6t71 -6v-924q0 -244 -135.5 -372t-357.5 -128t-357.5 129t-135.5 371zM426 1669q19 94 76 129l385 -225q-14 -59 -45 -80z" />
<glyph unicode="&#xda;" horiz-adv-x="1363" d="M188 475v918l13 12h59q45 0 59.5 -21.5t14.5 -72.5v-834q0 -184 91 -282.5t257 -98.5t257 98.5t91 282.5v922q29 6 73 6t71 -6v-924q0 -244 -135.5 -372t-357.5 -128t-357.5 129t-135.5 371zM508 1573l385 225q57 -35 76 -129l-416 -176q-37 25 -45 80z" />
<glyph unicode="&#xdb;" horiz-adv-x="1363" d="M188 475v918l13 12h59q45 0 59.5 -21.5t14.5 -72.5v-834q0 -184 91 -282.5t257 -98.5t257 98.5t91 282.5v922q29 6 73 6t71 -6v-924q0 -244 -135.5 -372t-357.5 -128t-357.5 129t-135.5 371zM387 1571l227 217q33 6 67 6t69 -6l225 -209q-15 -52 -70 -68l-223 154 l-229 -164q-51 18 -66 70z" />
<glyph unicode="&#xdc;" horiz-adv-x="1363" d="M188 475v918l13 12h59q45 0 59.5 -21.5t14.5 -72.5v-834q0 -184 91 -282.5t257 -98.5t257 98.5t91 282.5v922q29 6 73 6t71 -6v-924q0 -244 -135.5 -372t-357.5 -128t-357.5 129t-135.5 371zM387 1597.5q0 32.5 12 71.5q33 16 85.5 16.5t78.5 -16.5q14 -37 14.5 -71.5 t-14.5 -71.5q-23 -16 -80 -16.5t-84 16.5q-12 39 -12 71.5zM787 1597.5q0 34.5 14 71.5q27 16 79 16.5t85 -16.5q12 -41 12 -72.5t-12 -70.5q-27 -16 -84.5 -16.5t-79.5 16.5q-14 37 -14 71.5z" />
<glyph unicode="&#xdd;" horiz-adv-x="976" d="M33 1382q53 31 100 31t76 -72l205 -493q37 -84 82 -230h8q16 57 84 230l219 551q27 8 62.5 8t72.5 -10l6 -13l-385 -927v-457q-31 -6 -74 -6t-71 6v463zM324 1573l385 225q57 -35 75 -129l-415 -176q-37 25 -45 80z" />
<glyph unicode="&#xde;" horiz-adv-x="1140" d="M205 0v1399q27 6 70.5 6t74.5 -6v-221q240 6 250 6q201 0 324 -113t123 -322.5t-122 -324.5t-325 -115h-250v-309q-31 -6 -73.5 -6t-71.5 6zM350 430q86 2 256 2q166 0 230 107q57 94 57 216t-65.5 214t-227.5 92t-250 2v-633z" />
<glyph unicode="&#xdf;" horiz-adv-x="1243" d="M45 900.5q0 31.5 6 62.5l176 -5v89q0 180 116 281.5t303.5 101.5t299 -108t111.5 -288q0 -70 -29 -160h-4l4 -2q-98 -25 -145 -72.5t-47 -103t96 -137.5l76 -61q156 -127 155.5 -248t-96.5 -198t-243.5 -77t-260.5 60q4 66 58 104q92 -49 186 -49t149.5 42t55.5 113.5 t-97 151.5l-81 70q-141 117 -142 225q0 78 58.5 143.5t154.5 100.5q12 43 13 86q0 131 -70 215t-207 84t-204.5 -77t-67.5 -214v-1030q-31 -6 -71 -6t-71 6v842l-176 -2q-6 29 -6 60.5z" />
<glyph unicode="&#xe0;" horiz-adv-x="1030" d="M106 272q0 164 102.5 246t280.5 82q121 0 232 -20v108q0 215 -191 215q-145 0 -335 -86q-20 16 -36 49t-16 62q215 96 398 96q313 0 313 -340v-422q0 -150 57 -205q-20 -51 -65 -71q-98 39 -119 147q-158 -158 -326 -158q-139 0 -217 89.5t-78 207.5zM240 1362 q16 35 48.5 65.5t71.5 42.5l277 -313q-25 -47 -66 -59zM250 291q0 -90 44 -142.5t122 -52.5t159.5 45t145.5 131v203q-115 16 -228.5 16.5t-178 -55t-64.5 -145.5z" />
<glyph unicode="&#xe1;" horiz-adv-x="1030" d="M106 272q0 164 102.5 246t280.5 82q121 0 232 -20v108q0 215 -191 215q-145 0 -335 -86q-20 16 -36 49t-16 62q215 96 398 96q313 0 313 -340v-422q0 -150 57 -205q-20 -51 -65 -71q-98 39 -119 147q-158 -158 -326 -158q-139 0 -217 89.5t-78 207.5zM250 291 q0 -90 44 -142.5t122 -52.5t159.5 45t145.5 131v203q-115 16 -228.5 16.5t-178 -55t-64.5 -145.5zM367 1157l276 313q39 -12 72 -42.5t49 -65.5l-332 -264q-47 12 -65 59z" />
<glyph unicode="&#xe2;" horiz-adv-x="1030" d="M106 272q0 164 102.5 246t280.5 82q121 0 232 -20v108q0 215 -191 215q-145 0 -335 -86q-20 16 -36 49t-16 62q215 96 398 96q313 0 313 -340v-422q0 -150 57 -205q-20 -51 -65 -71q-98 39 -119 147q-158 -158 -326 -158q-139 0 -217 89.5t-78 207.5zM215 1167l219 271 q25 8 56.5 8t66.5 -6l209 -260q-27 -54 -78 -68l-194 193l-209 -203q-45 20 -70 65zM250 291q0 -90 44 -142.5t122 -52.5t159.5 45t145.5 131v203q-115 16 -228.5 16.5t-178 -55t-64.5 -145.5z" />
<glyph unicode="&#xe3;" horiz-adv-x="1030" d="M106 272q0 164 102.5 246t280.5 82q121 0 232 -20v108q0 215 -191 215q-145 0 -335 -86q-20 16 -36 49t-16 62q215 96 398 96q313 0 313 -340v-422q0 -150 57 -205q-20 -51 -65 -71q-98 39 -119 147q-158 -158 -326 -158q-139 0 -217 89.5t-78 207.5zM147 1210l19 41 q27 59 76 94t103 35t112 -28l127 -62q37 -18 74.5 -18t80.5 53l27 33q51 -4 74 -45l-19 -41q-59 -131 -182 -131q-52 -1 -109 28l-127 62q-41 18 -77.5 18t-77.5 -53l-27 -33q-57 4 -74 47zM250 291q0 -90 44 -142.5t122 -52.5t159.5 45t145.5 131v203q-115 16 -228.5 16.5 t-178 -55t-64.5 -145.5z" />
<glyph unicode="&#xe4;" horiz-adv-x="1030" d="M106 272q0 164 102.5 246t280.5 82q121 0 232 -20v108q0 215 -191 215q-145 0 -335 -86q-20 16 -36 49t-16 62q215 96 398 96q313 0 313 -340v-422q0 -150 57 -205q-20 -51 -65 -71q-98 39 -119 147q-158 -158 -326 -158q-139 0 -217 89.5t-78 207.5zM223.5 1240 q-0.5 36 14.5 65q27 18 75.5 18t77.5 -18q14 -29 14.5 -67t-14.5 -67q-27 -18 -78.5 -18t-74.5 18q-14 33 -14.5 69zM250 291q0 -90 44 -142.5t122 -52.5t159.5 45t145.5 131v203q-115 16 -228.5 16.5t-178 -55t-64.5 -145.5zM582 1240q0 36 14 65q29 18 78 18t76 -18 q14 -29 14 -67t-14 -67q-23 -18 -75 -18t-79 18q-14 33 -14 69z" />
<glyph unicode="&#xe5;" horiz-adv-x="1030" d="M106 272q0 164 102.5 246t280.5 82q121 0 232 -20v108q0 215 -191 215q-145 0 -335 -86q-20 16 -36 49t-16 62q215 96 398 96q313 0 313 -340v-422q0 -150 57 -205q-20 -51 -65 -71q-98 39 -119 147q-158 -158 -326 -158q-139 0 -217 89.5t-78 207.5zM250 291 q0 -90 44 -142.5t122 -52.5t159.5 45t145.5 131v203q-115 16 -228.5 16.5t-178 -55t-64.5 -145.5zM274 1309q0 88 62.5 150.5t157 62.5t157 -62.5t62.5 -150.5t-62.5 -149.5t-157 -61.5t-157 61.5t-62.5 149.5zM389 1308.5q0 -51.5 30 -84t75 -32.5t74.5 32.5t29.5 84 t-29.5 85t-74.5 33.5t-75 -33.5t-30 -85z" />
<glyph unicode="&#xe6;" horiz-adv-x="1636" d="M106 274q0 164 102.5 245t280.5 81q115 0 232 -22v110q0 215 -191 215q-145 0 -335 -86q-20 16 -36 49t-16 62q215 96 408.5 96t267.5 -156q111 160 300.5 160t291.5 -124t102 -314q0 -65 -8 -131h-643q10 -358 271 -359q141 0 299 90q45 -39 53 -100 q-166 -115 -371 -115q-236 0 -330 195q-68 -82 -168 -138.5t-228 -56.5t-205 88.5t-77 210.5zM250 293q0 -90 44 -143.5t126 -53.5t170 47t153 142q-18 68 -24 184q-117 23 -229.5 23t-176 -54.5t-63.5 -144.5zM862 569h506v25q0 143 -60.5 234.5t-181 91.5t-188.5 -94.5 t-76 -256.5z" />
<glyph unicode="&#xe7;" horiz-adv-x="960" d="M109 485.5q0 268.5 118.5 405.5t290.5 137q92 0 165 -30.5t112 -75.5q76 -94 75.5 -183.5t-75.5 -89.5q-25 0 -60 6v43t-15 81t-68.5 93t-137.5 43q-117 0 -187.5 -110.5t-70.5 -308t69.5 -298t190.5 -100.5t272 115q57 -37 70 -90q-133 -123 -293 -143q-16 -27 -26 -62 q78 -6 129 -53t51 -126t-63.5 -132t-156.5 -53t-153 36q2 43 37 88q47 -29 102.5 -28.5t81 27t25.5 65.5t-25.5 64.5t-63.5 25.5t-63 -10q-24 11 -30 31q18 66 43 127q-119 14 -199 94q-145 143 -145 411.5z" />
<glyph unicode="&#xe8;" horiz-adv-x="1030" d="M109 504q0 231 109.5 377.5t298 146.5t290.5 -124t102 -314q0 -65 -8 -131h-643q10 -358 270 -359q143 0 299 88q45 -39 54 -98q-164 -115 -371 -115q-145 0 -237.5 76t-128 189.5t-35.5 263.5zM258 569h508v29q0 141 -61.5 231.5t-183.5 90.5t-189.5 -95.5t-73.5 -255.5 zM268 1362q16 35 49 65.5t72 42.5l277 -313q-25 -47 -66 -59z" />
<glyph unicode="&#xe9;" horiz-adv-x="1030" d="M109 504q0 231 109.5 377.5t298 146.5t290.5 -124t102 -314q0 -65 -8 -131h-643q10 -358 270 -359q143 0 299 88q45 -39 54 -98q-164 -115 -371 -115q-145 0 -237.5 76t-128 189.5t-35.5 263.5zM258 569h508v29q0 141 -61.5 231.5t-183.5 90.5t-189.5 -95.5t-73.5 -255.5 zM395 1157l277 313q39 -12 71.5 -42.5t49.5 -65.5l-332 -264q-48 12 -66 59z" />
<glyph unicode="&#xea;" horiz-adv-x="1030" d="M109 504q0 231 109.5 377.5t298 146.5t290.5 -124t102 -314q0 -65 -8 -131h-643q10 -358 270 -359q143 0 299 88q45 -39 54 -98q-164 -115 -371 -115q-145 0 -237.5 76t-128 189.5t-35.5 263.5zM244 1167l219 271q25 8 56.5 8t66.5 -6l209 -260q-27 -54 -78 -68l-195 193 l-209 -203q-45 20 -69 65zM258 569h508v29q0 141 -61.5 231.5t-183.5 90.5t-189.5 -95.5t-73.5 -255.5z" />
<glyph unicode="&#xeb;" horiz-adv-x="1030" d="M109 504q0 231 109.5 377.5t298 146.5t290.5 -124t102 -314q0 -65 -8 -131h-643q10 -358 270 -359q143 0 299 88q45 -39 54 -98q-164 -115 -371 -115q-145 0 -237.5 76t-128 189.5t-35.5 263.5zM252 1240q0 36 14 65q27 18 76 18t78 -18q14 -29 14 -67t-14 -67 q-27 -18 -79 -18t-75 18q-14 33 -14 69zM258 569h508v29q0 141 -61.5 231.5t-183.5 90.5t-189.5 -95.5t-73.5 -255.5zM610.5 1240q-0.5 36 14.5 65q29 18 78 18t75 -18q14 -29 14.5 -67t-14.5 -67q-23 -18 -74.5 -18t-78.5 18q-14 33 -14.5 69z" />
<glyph unicode="&#xec;" horiz-adv-x="518" d="M-20 1362q16 35 48.5 65.5t71.5 42.5l277 -313q-25 -47 -66 -59zM90 947.5q0 23.5 6 53.5q59 8 99 9h16q59 0 93 -37t34 -103v-870q-27 -6 -70 -6t-69 6v799q0 57 -18.5 77.5t-65.5 20.5h-19q-6 27 -6 50.5z" />
<glyph unicode="&#xed;" horiz-adv-x="518" d="M90 947.5q0 23.5 6 53.5q59 8 99 9h16q59 0 93 -37t34 -103v-870q-27 -6 -70 -6t-69 6v799q0 57 -18.5 77.5t-65.5 20.5h-19q-6 27 -6 50.5zM106 1157l277 313q39 -12 71.5 -42.5t49.5 -65.5l-332 -264q-48 12 -66 59z" />
<glyph unicode="&#xee;" horiz-adv-x="518" d="M-45 1167l219 271q25 8 56.5 8t66.5 -6l209 -260q-27 -54 -78 -68l-195 193l-208 -203q-45 20 -70 65zM90 947.5q0 23.5 6 53.5q59 8 99 9h16q59 0 93 -37t34 -103v-870q-27 -6 -70 -6t-69 6v799q0 57 -18.5 77.5t-65.5 20.5h-19q-6 27 -6 50.5z" />
<glyph unicode="&#xef;" horiz-adv-x="518" d="M-37 1240q0 36 14 65q27 18 76 18t78 -18q14 -29 14 -67t-14 -67q-27 -18 -79 -18t-75 18q-14 33 -14 69zM90 947.5q0 23.5 6 53.5q59 8 99 9h16q59 0 93 -37t34 -103v-870q-27 -6 -70 -6t-69 6v799q0 57 -18.5 77.5t-65.5 20.5h-19q-6 27 -6 50.5zM322 1240q0 36 14 65 q29 18 78 18t75 -18q14 -29 14.5 -67t-14.5 -67q-23 -18 -74.5 -18t-78.5 18q-14 33 -14 69z" />
<glyph unicode="&#xf0;" horiz-adv-x="1056" d="M104.5 486q-0.5 257 143.5 403q109 109 278 108q98 0 197 -51q-49 150 -180 287l-217 -150q-18 12 -38 40t-22 48l197 138q-92 76 -191 121q16 72 58 94q133 -59 235 -144l183 125q18 -12 38.5 -39.5t22.5 -48.5l-162 -110q303 -313 303 -811q0 -266 -143 -412 q-109 -109 -280 -109t-279 109q-143 145 -143.5 402zM250 491.5q0 -172.5 66.5 -289t211.5 -116.5q98 0 163 62.5t89.5 150.5t24.5 223t-39 283q-104 80 -244.5 80t-206 -110.5t-65.5 -283z" />
<glyph unicode="&#xf1;" horiz-adv-x="1116" d="M184 0v997l13 13h53q45 0 59.5 -22.5t14.5 -74.5v-41q68 68 165 109t193 41q137 0 199.5 -88t62.5 -229v-517q0 -121 21 -170q-31 -31 -88 -30q-72 0 -72 92v577q0 129 -33 183.5t-119 54.5t-178 -46t-151 -118v-731q-29 -6 -70 -6t-70 6zM221 1210l19 41q27 59 76 94 t103 35t111 -28l127 -62q37 -18 75 -18t81 53l27 33q51 -4 73 -45l-18 -41q-59 -131 -182 -131q-52 -1 -109 28l-127 62q-41 18 -78 18t-77 -53l-27 -33q-57 4 -74 47z" />
<glyph unicode="&#xf2;" horiz-adv-x="1062" d="M109 501.5q0 272.5 143 418.5q109 109 279.5 108.5t279.5 -108.5q143 -146 143 -418.5t-143 -417.5q-109 -109 -280 -109t-279 109q-143 145 -143 417.5zM254 501q0 -175 66.5 -295t211.5 -120q98 0 164 64q113 113 113 352q0 174 -66.5 296t-211 122t-211 -122 t-66.5 -297zM276 1362q16 35 49 65.5t72 42.5l277 -313q-25 -47 -66 -59z" />
<glyph unicode="&#xf3;" horiz-adv-x="1062" d="M109 501.5q0 272.5 143 418.5q109 109 279.5 108.5t279.5 -108.5q143 -146 143 -418.5t-143 -417.5q-109 -109 -280 -109t-279 109q-143 145 -143 417.5zM254 501q0 -175 66.5 -295t211.5 -120q98 0 164 64q113 113 113 352q0 174 -66.5 296t-211 122t-211 -122 t-66.5 -297zM403 1157l277 313q39 -12 71.5 -42.5t49.5 -65.5l-332 -264q-48 12 -66 59z" />
<glyph unicode="&#xf4;" horiz-adv-x="1062" d="M109 501.5q0 272.5 143 418.5q109 109 279.5 108.5t279.5 -108.5q143 -146 143 -418.5t-143 -417.5q-109 -109 -280 -109t-279 109q-143 145 -143 417.5zM252 1167l219 271q25 8 56.5 8t66.5 -6l209 -260q-27 -54 -78 -68l-195 193l-208 -203q-45 20 -70 65zM254 501 q0 -175 66.5 -295t211.5 -120q98 0 164 64q113 113 113 352q0 174 -66.5 296t-211 122t-211 -122t-66.5 -297z" />
<glyph unicode="&#xf5;" horiz-adv-x="1062" d="M109 501.5q0 272.5 143 418.5q109 109 279.5 108.5t279.5 -108.5q143 -146 143 -418.5t-143 -417.5q-109 -109 -280 -109t-279 109q-143 145 -143 417.5zM184 1210l19 41q27 59 76 94t103 35t112 -28l127 -62q37 -18 74.5 -18t80.5 53l27 33q51 -4 74 -45l-19 -41 q-59 -131 -182 -131q-52 -1 -109 28l-127 62q-41 18 -77.5 18t-77.5 -53l-27 -33q-57 4 -74 47zM254 501q0 -175 66.5 -295t211.5 -120q98 0 164 64q113 113 113 352q0 174 -66.5 296t-211 122t-211 -122t-66.5 -297z" />
<glyph unicode="&#xf6;" horiz-adv-x="1062" d="M109 501.5q0 272.5 143 418.5q109 109 279.5 108.5t279.5 -108.5q143 -146 143 -418.5t-143 -417.5q-109 -109 -280 -109t-279 109q-143 145 -143 417.5zM254 501q0 -175 66.5 -295t211.5 -120q98 0 164 64q113 113 113 352q0 174 -66.5 296t-211 122t-211 -122 t-66.5 -297zM260 1240q0 36 14 65q27 18 76 18t78 -18q14 -29 14 -67t-14 -67q-27 -18 -79 -18t-75 18q-14 33 -14 69zM618.5 1240q-0.5 36 14.5 65q29 18 78 18t75 -18q14 -29 14.5 -67t-14.5 -67q-23 -18 -74.5 -18t-78.5 18q-14 33 -14.5 69z" />
<glyph unicode="&#xf7;" d="M115 596q0 39 6 66h844q6 -27 6 -66t-6 -68h-844q-6 29 -6 68zM440 227q0 45 15 74q31 20 90 20.5t86 -20.5q14 -29 14 -74t-14 -73q-25 -20 -85.5 -20.5t-90.5 20.5q-15 28 -15 73zM440 956q0 45 15 74q29 18 90 18.5t86 -18.5q14 -29 14 -74t-14 -73 q-25 -20 -85.5 -20.5t-90.5 20.5q-15 28 -15 73z" />
<glyph unicode="&#xf8;" horiz-adv-x="1062" d="M109 504.5q0 271.5 143 415.5q109 109 278 108q109 0 191 -43l76 129q25 -2 55.5 -18.5t42.5 -36.5l-82 -144q141 -143 141 -415.5t-143 -415.5q-109 -109 -281 -109q-106 0 -196 45l-74 -129q-25 2 -55.5 18.5t-42.5 37.5l82 143q-135 143 -135 414.5zM248 502 q0 -176 63 -289l355 672q-59 37 -147.5 37t-153.5 -66q-117 -110 -117 -354zM391 123q61 -39 141 -39q146 0 214.5 122t68.5 299t-67 292z" />
<glyph unicode="&#xf9;" horiz-adv-x="1118" d="M152 985q31 31 88 31q72 0 71 -92v-578q0 -129 33 -183t118 -54t177 46t154 115v734q27 6 69.5 6t67.5 -6v-721q0 -168 57 -226q-20 -51 -65 -71q-100 39 -121 151q-70 -70 -169.5 -112.5t-197.5 -42.5q-137 0 -199.5 88t-62.5 229v514q0 123 -20 172zM297 1362 q16 35 49 65.5t72 42.5l276 -313q-25 -47 -65 -59z" />
<glyph unicode="&#xfa;" horiz-adv-x="1118" d="M152 985q31 31 88 31q72 0 71 -92v-578q0 -129 33 -183t118 -54t177 46t154 115v734q27 6 69.5 6t67.5 -6v-721q0 -168 57 -226q-20 -51 -65 -71q-100 39 -121 151q-70 -70 -169.5 -112.5t-197.5 -42.5q-137 0 -199.5 88t-62.5 229v514q0 123 -20 172zM424 1157l276 313 q39 -12 72 -42.5t49 -65.5l-332 -264q-47 12 -65 59z" />
<glyph unicode="&#xfb;" horiz-adv-x="1118" d="M152 985q31 31 88 31q72 0 71 -92v-578q0 -129 33 -183t118 -54t177 46t154 115v734q27 6 69.5 6t67.5 -6v-721q0 -168 57 -226q-20 -51 -65 -71q-100 39 -121 151q-70 -70 -169.5 -112.5t-197.5 -42.5q-137 0 -199.5 88t-62.5 229v514q0 123 -20 172zM272 1167l220 271 q25 8 56.5 8t65.5 -6l209 -260q-27 -54 -78 -68l-194 193l-209 -203q-45 20 -70 65z" />
<glyph unicode="&#xfc;" horiz-adv-x="1118" d="M152 985q31 31 88 31q72 0 71 -92v-578q0 -129 33 -183t118 -54t177 46t154 115v734q27 6 69.5 6t67.5 -6v-721q0 -168 57 -226q-20 -51 -65 -71q-100 39 -121 151q-70 -70 -169.5 -112.5t-197.5 -42.5q-137 0 -199.5 88t-62.5 229v514q0 123 -20 172zM281 1240 q0 36 14 65q27 18 76 18t78 -18q14 -29 14 -67t-14 -67q-27 -18 -79 -18t-75 18q-14 33 -14 69zM639 1240q0 36 14 65q29 18 78 18t76 -18q14 -29 14 -67t-14 -67q-23 -18 -75 -18t-79 18q-14 33 -14 69z" />
<glyph unicode="&#xfd;" horiz-adv-x="917" d="M16 -410q0 49 33 91q53 -20 129 -21q113 0 170.5 75t106.5 236l6 21q-51 4 -77 23.5t-44 74.5l-291 903q55 25 82 25q55 0 76 -68l166 -522q59 -190 98 -322q4 -14 21 -14l253 914q31 6 68 6t68 -11l4 -6l-283 -960q-78 -266 -166 -373.5t-260 -107.5q-84 0 -160 26v10z M332 1157l276 313q39 -12 72 -42.5t49 -65.5l-332 -264q-47 12 -65 59z" />
<glyph unicode="&#xfe;" horiz-adv-x="1073" d="M184 -428v1921l13 12h49q45 0 59 -22.5t14 -73.5v-532q125 143 297 143t261.5 -138.5t89.5 -384t-116 -379.5t-258 -134t-274 88v-416q0 -51 -14 -73.5t-59 -22.5h-49zM319 201q133 -94 246 -94.5t186.5 101t73.5 300.5t-64.5 294t-162.5 95q-74 0 -151.5 -46 t-127.5 -124v-526z" />
<glyph unicode="&#xff;" horiz-adv-x="917" d="M16 -410q0 49 33 91q53 -20 129 -21q113 0 170.5 75t106.5 236l6 21q-51 4 -77 23.5t-44 74.5l-291 903q55 25 82 25q55 0 76 -68l166 -522q59 -190 98 -322q4 -14 21 -14l253 914q31 6 68 6t68 -11l4 -6l-283 -960q-78 -266 -166 -373.5t-260 -107.5q-84 0 -160 26v10z M188.5 1240q-0.5 36 14.5 65q27 18 76 18t77 -18q14 -29 14.5 -67t-14.5 -67q-27 -18 -78.5 -18t-74.5 18q-14 33 -14.5 69zM547 1240q0 36 14 65q29 18 78 18t76 -18q14 -29 14 -67t-14 -67q-23 -18 -75 -18t-79 18q-14 33 -14 69z" />
<glyph unicode="&#x152;" horiz-adv-x="1806" d="M119 700q0 182 53 344t164 261q133 119 334 118q31 0 239 -24h750q4 -23 4 -59.5t-10 -65.5h-654l2 -125v-381l121 2h432q6 -31 6.5 -61.5t-6.5 -61.5h-432q-78 0 -121 2v-454l-2 -72q70 4 125 4h568q0 -41 -4 -61q-12 -66 -93 -66h-686q-203 -25 -239 -25 q-201 0 -334 119q-217 195 -217 606zM272 700.5q0 -110.5 17.5 -209t59.5 -191.5t123 -147.5t187.5 -54.5t202.5 21v1161q-119 20 -213 20t-176 -54t-124 -146t-59.5 -190.5t-17.5 -209z" />
<glyph unicode="&#x153;" horiz-adv-x="1736" d="M109 501.5q0 274.5 143 418.5q109 109 278 108q258 0 355 -223q100 223 338 223q188 0 289.5 -124t101.5 -314q0 -65 -8 -131h-641q10 -358 268 -359q143 0 301 88q43 -39 51 -98q-164 -115 -371 -115q-244 0 -333 213q-98 -213 -351 -213q-170 0 -278 109 q-143 143 -143 417.5zM254 502q0 -174 66.5 -295t211.5 -121q98 0 164 64q113 113 113 352q0 174 -66.5 296t-211 122t-211 -122t-66.5 -296zM965 569h503v25q0 145 -59 235.5t-181 90.5t-188.5 -94.5t-74.5 -256.5z" />
<glyph unicode="&#x178;" horiz-adv-x="976" d="M33 1382q53 31 100 31t76 -72l205 -493q37 -84 82 -230h8q16 57 84 230l219 551q27 8 62.5 8t72.5 -10l6 -13l-385 -927v-457q-31 -6 -74 -6t-71 6v463zM203 1597.5q0 32.5 12 71.5q33 16 85 16.5t79 -16.5q14 -37 14 -71.5t-14 -71.5q-23 -16 -80 -16.5t-84 16.5 q-12 39 -12 71.5zM602 1597.5q0 34.5 14 71.5q27 16 79.5 16.5t84.5 -16.5q12 -41 12.5 -72.5t-12.5 -70.5q-27 -16 -84 -16.5t-80 16.5q-14 37 -14 71.5z" />
<glyph unicode="&#x2c6;" horiz-adv-x="815" d="M129 1167l219 271q25 8 56.5 8t66.5 -6l209 -260q-27 -54 -78 -68l-194 193l-209 -203q-45 20 -70 65z" />
<glyph unicode="&#x2dc;" horiz-adv-x="815" d="M61 1210l19 41q27 59 76 94t103 35t112 -28l127 -62q37 -18 74.5 -18t80.5 53l27 33q51 -4 74 -45l-19 -41q-59 -131 -182 -131q-52 -1 -109 28l-127 62q-41 18 -77.5 18t-77.5 -53l-27 -33q-57 4 -74 47z" />
<glyph unicode="&#x2000;" horiz-adv-x="900" />
<glyph unicode="&#x2001;" horiz-adv-x="1800" />
<glyph unicode="&#x2002;" horiz-adv-x="900" />
<glyph unicode="&#x2003;" horiz-adv-x="1800" />
<glyph unicode="&#x2004;" horiz-adv-x="600" />
<glyph unicode="&#x2005;" horiz-adv-x="450" />
<glyph unicode="&#x2006;" horiz-adv-x="300" />
<glyph unicode="&#x2007;" horiz-adv-x="300" />
<glyph unicode="&#x2008;" horiz-adv-x="225" />
<glyph unicode="&#x2009;" horiz-adv-x="360" />
<glyph unicode="&#x200a;" horiz-adv-x="100" />
<glyph unicode="&#x2010;" horiz-adv-x="679" d="M102.5 542q-0.5 40 6.5 66h462q6 -27 6 -65.5t-6 -67.5h-462q-6 27 -6.5 67z" />
<glyph unicode="&#x2011;" horiz-adv-x="679" d="M102.5 542q-0.5 40 6.5 66h462q6 -27 6 -65.5t-6 -67.5h-462q-6 27 -6.5 67z" />
<glyph unicode="&#x2012;" horiz-adv-x="679" d="M102.5 542q-0.5 40 6.5 66h462q6 -27 6 -65.5t-6 -67.5h-462q-6 27 -6.5 67z" />
<glyph unicode="&#x2013;" horiz-adv-x="1052" d="M131 538.5q0 34.5 6 65.5h778q6 -31 6 -65.5t-6 -61.5h-778q-6 27 -6 61.5z" />
<glyph unicode="&#x2014;" horiz-adv-x="1613" d="M164 538.5q0 34.5 6 65.5h1272q6 -31 6 -65.5t-6 -61.5h-1272q-6 27 -6 61.5z" />
<glyph unicode="&#x2018;" horiz-adv-x="411" d="M92 1198q0 227 219 324q20 -10 33.5 -32t11.5 -42q-119 -68 -123 -174q61 -6 82 -21q16 -29 16.5 -90t-16.5 -84q-37 -18 -107 -18t-95 18q-20 41 -21 119z" />
<glyph unicode="&#x2019;" horiz-adv-x="411" d="M55 1130q119 68 123 175q-61 6 -82 20q-16 29 -16 89.5t16 82.5q41 20 108.5 20t94.5 -20q20 -37 20 -117q0 -229 -219 -325q-20 8 -33.5 30.5t-11.5 44.5z" />
<glyph unicode="&#x201a;" horiz-adv-x="413" d="M72 -193q119 68 123 175q-61 6 -82 20q-16 29 -16.5 89.5t16.5 82.5q41 20 108 20t94 -20q20 -37 21 -117q0 -227 -219 -323q-20 8 -33.5 29.5t-11.5 43.5z" />
<glyph unicode="&#x201c;" horiz-adv-x="753" d="M92 1198q0 227 219 324q20 -10 33.5 -32t11.5 -42q-119 -68 -123 -174q61 -6 82 -21q16 -29 16.5 -90t-16.5 -84q-37 -18 -107 -18t-95 18q-20 41 -21 119zM434 1198q0 227 219 324q20 -10 33.5 -32t11.5 -42q-119 -68 -123 -174q61 -6 82 -21q16 -29 16.5 -90t-16.5 -84 q-37 -18 -107 -18t-95 18q-20 41 -21 119z" />
<glyph unicode="&#x201d;" horiz-adv-x="753" d="M55 1130q119 68 123 175q-61 6 -82 20q-16 29 -16 89.5t16 82.5q41 20 108.5 20t94.5 -20q20 -37 20 -117q0 -229 -219 -325q-20 8 -33.5 30.5t-11.5 44.5zM397 1130q119 68 123 175q-61 6 -82 20q-16 29 -16 89.5t16 82.5q41 20 108.5 20t94.5 -20q20 -37 21 -117 q0 -229 -220 -325q-20 8 -33.5 30.5t-11.5 44.5z" />
<glyph unicode="&#x201e;" horiz-adv-x="755" d="M72 -193q119 68 123 175q-61 6 -82 20q-16 29 -16.5 89.5t16.5 82.5q41 20 108 20t94 -20q20 -37 21 -117q0 -227 -219 -323q-20 8 -33.5 29.5t-11.5 43.5zM414 -193q119 68 123 175q-61 6 -82 20q-16 29 -16.5 89.5t16.5 82.5q41 20 108 20t94 -20q20 -37 21 -117 q0 -227 -219 -323q-20 8 -33.5 29.5t-11.5 43.5z" />
<glyph unicode="&#x2022;" horiz-adv-x="894" d="M245.5 560q0.5 108 28.5 155q61 37 175 37q41 0 96 -11.5t76 -25.5q27 -43 26.5 -154.5t-26.5 -161.5q-18 -14 -73.5 -25.5t-98.5 -11.5q-114 0 -175 37q-29 53 -28.5 161z" />
<glyph unicode="&#x202f;" horiz-adv-x="360" />
<glyph unicode="&#x2039;" horiz-adv-x="655" d="M80 522.5q0 26.5 10 50.5l387 373q57 -25 82 -80l-305 -342l317 -354q-25 -55 -82 -80l-399 381q-10 25 -10 51.5z" />
<glyph unicode="&#x203a;" horiz-adv-x="655" d="M82 866q25 55 82 80l399 -381q10 -25 10 -51.5t-10 -50.5l-387 -373q-57 25 -82 80l307 342z" />
<glyph unicode="&#x205f;" horiz-adv-x="450" />
<glyph unicode="&#x20ac;" horiz-adv-x="1165" d="M63.5 512.5q-0.5 26.5 6.5 56.5h145q-2 31 -2 91.5t2 89.5h-145q-6 29 -6.5 55t6.5 53h155q66 494 461 494q221 0 414 -156q-23 -61 -78 -96q-166 123 -320 123q-279 0 -327 -365h477q6 -29 6 -54.5t-6 -53.5h-487q-2 -29 -2.5 -90.5t2.5 -90.5h487q6 -31 6 -57.5 t-6 -52.5h-475q53 -354 325 -355q154 0 320 123q55 -35 78 -96q-188 -156 -414 -156q-393 0 -461 484h-155q-6 27 -6.5 53.5z" />
<glyph unicode="&#xe000;" horiz-adv-x="1024" d="M0 0v1024h1024v-1024h-1024z" />
</font>
</defs>
</svg>
